%TF.GenerationSoftware,KiCad,Pcbnew,(5.1.6-0-10_14)*%
%TF.CreationDate,2020-10-08T00:08:50+03:00*%
%TF.ProjectId,ikea-fyrtur,696b6561-2d66-4797-9274-75722e6b6963,rev?*%
%TF.SameCoordinates,Original*%
%TF.FileFunction,Copper,L2,Inr*%
%TF.FilePolarity,Positive*%
%FSLAX46Y46*%
G04 Gerber Fmt 4.6, Leading zero omitted, Abs format (unit mm)*
G04 Created by KiCad (PCBNEW (5.1.6-0-10_14)) date 2020-10-08 00:08:50*
%MOMM*%
%LPD*%
G01*
G04 APERTURE LIST*
%TA.AperFunction,WasherPad*%
%ADD10C,0.750000*%
%TD*%
%TA.AperFunction,ViaPad*%
%ADD11R,1.500000X1.100000*%
%TD*%
%TA.AperFunction,ViaPad*%
%ADD12C,1.800000*%
%TD*%
%TA.AperFunction,ViaPad*%
%ADD13R,1.350000X1.350000*%
%TD*%
%TA.AperFunction,ViaPad*%
%ADD14O,1.350000X1.350000*%
%TD*%
%TA.AperFunction,ViaPad*%
%ADD15C,0.800000*%
%TD*%
%TA.AperFunction,Conductor*%
%ADD16C,0.254000*%
%TD*%
G04 APERTURE END LIST*
D10*
%TO.N,*%
%TO.C,SW4*%
X90890500Y-78295500D03*
X92646500Y-78295500D03*
%TD*%
%TO.N,*%
%TO.C,SW3*%
X90890500Y-92329000D03*
X92646500Y-92329000D03*
%TD*%
D11*
%TO.N,GND*%
%TO.C,J2*%
X133794500Y-95250000D03*
%TO.N,RXD2*%
X133794500Y-93091000D03*
%TO.N,TXD2*%
X131254500Y-95250000D03*
%TO.N,+7.5V*%
X131254500Y-93091000D03*
%TD*%
%TO.N,Net-(D1-Pad4)*%
%TO.C,D1*%
%TA.AperFunction,ViaPad*%
G36*
G01*
X94495200Y-81294400D02*
X95395200Y-81294400D01*
G75*
G02*
X95845200Y-81744400I0J-450000D01*
G01*
X95845200Y-82644400D01*
G75*
G02*
X95395200Y-83094400I-450000J0D01*
G01*
X94495200Y-83094400D01*
G75*
G02*
X94045200Y-82644400I0J450000D01*
G01*
X94045200Y-81744400D01*
G75*
G02*
X94495200Y-81294400I450000J0D01*
G01*
G37*
%TD.AperFunction*%
D12*
%TO.N,GND*%
X93421200Y-83972400D03*
%TO.N,+3V3*%
X94945200Y-85496400D03*
%TO.N,Net-(D1-Pad1)*%
X93421200Y-87020400D03*
%TD*%
D13*
%TO.N,GPIO15*%
%TO.C,J8*%
X125222000Y-95656400D03*
%TD*%
D14*
%TO.N,SDA*%
%TO.C,J6*%
X98348800Y-92766400D03*
%TO.N,SCL*%
X98348800Y-90766400D03*
%TO.N,GND*%
X98348800Y-88766400D03*
D13*
%TO.N,+3V3*%
X98348800Y-86766400D03*
%TD*%
D14*
%TO.N,GND*%
%TO.C,J5*%
X120345200Y-95522800D03*
D13*
%TO.N,EXT_V*%
X120345200Y-93522800D03*
%TD*%
D14*
%TO.N,RTS*%
%TO.C,J4*%
X120345200Y-90518000D03*
%TO.N,TXD0*%
X120345200Y-88518000D03*
%TO.N,RXD0*%
X120345200Y-86518000D03*
%TO.N,VIN*%
X120345200Y-84518000D03*
%TO.N,CTS_DTR*%
X120345200Y-82518000D03*
D13*
%TO.N,GND*%
X120345200Y-80518000D03*
%TD*%
D14*
%TO.N,LED*%
%TO.C,J1*%
X104749600Y-93178400D03*
%TO.N,GPIO0_BTN_DOWN*%
X104749600Y-91178400D03*
%TO.N,TXD2*%
X104749600Y-89178400D03*
%TO.N,RXD2*%
X104749600Y-87178400D03*
%TO.N,BTN_UP*%
X104749600Y-85178400D03*
%TO.N,+3V3*%
X104749600Y-83178400D03*
D13*
%TO.N,GND*%
X104749600Y-81178400D03*
%TD*%
D15*
%TO.N,EN*%
X100228400Y-85750400D03*
%TO.N,GND*%
X91592400Y-95808800D03*
X125628400Y-83210400D03*
X91795600Y-92811600D03*
X91795600Y-78790800D03*
X99161600Y-97078800D03*
X96215200Y-97028000D03*
X127203200Y-81330800D03*
X96367600Y-80568800D03*
X95504000Y-80518000D03*
X129235200Y-97078800D03*
X129235200Y-96164400D03*
X128320800Y-97078800D03*
X128320800Y-96164400D03*
X110083600Y-91490800D03*
X109220000Y-91490800D03*
X109118400Y-88646000D03*
X107746800Y-94030800D03*
X106680000Y-94030800D03*
X109982000Y-88646000D03*
X117449600Y-97028000D03*
X115824000Y-96164400D03*
X116230400Y-97028000D03*
X123037600Y-87274400D03*
X122986800Y-89052400D03*
%TO.N,+3V3*%
X97790000Y-84328000D03*
X95707200Y-94030800D03*
X99212400Y-96012000D03*
X98614200Y-95187800D03*
X99833400Y-95187800D03*
X113334800Y-83718400D03*
X95656400Y-76606400D03*
X112522000Y-88646000D03*
X111556800Y-88646000D03*
X107645200Y-88646000D03*
X106781600Y-88646000D03*
X112471200Y-91490800D03*
X111506000Y-91490800D03*
X113080800Y-94742000D03*
X111912400Y-94742000D03*
X110693200Y-94742000D03*
X96266000Y-75996800D03*
X91338400Y-81635600D03*
%TO.N,TXD0*%
X127152400Y-80111600D03*
%TO.N,RST*%
X103305833Y-81910967D03*
%TO.N,Net-(R11-Pad1)*%
X93980000Y-92354400D03*
%TO.N,Net-(R10-Pad2)*%
X94030800Y-80314800D03*
%TO.N,Net-(R14-Pad2)*%
X115112800Y-83718400D03*
%TO.N,LED*%
X96215200Y-91744800D03*
%TO.N,BTN_UP*%
X94234000Y-76860400D03*
%TO.N,GPIO0_BTN_DOWN*%
X113639600Y-87934800D03*
%TO.N,SCL*%
X99364800Y-84328000D03*
%TO.N,VIN*%
X127152400Y-78892400D03*
X126898400Y-77927200D03*
%TD*%
D16*
%TO.N,GND*%
G36*
X93574226Y-76056463D02*
G01*
X93430063Y-76200626D01*
X93316795Y-76370144D01*
X93238774Y-76558502D01*
X93199000Y-76758461D01*
X93199000Y-76962339D01*
X93238774Y-77162298D01*
X93316795Y-77350656D01*
X93430063Y-77520174D01*
X93574226Y-77664337D01*
X93743744Y-77777605D01*
X93932102Y-77855626D01*
X94132061Y-77895400D01*
X94335939Y-77895400D01*
X94535898Y-77855626D01*
X94724256Y-77777605D01*
X94893774Y-77664337D01*
X95037937Y-77520174D01*
X95075924Y-77463322D01*
X95166144Y-77523605D01*
X95354502Y-77601626D01*
X95554461Y-77641400D01*
X95758339Y-77641400D01*
X95958298Y-77601626D01*
X96146656Y-77523605D01*
X96316174Y-77410337D01*
X96460337Y-77266174D01*
X96573605Y-77096656D01*
X96627103Y-76967503D01*
X96756256Y-76914005D01*
X96925774Y-76800737D01*
X97069937Y-76656574D01*
X97183205Y-76487056D01*
X97261226Y-76298698D01*
X97264278Y-76283355D01*
X100485996Y-80192373D01*
X100503637Y-80209940D01*
X100524366Y-80223729D01*
X100547387Y-80233208D01*
X100584000Y-80238600D01*
X103496120Y-80238600D01*
X103485098Y-80259220D01*
X103448788Y-80378918D01*
X103436528Y-80503400D01*
X103439518Y-80882282D01*
X103407772Y-80875967D01*
X103203894Y-80875967D01*
X103003935Y-80915741D01*
X102815577Y-80993762D01*
X102646059Y-81107030D01*
X102501896Y-81251193D01*
X102388628Y-81420711D01*
X102310607Y-81609069D01*
X102270833Y-81809028D01*
X102270833Y-82012906D01*
X102310607Y-82212865D01*
X102388628Y-82401223D01*
X102501896Y-82570741D01*
X102646059Y-82714904D01*
X102815577Y-82828172D01*
X103003935Y-82906193D01*
X103203894Y-82945967D01*
X103407772Y-82945967D01*
X103462328Y-82935115D01*
X103439600Y-83049376D01*
X103439600Y-83307424D01*
X103489942Y-83560513D01*
X103588693Y-83798918D01*
X103732056Y-84013477D01*
X103896979Y-84178400D01*
X103732056Y-84343323D01*
X103588693Y-84557882D01*
X103489942Y-84796287D01*
X103439600Y-85049376D01*
X103439600Y-85307424D01*
X103489942Y-85560513D01*
X103588693Y-85798918D01*
X103732056Y-86013477D01*
X103896979Y-86178400D01*
X103732056Y-86343323D01*
X103588693Y-86557882D01*
X103489942Y-86796287D01*
X103439600Y-87049376D01*
X103439600Y-87307424D01*
X103489942Y-87560513D01*
X103588693Y-87798918D01*
X103732056Y-88013477D01*
X103896979Y-88178400D01*
X103732056Y-88343323D01*
X103588693Y-88557882D01*
X103489942Y-88796287D01*
X103439600Y-89049376D01*
X103439600Y-89307424D01*
X103489942Y-89560513D01*
X103588693Y-89798918D01*
X103732056Y-90013477D01*
X103896979Y-90178400D01*
X103732056Y-90343323D01*
X103588693Y-90557882D01*
X103489942Y-90796287D01*
X103439600Y-91049376D01*
X103439600Y-91307424D01*
X103489942Y-91560513D01*
X103588693Y-91798918D01*
X103732056Y-92013477D01*
X103896979Y-92178400D01*
X103732056Y-92343323D01*
X103588693Y-92557882D01*
X103489942Y-92796287D01*
X103439600Y-93049376D01*
X103439600Y-93307424D01*
X103489942Y-93560513D01*
X103588693Y-93798918D01*
X103732056Y-94013477D01*
X103914523Y-94195944D01*
X104129082Y-94339307D01*
X104367487Y-94438058D01*
X104620576Y-94488400D01*
X104878624Y-94488400D01*
X105131713Y-94438058D01*
X105370118Y-94339307D01*
X105584677Y-94195944D01*
X105767144Y-94013477D01*
X105910507Y-93798918D01*
X106009258Y-93560513D01*
X106059600Y-93307424D01*
X106059600Y-93049376D01*
X106019505Y-92847800D01*
X119032128Y-92847800D01*
X119032128Y-94197800D01*
X119044388Y-94322282D01*
X119080698Y-94441980D01*
X119139663Y-94552294D01*
X119219015Y-94648985D01*
X119312759Y-94725919D01*
X119215727Y-94859171D01*
X119107962Y-95092272D01*
X119077290Y-95193400D01*
X119200976Y-95395800D01*
X120218200Y-95395800D01*
X120218200Y-95375800D01*
X120472200Y-95375800D01*
X120472200Y-95395800D01*
X121489424Y-95395800D01*
X121613110Y-95193400D01*
X121582438Y-95092272D01*
X121531181Y-94981400D01*
X123908928Y-94981400D01*
X123908928Y-96331400D01*
X123921188Y-96455882D01*
X123957498Y-96575580D01*
X124016463Y-96685894D01*
X124095815Y-96782585D01*
X124192506Y-96861937D01*
X124302820Y-96920902D01*
X124422518Y-96957212D01*
X124547000Y-96969472D01*
X125897000Y-96969472D01*
X126021482Y-96957212D01*
X126141180Y-96920902D01*
X126251494Y-96861937D01*
X126348185Y-96782585D01*
X126427537Y-96685894D01*
X126486502Y-96575580D01*
X126522812Y-96455882D01*
X126535072Y-96331400D01*
X126535072Y-94981400D01*
X126522812Y-94856918D01*
X126486502Y-94737220D01*
X126427537Y-94626906D01*
X126348185Y-94530215D01*
X126251494Y-94450863D01*
X126141180Y-94391898D01*
X126021482Y-94355588D01*
X125897000Y-94343328D01*
X124547000Y-94343328D01*
X124422518Y-94355588D01*
X124302820Y-94391898D01*
X124192506Y-94450863D01*
X124095815Y-94530215D01*
X124016463Y-94626906D01*
X123957498Y-94737220D01*
X123921188Y-94856918D01*
X123908928Y-94981400D01*
X121531181Y-94981400D01*
X121474673Y-94859171D01*
X121377641Y-94725919D01*
X121471385Y-94648985D01*
X121550737Y-94552294D01*
X121609702Y-94441980D01*
X121646012Y-94322282D01*
X121658272Y-94197800D01*
X121658272Y-92847800D01*
X121646012Y-92723318D01*
X121609702Y-92603620D01*
X121550737Y-92493306D01*
X121471385Y-92396615D01*
X121374694Y-92317263D01*
X121264380Y-92258298D01*
X121144682Y-92221988D01*
X121020200Y-92209728D01*
X119670200Y-92209728D01*
X119545718Y-92221988D01*
X119426020Y-92258298D01*
X119315706Y-92317263D01*
X119219015Y-92396615D01*
X119139663Y-92493306D01*
X119080698Y-92603620D01*
X119044388Y-92723318D01*
X119032128Y-92847800D01*
X106019505Y-92847800D01*
X106009258Y-92796287D01*
X105910507Y-92557882D01*
X105767144Y-92343323D01*
X105602221Y-92178400D01*
X105767144Y-92013477D01*
X105910507Y-91798918D01*
X106009258Y-91560513D01*
X106043401Y-91388861D01*
X110471000Y-91388861D01*
X110471000Y-91592739D01*
X110510774Y-91792698D01*
X110588795Y-91981056D01*
X110702063Y-92150574D01*
X110846226Y-92294737D01*
X111015744Y-92408005D01*
X111204102Y-92486026D01*
X111404061Y-92525800D01*
X111607939Y-92525800D01*
X111807898Y-92486026D01*
X111988600Y-92411176D01*
X112169302Y-92486026D01*
X112369261Y-92525800D01*
X112573139Y-92525800D01*
X112773098Y-92486026D01*
X112961456Y-92408005D01*
X113130974Y-92294737D01*
X113275137Y-92150574D01*
X113388405Y-91981056D01*
X113466426Y-91792698D01*
X113506200Y-91592739D01*
X113506200Y-91388861D01*
X113466426Y-91188902D01*
X113388405Y-91000544D01*
X113275137Y-90831026D01*
X113130974Y-90686863D01*
X112961456Y-90573595D01*
X112773098Y-90495574D01*
X112573139Y-90455800D01*
X112369261Y-90455800D01*
X112169302Y-90495574D01*
X111988600Y-90570424D01*
X111807898Y-90495574D01*
X111607939Y-90455800D01*
X111404061Y-90455800D01*
X111204102Y-90495574D01*
X111015744Y-90573595D01*
X110846226Y-90686863D01*
X110702063Y-90831026D01*
X110588795Y-91000544D01*
X110510774Y-91188902D01*
X110471000Y-91388861D01*
X106043401Y-91388861D01*
X106059600Y-91307424D01*
X106059600Y-91049376D01*
X106009258Y-90796287D01*
X105910507Y-90557882D01*
X105767144Y-90343323D01*
X105602221Y-90178400D01*
X105767144Y-90013477D01*
X105910507Y-89798918D01*
X106009258Y-89560513D01*
X106046280Y-89374391D01*
X106121826Y-89449937D01*
X106291344Y-89563205D01*
X106479702Y-89641226D01*
X106679661Y-89681000D01*
X106883539Y-89681000D01*
X107083498Y-89641226D01*
X107213400Y-89587418D01*
X107343302Y-89641226D01*
X107543261Y-89681000D01*
X107747139Y-89681000D01*
X107947098Y-89641226D01*
X108135456Y-89563205D01*
X108304974Y-89449937D01*
X108449137Y-89305774D01*
X108562405Y-89136256D01*
X108640426Y-88947898D01*
X108680200Y-88747939D01*
X108680200Y-88544061D01*
X110521800Y-88544061D01*
X110521800Y-88747939D01*
X110561574Y-88947898D01*
X110639595Y-89136256D01*
X110752863Y-89305774D01*
X110897026Y-89449937D01*
X111066544Y-89563205D01*
X111254902Y-89641226D01*
X111454861Y-89681000D01*
X111658739Y-89681000D01*
X111858698Y-89641226D01*
X112039400Y-89566376D01*
X112220102Y-89641226D01*
X112420061Y-89681000D01*
X112623939Y-89681000D01*
X112823898Y-89641226D01*
X113012256Y-89563205D01*
X113181774Y-89449937D01*
X113325937Y-89305774D01*
X113439205Y-89136256D01*
X113510400Y-88964377D01*
X113537661Y-88969800D01*
X113741539Y-88969800D01*
X113941498Y-88930026D01*
X114129856Y-88852005D01*
X114299374Y-88738737D01*
X114443537Y-88594574D01*
X114556805Y-88425056D01*
X114634826Y-88236698D01*
X114674600Y-88036739D01*
X114674600Y-87832861D01*
X114634826Y-87632902D01*
X114556805Y-87444544D01*
X114443537Y-87275026D01*
X114299374Y-87130863D01*
X114129856Y-87017595D01*
X113941498Y-86939574D01*
X113741539Y-86899800D01*
X113537661Y-86899800D01*
X113337702Y-86939574D01*
X113149344Y-87017595D01*
X112979826Y-87130863D01*
X112835663Y-87275026D01*
X112722395Y-87444544D01*
X112651200Y-87616423D01*
X112623939Y-87611000D01*
X112420061Y-87611000D01*
X112220102Y-87650774D01*
X112039400Y-87725624D01*
X111858698Y-87650774D01*
X111658739Y-87611000D01*
X111454861Y-87611000D01*
X111254902Y-87650774D01*
X111066544Y-87728795D01*
X110897026Y-87842063D01*
X110752863Y-87986226D01*
X110639595Y-88155744D01*
X110561574Y-88344102D01*
X110521800Y-88544061D01*
X108680200Y-88544061D01*
X108640426Y-88344102D01*
X108562405Y-88155744D01*
X108449137Y-87986226D01*
X108304974Y-87842063D01*
X108135456Y-87728795D01*
X107947098Y-87650774D01*
X107747139Y-87611000D01*
X107543261Y-87611000D01*
X107343302Y-87650774D01*
X107213400Y-87704582D01*
X107083498Y-87650774D01*
X106883539Y-87611000D01*
X106679661Y-87611000D01*
X106479702Y-87650774D01*
X106291344Y-87728795D01*
X106121826Y-87842063D01*
X105977663Y-87986226D01*
X105864395Y-88155744D01*
X105786374Y-88344102D01*
X105782082Y-88365679D01*
X105767144Y-88343323D01*
X105602221Y-88178400D01*
X105767144Y-88013477D01*
X105910507Y-87798918D01*
X106009258Y-87560513D01*
X106059600Y-87307424D01*
X106059600Y-87049376D01*
X106009258Y-86796287D01*
X105910507Y-86557882D01*
X105767144Y-86343323D01*
X105602221Y-86178400D01*
X105767144Y-86013477D01*
X105910507Y-85798918D01*
X106009258Y-85560513D01*
X106059600Y-85307424D01*
X106059600Y-85049376D01*
X106009258Y-84796287D01*
X105910507Y-84557882D01*
X105767144Y-84343323D01*
X105602221Y-84178400D01*
X105767144Y-84013477D01*
X105910507Y-83798918D01*
X105986083Y-83616461D01*
X112299800Y-83616461D01*
X112299800Y-83820339D01*
X112339574Y-84020298D01*
X112417595Y-84208656D01*
X112530863Y-84378174D01*
X112675026Y-84522337D01*
X112844544Y-84635605D01*
X113032902Y-84713626D01*
X113232861Y-84753400D01*
X113436739Y-84753400D01*
X113636698Y-84713626D01*
X113825056Y-84635605D01*
X113994574Y-84522337D01*
X114138737Y-84378174D01*
X114223800Y-84250868D01*
X114308863Y-84378174D01*
X114453026Y-84522337D01*
X114622544Y-84635605D01*
X114810902Y-84713626D01*
X115010861Y-84753400D01*
X115214739Y-84753400D01*
X115414698Y-84713626D01*
X115603056Y-84635605D01*
X115772574Y-84522337D01*
X115916737Y-84378174D01*
X116030005Y-84208656D01*
X116108026Y-84020298D01*
X116147800Y-83820339D01*
X116147800Y-83616461D01*
X116108026Y-83416502D01*
X116030005Y-83228144D01*
X115916737Y-83058626D01*
X115772574Y-82914463D01*
X115603056Y-82801195D01*
X115414698Y-82723174D01*
X115214739Y-82683400D01*
X115010861Y-82683400D01*
X114810902Y-82723174D01*
X114622544Y-82801195D01*
X114453026Y-82914463D01*
X114308863Y-83058626D01*
X114223800Y-83185932D01*
X114138737Y-83058626D01*
X113994574Y-82914463D01*
X113825056Y-82801195D01*
X113636698Y-82723174D01*
X113436739Y-82683400D01*
X113232861Y-82683400D01*
X113032902Y-82723174D01*
X112844544Y-82801195D01*
X112675026Y-82914463D01*
X112530863Y-83058626D01*
X112417595Y-83228144D01*
X112339574Y-83416502D01*
X112299800Y-83616461D01*
X105986083Y-83616461D01*
X106009258Y-83560513D01*
X106059600Y-83307424D01*
X106059600Y-83049376D01*
X106009258Y-82796287D01*
X105910507Y-82557882D01*
X105788903Y-82375887D01*
X105875785Y-82304585D01*
X105955137Y-82207894D01*
X106014102Y-82097580D01*
X106050412Y-81977882D01*
X106062672Y-81853400D01*
X106059600Y-81464150D01*
X105900850Y-81305400D01*
X104876600Y-81305400D01*
X104876600Y-81325400D01*
X104622600Y-81325400D01*
X104622600Y-81305400D01*
X104602600Y-81305400D01*
X104602600Y-81193000D01*
X119032128Y-81193000D01*
X119044388Y-81317482D01*
X119080698Y-81437180D01*
X119139663Y-81547494D01*
X119219015Y-81644185D01*
X119305897Y-81715487D01*
X119184293Y-81897482D01*
X119085542Y-82135887D01*
X119035200Y-82388976D01*
X119035200Y-82647024D01*
X119085542Y-82900113D01*
X119184293Y-83138518D01*
X119327656Y-83353077D01*
X119492579Y-83518000D01*
X119327656Y-83682923D01*
X119184293Y-83897482D01*
X119085542Y-84135887D01*
X119035200Y-84388976D01*
X119035200Y-84647024D01*
X119085542Y-84900113D01*
X119184293Y-85138518D01*
X119327656Y-85353077D01*
X119492579Y-85518000D01*
X119327656Y-85682923D01*
X119184293Y-85897482D01*
X119085542Y-86135887D01*
X119035200Y-86388976D01*
X119035200Y-86647024D01*
X119085542Y-86900113D01*
X119184293Y-87138518D01*
X119327656Y-87353077D01*
X119492579Y-87518000D01*
X119327656Y-87682923D01*
X119184293Y-87897482D01*
X119085542Y-88135887D01*
X119035200Y-88388976D01*
X119035200Y-88647024D01*
X119085542Y-88900113D01*
X119184293Y-89138518D01*
X119327656Y-89353077D01*
X119492579Y-89518000D01*
X119327656Y-89682923D01*
X119184293Y-89897482D01*
X119085542Y-90135887D01*
X119035200Y-90388976D01*
X119035200Y-90647024D01*
X119085542Y-90900113D01*
X119184293Y-91138518D01*
X119327656Y-91353077D01*
X119510123Y-91535544D01*
X119724682Y-91678907D01*
X119963087Y-91777658D01*
X120216176Y-91828000D01*
X120474224Y-91828000D01*
X120727313Y-91777658D01*
X120965718Y-91678907D01*
X121180277Y-91535544D01*
X121362744Y-91353077D01*
X121506107Y-91138518D01*
X121604858Y-90900113D01*
X121655200Y-90647024D01*
X121655200Y-90388976D01*
X121604858Y-90135887D01*
X121506107Y-89897482D01*
X121362744Y-89682923D01*
X121197821Y-89518000D01*
X121362744Y-89353077D01*
X121506107Y-89138518D01*
X121604858Y-88900113D01*
X121655200Y-88647024D01*
X121655200Y-88388976D01*
X121604858Y-88135887D01*
X121577371Y-88069527D01*
X123858600Y-88069527D01*
X123858600Y-88308073D01*
X123905138Y-88542036D01*
X123996425Y-88762424D01*
X124128954Y-88960768D01*
X124297632Y-89129446D01*
X124495976Y-89261975D01*
X124716364Y-89353262D01*
X124950327Y-89399800D01*
X125188873Y-89399800D01*
X125422836Y-89353262D01*
X125643224Y-89261975D01*
X125841568Y-89129446D01*
X126010246Y-88960768D01*
X126142775Y-88762424D01*
X126234062Y-88542036D01*
X126280600Y-88308073D01*
X126280600Y-88069527D01*
X126234062Y-87835564D01*
X126142775Y-87615176D01*
X126010246Y-87416832D01*
X125841568Y-87248154D01*
X125643224Y-87115625D01*
X125422836Y-87024338D01*
X125188873Y-86977800D01*
X124950327Y-86977800D01*
X124716364Y-87024338D01*
X124495976Y-87115625D01*
X124297632Y-87248154D01*
X124128954Y-87416832D01*
X123996425Y-87615176D01*
X123905138Y-87835564D01*
X123858600Y-88069527D01*
X121577371Y-88069527D01*
X121506107Y-87897482D01*
X121362744Y-87682923D01*
X121197821Y-87518000D01*
X121362744Y-87353077D01*
X121506107Y-87138518D01*
X121604858Y-86900113D01*
X121655200Y-86647024D01*
X121655200Y-86388976D01*
X121604858Y-86135887D01*
X121506107Y-85897482D01*
X121362744Y-85682923D01*
X121197821Y-85518000D01*
X121362744Y-85353077D01*
X121506107Y-85138518D01*
X121604858Y-84900113D01*
X121655200Y-84647024D01*
X121655200Y-84388976D01*
X121604858Y-84135887D01*
X121506107Y-83897482D01*
X121362744Y-83682923D01*
X121197821Y-83518000D01*
X121362744Y-83353077D01*
X121506107Y-83138518D01*
X121604858Y-82900113D01*
X121655200Y-82647024D01*
X121655200Y-82489475D01*
X123482100Y-82489475D01*
X123482100Y-82712125D01*
X123525537Y-82930496D01*
X123610741Y-83136198D01*
X123734439Y-83321324D01*
X123891876Y-83478761D01*
X124077002Y-83602459D01*
X124282704Y-83687663D01*
X124501075Y-83731100D01*
X124723725Y-83731100D01*
X124942096Y-83687663D01*
X125147798Y-83602459D01*
X125332924Y-83478761D01*
X125490361Y-83321324D01*
X125614059Y-83136198D01*
X125628400Y-83101576D01*
X125642741Y-83136198D01*
X125766439Y-83321324D01*
X125923876Y-83478761D01*
X126109002Y-83602459D01*
X126314704Y-83687663D01*
X126533075Y-83731100D01*
X126755725Y-83731100D01*
X126974096Y-83687663D01*
X127179798Y-83602459D01*
X127364924Y-83478761D01*
X127522361Y-83321324D01*
X127646059Y-83136198D01*
X127731263Y-82930496D01*
X127774700Y-82712125D01*
X127774700Y-82489475D01*
X127731263Y-82271104D01*
X127646059Y-82065402D01*
X127522361Y-81880276D01*
X127364924Y-81722839D01*
X127179798Y-81599141D01*
X126974096Y-81513937D01*
X126755725Y-81470500D01*
X126533075Y-81470500D01*
X126314704Y-81513937D01*
X126109002Y-81599141D01*
X125923876Y-81722839D01*
X125766439Y-81880276D01*
X125642741Y-82065402D01*
X125628400Y-82100024D01*
X125614059Y-82065402D01*
X125490361Y-81880276D01*
X125332924Y-81722839D01*
X125147798Y-81599141D01*
X124942096Y-81513937D01*
X124723725Y-81470500D01*
X124501075Y-81470500D01*
X124282704Y-81513937D01*
X124077002Y-81599141D01*
X123891876Y-81722839D01*
X123734439Y-81880276D01*
X123610741Y-82065402D01*
X123525537Y-82271104D01*
X123482100Y-82489475D01*
X121655200Y-82489475D01*
X121655200Y-82388976D01*
X121604858Y-82135887D01*
X121506107Y-81897482D01*
X121384503Y-81715487D01*
X121471385Y-81644185D01*
X121550737Y-81547494D01*
X121609702Y-81437180D01*
X121646012Y-81317482D01*
X121658272Y-81193000D01*
X121655200Y-80803750D01*
X121496450Y-80645000D01*
X120472200Y-80645000D01*
X120472200Y-80665000D01*
X120218200Y-80665000D01*
X120218200Y-80645000D01*
X119193950Y-80645000D01*
X119035200Y-80803750D01*
X119032128Y-81193000D01*
X104602600Y-81193000D01*
X104602600Y-81051400D01*
X104622600Y-81051400D01*
X104622600Y-81031400D01*
X104876600Y-81031400D01*
X104876600Y-81051400D01*
X105900850Y-81051400D01*
X106059600Y-80892650D01*
X106062672Y-80503400D01*
X106050412Y-80378918D01*
X106014102Y-80259220D01*
X106003080Y-80238600D01*
X117703600Y-80238600D01*
X117728376Y-80236160D01*
X117752201Y-80228933D01*
X117774157Y-80217197D01*
X117791885Y-80202895D01*
X118164049Y-79843000D01*
X119032128Y-79843000D01*
X119035200Y-80232250D01*
X119193950Y-80391000D01*
X120218200Y-80391000D01*
X120218200Y-79366750D01*
X120472200Y-79366750D01*
X120472200Y-80391000D01*
X121496450Y-80391000D01*
X121655200Y-80232250D01*
X121658272Y-79843000D01*
X121646012Y-79718518D01*
X121609702Y-79598820D01*
X121550737Y-79488506D01*
X121471385Y-79391815D01*
X121374694Y-79312463D01*
X121264380Y-79253498D01*
X121144682Y-79217188D01*
X121020200Y-79204928D01*
X120630950Y-79208000D01*
X120472200Y-79366750D01*
X120218200Y-79366750D01*
X120059450Y-79208000D01*
X119670200Y-79204928D01*
X119545718Y-79217188D01*
X119426020Y-79253498D01*
X119315706Y-79312463D01*
X119219015Y-79391815D01*
X119139663Y-79488506D01*
X119080698Y-79598820D01*
X119044388Y-79718518D01*
X119032128Y-79843000D01*
X118164049Y-79843000D01*
X120680535Y-77409475D01*
X124498100Y-77409475D01*
X124498100Y-77632125D01*
X124541537Y-77850496D01*
X124626741Y-78056198D01*
X124750439Y-78241324D01*
X124907876Y-78398761D01*
X125093002Y-78522459D01*
X125298704Y-78607663D01*
X125517075Y-78651100D01*
X125739725Y-78651100D01*
X125958096Y-78607663D01*
X126075730Y-78558938D01*
X126094463Y-78586974D01*
X126147355Y-78639866D01*
X126117400Y-78790461D01*
X126117400Y-78994339D01*
X126157174Y-79194298D01*
X126235195Y-79382656D01*
X126314938Y-79502000D01*
X126235195Y-79621344D01*
X126157174Y-79809702D01*
X126117400Y-80009661D01*
X126117400Y-80213539D01*
X126157174Y-80413498D01*
X126235195Y-80601856D01*
X126348463Y-80771374D01*
X126492626Y-80915537D01*
X126662144Y-81028805D01*
X126850502Y-81106826D01*
X127050461Y-81146600D01*
X127254339Y-81146600D01*
X127454298Y-81106826D01*
X127642656Y-81028805D01*
X127812174Y-80915537D01*
X127956337Y-80771374D01*
X128069605Y-80601856D01*
X128147626Y-80413498D01*
X128187400Y-80213539D01*
X128187400Y-80009661D01*
X128147626Y-79809702D01*
X128069605Y-79621344D01*
X127989862Y-79502000D01*
X128069605Y-79382656D01*
X128147626Y-79194298D01*
X128187400Y-78994339D01*
X128187400Y-78790461D01*
X128147626Y-78590502D01*
X128069605Y-78402144D01*
X127956337Y-78232626D01*
X127903445Y-78179734D01*
X127933400Y-78029139D01*
X127933400Y-77825261D01*
X127893626Y-77625302D01*
X127815605Y-77436944D01*
X127702337Y-77267426D01*
X127558174Y-77123263D01*
X127388656Y-77009995D01*
X127200298Y-76931974D01*
X127000339Y-76892200D01*
X126796461Y-76892200D01*
X126596502Y-76931974D01*
X126594824Y-76932669D01*
X126506361Y-76800276D01*
X126348924Y-76642839D01*
X126163798Y-76519141D01*
X125958096Y-76433937D01*
X125739725Y-76390500D01*
X125517075Y-76390500D01*
X125298704Y-76433937D01*
X125093002Y-76519141D01*
X124907876Y-76642839D01*
X124750439Y-76800276D01*
X124626741Y-76985402D01*
X124541537Y-77191104D01*
X124498100Y-77409475D01*
X120680535Y-77409475D01*
X122168049Y-75971000D01*
X128435501Y-75971000D01*
X128435500Y-91153581D01*
X128432307Y-91186000D01*
X128445050Y-91315383D01*
X128482790Y-91439793D01*
X128544075Y-91554450D01*
X128626552Y-91654948D01*
X128727050Y-91737425D01*
X128841707Y-91798710D01*
X128966117Y-91836450D01*
X129095500Y-91849193D01*
X129127919Y-91846000D01*
X129667000Y-91846000D01*
X129667000Y-97130000D01*
X103187150Y-97130000D01*
X103272462Y-96924036D01*
X103319000Y-96690073D01*
X103319000Y-96451527D01*
X103272462Y-96217564D01*
X103181175Y-95997176D01*
X103084306Y-95852200D01*
X119077290Y-95852200D01*
X119107962Y-95953328D01*
X119215727Y-96186429D01*
X119366897Y-96394027D01*
X119555663Y-96568144D01*
X119774770Y-96702089D01*
X120015799Y-96790715D01*
X120218200Y-96667885D01*
X120218200Y-95649800D01*
X120472200Y-95649800D01*
X120472200Y-96667885D01*
X120674601Y-96790715D01*
X120915630Y-96702089D01*
X121134737Y-96568144D01*
X121323503Y-96394027D01*
X121474673Y-96186429D01*
X121582438Y-95953328D01*
X121613110Y-95852200D01*
X121489424Y-95649800D01*
X120472200Y-95649800D01*
X120218200Y-95649800D01*
X119200976Y-95649800D01*
X119077290Y-95852200D01*
X103084306Y-95852200D01*
X103048646Y-95798832D01*
X102879968Y-95630154D01*
X102681624Y-95497625D01*
X102461236Y-95406338D01*
X102227273Y-95359800D01*
X101988727Y-95359800D01*
X101754764Y-95406338D01*
X101534376Y-95497625D01*
X101336032Y-95630154D01*
X101167354Y-95798832D01*
X101034825Y-95997176D01*
X100943538Y-96217564D01*
X100897000Y-96451527D01*
X100897000Y-96690073D01*
X100943538Y-96924036D01*
X101028850Y-97130000D01*
X91211000Y-97130000D01*
X91211000Y-95085861D01*
X97579200Y-95085861D01*
X97579200Y-95289739D01*
X97618974Y-95489698D01*
X97696995Y-95678056D01*
X97810263Y-95847574D01*
X97954426Y-95991737D01*
X98123944Y-96105005D01*
X98180263Y-96128333D01*
X98217174Y-96313898D01*
X98295195Y-96502256D01*
X98408463Y-96671774D01*
X98552626Y-96815937D01*
X98722144Y-96929205D01*
X98910502Y-97007226D01*
X99110461Y-97047000D01*
X99314339Y-97047000D01*
X99514298Y-97007226D01*
X99702656Y-96929205D01*
X99872174Y-96815937D01*
X100016337Y-96671774D01*
X100129605Y-96502256D01*
X100207626Y-96313898D01*
X100242490Y-96138625D01*
X100323656Y-96105005D01*
X100493174Y-95991737D01*
X100637337Y-95847574D01*
X100750605Y-95678056D01*
X100828626Y-95489698D01*
X100868400Y-95289739D01*
X100868400Y-95085861D01*
X100828626Y-94885902D01*
X100750605Y-94697544D01*
X100712197Y-94640061D01*
X109658200Y-94640061D01*
X109658200Y-94843939D01*
X109697974Y-95043898D01*
X109775995Y-95232256D01*
X109889263Y-95401774D01*
X110033426Y-95545937D01*
X110202944Y-95659205D01*
X110391302Y-95737226D01*
X110591261Y-95777000D01*
X110795139Y-95777000D01*
X110995098Y-95737226D01*
X111183456Y-95659205D01*
X111302800Y-95579462D01*
X111422144Y-95659205D01*
X111610502Y-95737226D01*
X111810461Y-95777000D01*
X112014339Y-95777000D01*
X112214298Y-95737226D01*
X112402656Y-95659205D01*
X112496600Y-95596434D01*
X112590544Y-95659205D01*
X112778902Y-95737226D01*
X112978861Y-95777000D01*
X113182739Y-95777000D01*
X113382698Y-95737226D01*
X113571056Y-95659205D01*
X113740574Y-95545937D01*
X113884737Y-95401774D01*
X113998005Y-95232256D01*
X114076026Y-95043898D01*
X114115800Y-94843939D01*
X114115800Y-94640061D01*
X114076026Y-94440102D01*
X113998005Y-94251744D01*
X113884737Y-94082226D01*
X113740574Y-93938063D01*
X113571056Y-93824795D01*
X113382698Y-93746774D01*
X113182739Y-93707000D01*
X112978861Y-93707000D01*
X112778902Y-93746774D01*
X112590544Y-93824795D01*
X112496600Y-93887566D01*
X112402656Y-93824795D01*
X112214298Y-93746774D01*
X112014339Y-93707000D01*
X111810461Y-93707000D01*
X111610502Y-93746774D01*
X111422144Y-93824795D01*
X111302800Y-93904538D01*
X111183456Y-93824795D01*
X110995098Y-93746774D01*
X110795139Y-93707000D01*
X110591261Y-93707000D01*
X110391302Y-93746774D01*
X110202944Y-93824795D01*
X110033426Y-93938063D01*
X109889263Y-94082226D01*
X109775995Y-94251744D01*
X109697974Y-94440102D01*
X109658200Y-94640061D01*
X100712197Y-94640061D01*
X100637337Y-94528026D01*
X100493174Y-94383863D01*
X100323656Y-94270595D01*
X100135298Y-94192574D01*
X99935339Y-94152800D01*
X99731461Y-94152800D01*
X99531502Y-94192574D01*
X99343144Y-94270595D01*
X99223800Y-94350338D01*
X99104456Y-94270595D01*
X98916098Y-94192574D01*
X98716139Y-94152800D01*
X98512261Y-94152800D01*
X98312302Y-94192574D01*
X98123944Y-94270595D01*
X97954426Y-94383863D01*
X97810263Y-94528026D01*
X97696995Y-94697544D01*
X97618974Y-94885902D01*
X97579200Y-95085861D01*
X91211000Y-95085861D01*
X91211000Y-93928861D01*
X94672200Y-93928861D01*
X94672200Y-94132739D01*
X94711974Y-94332698D01*
X94789995Y-94521056D01*
X94903263Y-94690574D01*
X95047426Y-94834737D01*
X95216944Y-94948005D01*
X95405302Y-95026026D01*
X95605261Y-95065800D01*
X95809139Y-95065800D01*
X96009098Y-95026026D01*
X96197456Y-94948005D01*
X96366974Y-94834737D01*
X96511137Y-94690574D01*
X96624405Y-94521056D01*
X96702426Y-94332698D01*
X96742200Y-94132739D01*
X96742200Y-93928861D01*
X96702426Y-93728902D01*
X96624405Y-93540544D01*
X96511137Y-93371026D01*
X96366974Y-93226863D01*
X96197456Y-93113595D01*
X96009098Y-93035574D01*
X95809139Y-92995800D01*
X95605261Y-92995800D01*
X95405302Y-93035574D01*
X95216944Y-93113595D01*
X95047426Y-93226863D01*
X94903263Y-93371026D01*
X94789995Y-93540544D01*
X94711974Y-93728902D01*
X94672200Y-93928861D01*
X91211000Y-93928861D01*
X91211000Y-93289460D01*
X91368914Y-93224050D01*
X91534337Y-93113518D01*
X91675018Y-92972837D01*
X91768500Y-92832931D01*
X91861982Y-92972837D01*
X92002663Y-93113518D01*
X92168086Y-93224050D01*
X92351894Y-93300186D01*
X92547024Y-93339000D01*
X92745976Y-93339000D01*
X92941106Y-93300186D01*
X93124914Y-93224050D01*
X93281387Y-93119498D01*
X93320226Y-93158337D01*
X93489744Y-93271605D01*
X93678102Y-93349626D01*
X93878061Y-93389400D01*
X94081939Y-93389400D01*
X94281898Y-93349626D01*
X94470256Y-93271605D01*
X94639774Y-93158337D01*
X94783937Y-93014174D01*
X94897205Y-92844656D01*
X94975226Y-92656298D01*
X95015000Y-92456339D01*
X95015000Y-92252461D01*
X94975226Y-92052502D01*
X94897205Y-91864144D01*
X94783937Y-91694626D01*
X94732172Y-91642861D01*
X95180200Y-91642861D01*
X95180200Y-91846739D01*
X95219974Y-92046698D01*
X95297995Y-92235056D01*
X95411263Y-92404574D01*
X95555426Y-92548737D01*
X95724944Y-92662005D01*
X95913302Y-92740026D01*
X96113261Y-92779800D01*
X96317139Y-92779800D01*
X96517098Y-92740026D01*
X96705456Y-92662005D01*
X96874974Y-92548737D01*
X97019137Y-92404574D01*
X97132405Y-92235056D01*
X97210426Y-92046698D01*
X97250200Y-91846739D01*
X97250200Y-91642861D01*
X97210426Y-91442902D01*
X97132405Y-91254544D01*
X97019137Y-91085026D01*
X96874974Y-90940863D01*
X96705456Y-90827595D01*
X96517098Y-90749574D01*
X96317139Y-90709800D01*
X96113261Y-90709800D01*
X95913302Y-90749574D01*
X95724944Y-90827595D01*
X95555426Y-90940863D01*
X95411263Y-91085026D01*
X95297995Y-91254544D01*
X95219974Y-91442902D01*
X95180200Y-91642861D01*
X94732172Y-91642861D01*
X94639774Y-91550463D01*
X94470256Y-91437195D01*
X94281898Y-91359174D01*
X94081939Y-91319400D01*
X93878061Y-91319400D01*
X93678102Y-91359174D01*
X93489744Y-91437195D01*
X93320226Y-91550463D01*
X93308272Y-91562417D01*
X93290337Y-91544482D01*
X93124914Y-91433950D01*
X92941106Y-91357814D01*
X92745976Y-91319000D01*
X92547024Y-91319000D01*
X92351894Y-91357814D01*
X92168086Y-91433950D01*
X92002663Y-91544482D01*
X91861982Y-91685163D01*
X91768500Y-91825069D01*
X91675018Y-91685163D01*
X91534337Y-91544482D01*
X91368914Y-91433950D01*
X91211000Y-91368540D01*
X91211000Y-90637376D01*
X97038800Y-90637376D01*
X97038800Y-90895424D01*
X97089142Y-91148513D01*
X97187893Y-91386918D01*
X97331256Y-91601477D01*
X97496179Y-91766400D01*
X97331256Y-91931323D01*
X97187893Y-92145882D01*
X97089142Y-92384287D01*
X97038800Y-92637376D01*
X97038800Y-92895424D01*
X97089142Y-93148513D01*
X97187893Y-93386918D01*
X97331256Y-93601477D01*
X97513723Y-93783944D01*
X97728282Y-93927307D01*
X97966687Y-94026058D01*
X98219776Y-94076400D01*
X98477824Y-94076400D01*
X98730913Y-94026058D01*
X98969318Y-93927307D01*
X99183877Y-93783944D01*
X99366344Y-93601477D01*
X99509707Y-93386918D01*
X99608458Y-93148513D01*
X99658800Y-92895424D01*
X99658800Y-92637376D01*
X99608458Y-92384287D01*
X99509707Y-92145882D01*
X99366344Y-91931323D01*
X99201421Y-91766400D01*
X99366344Y-91601477D01*
X99509707Y-91386918D01*
X99608458Y-91148513D01*
X99658800Y-90895424D01*
X99658800Y-90637376D01*
X99608458Y-90384287D01*
X99509707Y-90145882D01*
X99366344Y-89931323D01*
X99194740Y-89759719D01*
X99327103Y-89637627D01*
X99478273Y-89430029D01*
X99586038Y-89196928D01*
X99616710Y-89095800D01*
X99493024Y-88893400D01*
X98475800Y-88893400D01*
X98475800Y-88913400D01*
X98221800Y-88913400D01*
X98221800Y-88893400D01*
X97204576Y-88893400D01*
X97080890Y-89095800D01*
X97111562Y-89196928D01*
X97219327Y-89430029D01*
X97370497Y-89637627D01*
X97502860Y-89759719D01*
X97331256Y-89931323D01*
X97187893Y-90145882D01*
X97089142Y-90384287D01*
X97038800Y-90637376D01*
X91211000Y-90637376D01*
X91211000Y-86869216D01*
X91886200Y-86869216D01*
X91886200Y-87171584D01*
X91945189Y-87468143D01*
X92060901Y-87747495D01*
X92228888Y-87998905D01*
X92442695Y-88212712D01*
X92694105Y-88380699D01*
X92973457Y-88496411D01*
X93270016Y-88555400D01*
X93572384Y-88555400D01*
X93868943Y-88496411D01*
X94148295Y-88380699D01*
X94399705Y-88212712D01*
X94613512Y-87998905D01*
X94781499Y-87747495D01*
X94897211Y-87468143D01*
X94956200Y-87171584D01*
X94956200Y-87031400D01*
X95096384Y-87031400D01*
X95392943Y-86972411D01*
X95672295Y-86856699D01*
X95923705Y-86688712D01*
X96137512Y-86474905D01*
X96305499Y-86223495D01*
X96421211Y-85944143D01*
X96480200Y-85647584D01*
X96480200Y-85345216D01*
X96421211Y-85048657D01*
X96305499Y-84769305D01*
X96137512Y-84517895D01*
X95923705Y-84304088D01*
X95806930Y-84226061D01*
X96755000Y-84226061D01*
X96755000Y-84429939D01*
X96794774Y-84629898D01*
X96872795Y-84818256D01*
X96986063Y-84987774D01*
X97130226Y-85131937D01*
X97299744Y-85245205D01*
X97488102Y-85323226D01*
X97688061Y-85363000D01*
X97891939Y-85363000D01*
X98091898Y-85323226D01*
X98280256Y-85245205D01*
X98449774Y-85131937D01*
X98577400Y-85004311D01*
X98705026Y-85131937D01*
X98874544Y-85245205D01*
X99062902Y-85323226D01*
X99262861Y-85363000D01*
X99268590Y-85363000D01*
X99233174Y-85448502D01*
X99225138Y-85488902D01*
X99148282Y-85465588D01*
X99023800Y-85453328D01*
X97673800Y-85453328D01*
X97549318Y-85465588D01*
X97429620Y-85501898D01*
X97319306Y-85560863D01*
X97222615Y-85640215D01*
X97143263Y-85736906D01*
X97084298Y-85847220D01*
X97047988Y-85966918D01*
X97035728Y-86091400D01*
X97035728Y-87441400D01*
X97047988Y-87565882D01*
X97084298Y-87685580D01*
X97143263Y-87795894D01*
X97222615Y-87892585D01*
X97316359Y-87969519D01*
X97219327Y-88102771D01*
X97111562Y-88335872D01*
X97080890Y-88437000D01*
X97204576Y-88639400D01*
X98221800Y-88639400D01*
X98221800Y-88619400D01*
X98475800Y-88619400D01*
X98475800Y-88639400D01*
X99493024Y-88639400D01*
X99616710Y-88437000D01*
X99586038Y-88335872D01*
X99478273Y-88102771D01*
X99381241Y-87969519D01*
X99474985Y-87892585D01*
X99554337Y-87795894D01*
X99613302Y-87685580D01*
X99649612Y-87565882D01*
X99661872Y-87441400D01*
X99661872Y-86616642D01*
X99738144Y-86667605D01*
X99926502Y-86745626D01*
X100126461Y-86785400D01*
X100330339Y-86785400D01*
X100530298Y-86745626D01*
X100718656Y-86667605D01*
X100888174Y-86554337D01*
X101032337Y-86410174D01*
X101145605Y-86240656D01*
X101223626Y-86052298D01*
X101263400Y-85852339D01*
X101263400Y-85648461D01*
X101223626Y-85448502D01*
X101145605Y-85260144D01*
X101032337Y-85090626D01*
X100888174Y-84946463D01*
X100718656Y-84833195D01*
X100530298Y-84755174D01*
X100330339Y-84715400D01*
X100324610Y-84715400D01*
X100360026Y-84629898D01*
X100399800Y-84429939D01*
X100399800Y-84226061D01*
X100360026Y-84026102D01*
X100282005Y-83837744D01*
X100168737Y-83668226D01*
X100024574Y-83524063D01*
X99855056Y-83410795D01*
X99666698Y-83332774D01*
X99466739Y-83293000D01*
X99262861Y-83293000D01*
X99062902Y-83332774D01*
X98874544Y-83410795D01*
X98705026Y-83524063D01*
X98577400Y-83651689D01*
X98449774Y-83524063D01*
X98280256Y-83410795D01*
X98091898Y-83332774D01*
X97891939Y-83293000D01*
X97688061Y-83293000D01*
X97488102Y-83332774D01*
X97299744Y-83410795D01*
X97130226Y-83524063D01*
X96986063Y-83668226D01*
X96872795Y-83837744D01*
X96794774Y-84026102D01*
X96755000Y-84226061D01*
X95806930Y-84226061D01*
X95672295Y-84136101D01*
X95392943Y-84020389D01*
X95096384Y-83961400D01*
X94959132Y-83961400D01*
X94962191Y-83905847D01*
X94937522Y-83732472D01*
X95395200Y-83732472D01*
X95607472Y-83711565D01*
X95811587Y-83649647D01*
X95999700Y-83549099D01*
X96164583Y-83413783D01*
X96299899Y-83248900D01*
X96400447Y-83060787D01*
X96462365Y-82856672D01*
X96483272Y-82644400D01*
X96483272Y-81744400D01*
X96462365Y-81532128D01*
X96400447Y-81328013D01*
X96299899Y-81139900D01*
X96164583Y-80975017D01*
X95999700Y-80839701D01*
X95811587Y-80739153D01*
X95607472Y-80677235D01*
X95395200Y-80656328D01*
X95009611Y-80656328D01*
X95026026Y-80616698D01*
X95065800Y-80416739D01*
X95065800Y-80212861D01*
X95026026Y-80012902D01*
X94948005Y-79824544D01*
X94834737Y-79655026D01*
X94690574Y-79510863D01*
X94521056Y-79397595D01*
X94332698Y-79319574D01*
X94132739Y-79279800D01*
X93928861Y-79279800D01*
X93728902Y-79319574D01*
X93540544Y-79397595D01*
X93371026Y-79510863D01*
X93226863Y-79655026D01*
X93113595Y-79824544D01*
X93035574Y-80012902D01*
X92995800Y-80212861D01*
X92995800Y-80416739D01*
X93035574Y-80616698D01*
X93113595Y-80805056D01*
X93226863Y-80974574D01*
X93371026Y-81118737D01*
X93540544Y-81232005D01*
X93541138Y-81232251D01*
X93489953Y-81328013D01*
X93428035Y-81532128D01*
X93407128Y-81744400D01*
X93407128Y-82434299D01*
X93354647Y-82431409D01*
X93055293Y-82474003D01*
X92770001Y-82574178D01*
X92620408Y-82654139D01*
X92536725Y-82908320D01*
X93421200Y-83792795D01*
X93435343Y-83778653D01*
X93614948Y-83958258D01*
X93600805Y-83972400D01*
X93614948Y-83986543D01*
X93435343Y-84166148D01*
X93421200Y-84152005D01*
X92536725Y-85036480D01*
X92620408Y-85290661D01*
X92892975Y-85421558D01*
X93185842Y-85496765D01*
X93207018Y-85497931D01*
X92973457Y-85544389D01*
X92694105Y-85660101D01*
X92442695Y-85828088D01*
X92228888Y-86041895D01*
X92060901Y-86293305D01*
X91945189Y-86572657D01*
X91886200Y-86869216D01*
X91211000Y-86869216D01*
X91211000Y-84038953D01*
X91880209Y-84038953D01*
X91922803Y-84338307D01*
X92022978Y-84623599D01*
X92102939Y-84773192D01*
X92357120Y-84856875D01*
X93241595Y-83972400D01*
X92357120Y-83087925D01*
X92102939Y-83171608D01*
X91972042Y-83444175D01*
X91896835Y-83737042D01*
X91880209Y-84038953D01*
X91211000Y-84038953D01*
X91211000Y-82665536D01*
X91236461Y-82670600D01*
X91440339Y-82670600D01*
X91640298Y-82630826D01*
X91828656Y-82552805D01*
X91998174Y-82439537D01*
X92142337Y-82295374D01*
X92255605Y-82125856D01*
X92333626Y-81937498D01*
X92373400Y-81737539D01*
X92373400Y-81533661D01*
X92333626Y-81333702D01*
X92255605Y-81145344D01*
X92142337Y-80975826D01*
X91998174Y-80831663D01*
X91828656Y-80718395D01*
X91640298Y-80640374D01*
X91440339Y-80600600D01*
X91236461Y-80600600D01*
X91211000Y-80605664D01*
X91211000Y-79255960D01*
X91368914Y-79190550D01*
X91534337Y-79080018D01*
X91675018Y-78939337D01*
X91768500Y-78799431D01*
X91861982Y-78939337D01*
X92002663Y-79080018D01*
X92168086Y-79190550D01*
X92351894Y-79266686D01*
X92547024Y-79305500D01*
X92745976Y-79305500D01*
X92941106Y-79266686D01*
X93124914Y-79190550D01*
X93290337Y-79080018D01*
X93431018Y-78939337D01*
X93541550Y-78773914D01*
X93617686Y-78590106D01*
X93656500Y-78394976D01*
X93656500Y-78196024D01*
X93617686Y-78000894D01*
X93541550Y-77817086D01*
X93431018Y-77651663D01*
X93290337Y-77510982D01*
X93124914Y-77400450D01*
X92941106Y-77324314D01*
X92745976Y-77285500D01*
X92547024Y-77285500D01*
X92351894Y-77324314D01*
X92168086Y-77400450D01*
X92002663Y-77510982D01*
X91861982Y-77651663D01*
X91768500Y-77791569D01*
X91675018Y-77651663D01*
X91534337Y-77510982D01*
X91368914Y-77400450D01*
X91211000Y-77335040D01*
X91211000Y-75971000D01*
X93702131Y-75971000D01*
X93574226Y-76056463D01*
G37*
X93574226Y-76056463D02*
X93430063Y-76200626D01*
X93316795Y-76370144D01*
X93238774Y-76558502D01*
X93199000Y-76758461D01*
X93199000Y-76962339D01*
X93238774Y-77162298D01*
X93316795Y-77350656D01*
X93430063Y-77520174D01*
X93574226Y-77664337D01*
X93743744Y-77777605D01*
X93932102Y-77855626D01*
X94132061Y-77895400D01*
X94335939Y-77895400D01*
X94535898Y-77855626D01*
X94724256Y-77777605D01*
X94893774Y-77664337D01*
X95037937Y-77520174D01*
X95075924Y-77463322D01*
X95166144Y-77523605D01*
X95354502Y-77601626D01*
X95554461Y-77641400D01*
X95758339Y-77641400D01*
X95958298Y-77601626D01*
X96146656Y-77523605D01*
X96316174Y-77410337D01*
X96460337Y-77266174D01*
X96573605Y-77096656D01*
X96627103Y-76967503D01*
X96756256Y-76914005D01*
X96925774Y-76800737D01*
X97069937Y-76656574D01*
X97183205Y-76487056D01*
X97261226Y-76298698D01*
X97264278Y-76283355D01*
X100485996Y-80192373D01*
X100503637Y-80209940D01*
X100524366Y-80223729D01*
X100547387Y-80233208D01*
X100584000Y-80238600D01*
X103496120Y-80238600D01*
X103485098Y-80259220D01*
X103448788Y-80378918D01*
X103436528Y-80503400D01*
X103439518Y-80882282D01*
X103407772Y-80875967D01*
X103203894Y-80875967D01*
X103003935Y-80915741D01*
X102815577Y-80993762D01*
X102646059Y-81107030D01*
X102501896Y-81251193D01*
X102388628Y-81420711D01*
X102310607Y-81609069D01*
X102270833Y-81809028D01*
X102270833Y-82012906D01*
X102310607Y-82212865D01*
X102388628Y-82401223D01*
X102501896Y-82570741D01*
X102646059Y-82714904D01*
X102815577Y-82828172D01*
X103003935Y-82906193D01*
X103203894Y-82945967D01*
X103407772Y-82945967D01*
X103462328Y-82935115D01*
X103439600Y-83049376D01*
X103439600Y-83307424D01*
X103489942Y-83560513D01*
X103588693Y-83798918D01*
X103732056Y-84013477D01*
X103896979Y-84178400D01*
X103732056Y-84343323D01*
X103588693Y-84557882D01*
X103489942Y-84796287D01*
X103439600Y-85049376D01*
X103439600Y-85307424D01*
X103489942Y-85560513D01*
X103588693Y-85798918D01*
X103732056Y-86013477D01*
X103896979Y-86178400D01*
X103732056Y-86343323D01*
X103588693Y-86557882D01*
X103489942Y-86796287D01*
X103439600Y-87049376D01*
X103439600Y-87307424D01*
X103489942Y-87560513D01*
X103588693Y-87798918D01*
X103732056Y-88013477D01*
X103896979Y-88178400D01*
X103732056Y-88343323D01*
X103588693Y-88557882D01*
X103489942Y-88796287D01*
X103439600Y-89049376D01*
X103439600Y-89307424D01*
X103489942Y-89560513D01*
X103588693Y-89798918D01*
X103732056Y-90013477D01*
X103896979Y-90178400D01*
X103732056Y-90343323D01*
X103588693Y-90557882D01*
X103489942Y-90796287D01*
X103439600Y-91049376D01*
X103439600Y-91307424D01*
X103489942Y-91560513D01*
X103588693Y-91798918D01*
X103732056Y-92013477D01*
X103896979Y-92178400D01*
X103732056Y-92343323D01*
X103588693Y-92557882D01*
X103489942Y-92796287D01*
X103439600Y-93049376D01*
X103439600Y-93307424D01*
X103489942Y-93560513D01*
X103588693Y-93798918D01*
X103732056Y-94013477D01*
X103914523Y-94195944D01*
X104129082Y-94339307D01*
X104367487Y-94438058D01*
X104620576Y-94488400D01*
X104878624Y-94488400D01*
X105131713Y-94438058D01*
X105370118Y-94339307D01*
X105584677Y-94195944D01*
X105767144Y-94013477D01*
X105910507Y-93798918D01*
X106009258Y-93560513D01*
X106059600Y-93307424D01*
X106059600Y-93049376D01*
X106019505Y-92847800D01*
X119032128Y-92847800D01*
X119032128Y-94197800D01*
X119044388Y-94322282D01*
X119080698Y-94441980D01*
X119139663Y-94552294D01*
X119219015Y-94648985D01*
X119312759Y-94725919D01*
X119215727Y-94859171D01*
X119107962Y-95092272D01*
X119077290Y-95193400D01*
X119200976Y-95395800D01*
X120218200Y-95395800D01*
X120218200Y-95375800D01*
X120472200Y-95375800D01*
X120472200Y-95395800D01*
X121489424Y-95395800D01*
X121613110Y-95193400D01*
X121582438Y-95092272D01*
X121531181Y-94981400D01*
X123908928Y-94981400D01*
X123908928Y-96331400D01*
X123921188Y-96455882D01*
X123957498Y-96575580D01*
X124016463Y-96685894D01*
X124095815Y-96782585D01*
X124192506Y-96861937D01*
X124302820Y-96920902D01*
X124422518Y-96957212D01*
X124547000Y-96969472D01*
X125897000Y-96969472D01*
X126021482Y-96957212D01*
X126141180Y-96920902D01*
X126251494Y-96861937D01*
X126348185Y-96782585D01*
X126427537Y-96685894D01*
X126486502Y-96575580D01*
X126522812Y-96455882D01*
X126535072Y-96331400D01*
X126535072Y-94981400D01*
X126522812Y-94856918D01*
X126486502Y-94737220D01*
X126427537Y-94626906D01*
X126348185Y-94530215D01*
X126251494Y-94450863D01*
X126141180Y-94391898D01*
X126021482Y-94355588D01*
X125897000Y-94343328D01*
X124547000Y-94343328D01*
X124422518Y-94355588D01*
X124302820Y-94391898D01*
X124192506Y-94450863D01*
X124095815Y-94530215D01*
X124016463Y-94626906D01*
X123957498Y-94737220D01*
X123921188Y-94856918D01*
X123908928Y-94981400D01*
X121531181Y-94981400D01*
X121474673Y-94859171D01*
X121377641Y-94725919D01*
X121471385Y-94648985D01*
X121550737Y-94552294D01*
X121609702Y-94441980D01*
X121646012Y-94322282D01*
X121658272Y-94197800D01*
X121658272Y-92847800D01*
X121646012Y-92723318D01*
X121609702Y-92603620D01*
X121550737Y-92493306D01*
X121471385Y-92396615D01*
X121374694Y-92317263D01*
X121264380Y-92258298D01*
X121144682Y-92221988D01*
X121020200Y-92209728D01*
X119670200Y-92209728D01*
X119545718Y-92221988D01*
X119426020Y-92258298D01*
X119315706Y-92317263D01*
X119219015Y-92396615D01*
X119139663Y-92493306D01*
X119080698Y-92603620D01*
X119044388Y-92723318D01*
X119032128Y-92847800D01*
X106019505Y-92847800D01*
X106009258Y-92796287D01*
X105910507Y-92557882D01*
X105767144Y-92343323D01*
X105602221Y-92178400D01*
X105767144Y-92013477D01*
X105910507Y-91798918D01*
X106009258Y-91560513D01*
X106043401Y-91388861D01*
X110471000Y-91388861D01*
X110471000Y-91592739D01*
X110510774Y-91792698D01*
X110588795Y-91981056D01*
X110702063Y-92150574D01*
X110846226Y-92294737D01*
X111015744Y-92408005D01*
X111204102Y-92486026D01*
X111404061Y-92525800D01*
X111607939Y-92525800D01*
X111807898Y-92486026D01*
X111988600Y-92411176D01*
X112169302Y-92486026D01*
X112369261Y-92525800D01*
X112573139Y-92525800D01*
X112773098Y-92486026D01*
X112961456Y-92408005D01*
X113130974Y-92294737D01*
X113275137Y-92150574D01*
X113388405Y-91981056D01*
X113466426Y-91792698D01*
X113506200Y-91592739D01*
X113506200Y-91388861D01*
X113466426Y-91188902D01*
X113388405Y-91000544D01*
X113275137Y-90831026D01*
X113130974Y-90686863D01*
X112961456Y-90573595D01*
X112773098Y-90495574D01*
X112573139Y-90455800D01*
X112369261Y-90455800D01*
X112169302Y-90495574D01*
X111988600Y-90570424D01*
X111807898Y-90495574D01*
X111607939Y-90455800D01*
X111404061Y-90455800D01*
X111204102Y-90495574D01*
X111015744Y-90573595D01*
X110846226Y-90686863D01*
X110702063Y-90831026D01*
X110588795Y-91000544D01*
X110510774Y-91188902D01*
X110471000Y-91388861D01*
X106043401Y-91388861D01*
X106059600Y-91307424D01*
X106059600Y-91049376D01*
X106009258Y-90796287D01*
X105910507Y-90557882D01*
X105767144Y-90343323D01*
X105602221Y-90178400D01*
X105767144Y-90013477D01*
X105910507Y-89798918D01*
X106009258Y-89560513D01*
X106046280Y-89374391D01*
X106121826Y-89449937D01*
X106291344Y-89563205D01*
X106479702Y-89641226D01*
X106679661Y-89681000D01*
X106883539Y-89681000D01*
X107083498Y-89641226D01*
X107213400Y-89587418D01*
X107343302Y-89641226D01*
X107543261Y-89681000D01*
X107747139Y-89681000D01*
X107947098Y-89641226D01*
X108135456Y-89563205D01*
X108304974Y-89449937D01*
X108449137Y-89305774D01*
X108562405Y-89136256D01*
X108640426Y-88947898D01*
X108680200Y-88747939D01*
X108680200Y-88544061D01*
X110521800Y-88544061D01*
X110521800Y-88747939D01*
X110561574Y-88947898D01*
X110639595Y-89136256D01*
X110752863Y-89305774D01*
X110897026Y-89449937D01*
X111066544Y-89563205D01*
X111254902Y-89641226D01*
X111454861Y-89681000D01*
X111658739Y-89681000D01*
X111858698Y-89641226D01*
X112039400Y-89566376D01*
X112220102Y-89641226D01*
X112420061Y-89681000D01*
X112623939Y-89681000D01*
X112823898Y-89641226D01*
X113012256Y-89563205D01*
X113181774Y-89449937D01*
X113325937Y-89305774D01*
X113439205Y-89136256D01*
X113510400Y-88964377D01*
X113537661Y-88969800D01*
X113741539Y-88969800D01*
X113941498Y-88930026D01*
X114129856Y-88852005D01*
X114299374Y-88738737D01*
X114443537Y-88594574D01*
X114556805Y-88425056D01*
X114634826Y-88236698D01*
X114674600Y-88036739D01*
X114674600Y-87832861D01*
X114634826Y-87632902D01*
X114556805Y-87444544D01*
X114443537Y-87275026D01*
X114299374Y-87130863D01*
X114129856Y-87017595D01*
X113941498Y-86939574D01*
X113741539Y-86899800D01*
X113537661Y-86899800D01*
X113337702Y-86939574D01*
X113149344Y-87017595D01*
X112979826Y-87130863D01*
X112835663Y-87275026D01*
X112722395Y-87444544D01*
X112651200Y-87616423D01*
X112623939Y-87611000D01*
X112420061Y-87611000D01*
X112220102Y-87650774D01*
X112039400Y-87725624D01*
X111858698Y-87650774D01*
X111658739Y-87611000D01*
X111454861Y-87611000D01*
X111254902Y-87650774D01*
X111066544Y-87728795D01*
X110897026Y-87842063D01*
X110752863Y-87986226D01*
X110639595Y-88155744D01*
X110561574Y-88344102D01*
X110521800Y-88544061D01*
X108680200Y-88544061D01*
X108640426Y-88344102D01*
X108562405Y-88155744D01*
X108449137Y-87986226D01*
X108304974Y-87842063D01*
X108135456Y-87728795D01*
X107947098Y-87650774D01*
X107747139Y-87611000D01*
X107543261Y-87611000D01*
X107343302Y-87650774D01*
X107213400Y-87704582D01*
X107083498Y-87650774D01*
X106883539Y-87611000D01*
X106679661Y-87611000D01*
X106479702Y-87650774D01*
X106291344Y-87728795D01*
X106121826Y-87842063D01*
X105977663Y-87986226D01*
X105864395Y-88155744D01*
X105786374Y-88344102D01*
X105782082Y-88365679D01*
X105767144Y-88343323D01*
X105602221Y-88178400D01*
X105767144Y-88013477D01*
X105910507Y-87798918D01*
X106009258Y-87560513D01*
X106059600Y-87307424D01*
X106059600Y-87049376D01*
X106009258Y-86796287D01*
X105910507Y-86557882D01*
X105767144Y-86343323D01*
X105602221Y-86178400D01*
X105767144Y-86013477D01*
X105910507Y-85798918D01*
X106009258Y-85560513D01*
X106059600Y-85307424D01*
X106059600Y-85049376D01*
X106009258Y-84796287D01*
X105910507Y-84557882D01*
X105767144Y-84343323D01*
X105602221Y-84178400D01*
X105767144Y-84013477D01*
X105910507Y-83798918D01*
X105986083Y-83616461D01*
X112299800Y-83616461D01*
X112299800Y-83820339D01*
X112339574Y-84020298D01*
X112417595Y-84208656D01*
X112530863Y-84378174D01*
X112675026Y-84522337D01*
X112844544Y-84635605D01*
X113032902Y-84713626D01*
X113232861Y-84753400D01*
X113436739Y-84753400D01*
X113636698Y-84713626D01*
X113825056Y-84635605D01*
X113994574Y-84522337D01*
X114138737Y-84378174D01*
X114223800Y-84250868D01*
X114308863Y-84378174D01*
X114453026Y-84522337D01*
X114622544Y-84635605D01*
X114810902Y-84713626D01*
X115010861Y-84753400D01*
X115214739Y-84753400D01*
X115414698Y-84713626D01*
X115603056Y-84635605D01*
X115772574Y-84522337D01*
X115916737Y-84378174D01*
X116030005Y-84208656D01*
X116108026Y-84020298D01*
X116147800Y-83820339D01*
X116147800Y-83616461D01*
X116108026Y-83416502D01*
X116030005Y-83228144D01*
X115916737Y-83058626D01*
X115772574Y-82914463D01*
X115603056Y-82801195D01*
X115414698Y-82723174D01*
X115214739Y-82683400D01*
X115010861Y-82683400D01*
X114810902Y-82723174D01*
X114622544Y-82801195D01*
X114453026Y-82914463D01*
X114308863Y-83058626D01*
X114223800Y-83185932D01*
X114138737Y-83058626D01*
X113994574Y-82914463D01*
X113825056Y-82801195D01*
X113636698Y-82723174D01*
X113436739Y-82683400D01*
X113232861Y-82683400D01*
X113032902Y-82723174D01*
X112844544Y-82801195D01*
X112675026Y-82914463D01*
X112530863Y-83058626D01*
X112417595Y-83228144D01*
X112339574Y-83416502D01*
X112299800Y-83616461D01*
X105986083Y-83616461D01*
X106009258Y-83560513D01*
X106059600Y-83307424D01*
X106059600Y-83049376D01*
X106009258Y-82796287D01*
X105910507Y-82557882D01*
X105788903Y-82375887D01*
X105875785Y-82304585D01*
X105955137Y-82207894D01*
X106014102Y-82097580D01*
X106050412Y-81977882D01*
X106062672Y-81853400D01*
X106059600Y-81464150D01*
X105900850Y-81305400D01*
X104876600Y-81305400D01*
X104876600Y-81325400D01*
X104622600Y-81325400D01*
X104622600Y-81305400D01*
X104602600Y-81305400D01*
X104602600Y-81193000D01*
X119032128Y-81193000D01*
X119044388Y-81317482D01*
X119080698Y-81437180D01*
X119139663Y-81547494D01*
X119219015Y-81644185D01*
X119305897Y-81715487D01*
X119184293Y-81897482D01*
X119085542Y-82135887D01*
X119035200Y-82388976D01*
X119035200Y-82647024D01*
X119085542Y-82900113D01*
X119184293Y-83138518D01*
X119327656Y-83353077D01*
X119492579Y-83518000D01*
X119327656Y-83682923D01*
X119184293Y-83897482D01*
X119085542Y-84135887D01*
X119035200Y-84388976D01*
X119035200Y-84647024D01*
X119085542Y-84900113D01*
X119184293Y-85138518D01*
X119327656Y-85353077D01*
X119492579Y-85518000D01*
X119327656Y-85682923D01*
X119184293Y-85897482D01*
X119085542Y-86135887D01*
X119035200Y-86388976D01*
X119035200Y-86647024D01*
X119085542Y-86900113D01*
X119184293Y-87138518D01*
X119327656Y-87353077D01*
X119492579Y-87518000D01*
X119327656Y-87682923D01*
X119184293Y-87897482D01*
X119085542Y-88135887D01*
X119035200Y-88388976D01*
X119035200Y-88647024D01*
X119085542Y-88900113D01*
X119184293Y-89138518D01*
X119327656Y-89353077D01*
X119492579Y-89518000D01*
X119327656Y-89682923D01*
X119184293Y-89897482D01*
X119085542Y-90135887D01*
X119035200Y-90388976D01*
X119035200Y-90647024D01*
X119085542Y-90900113D01*
X119184293Y-91138518D01*
X119327656Y-91353077D01*
X119510123Y-91535544D01*
X119724682Y-91678907D01*
X119963087Y-91777658D01*
X120216176Y-91828000D01*
X120474224Y-91828000D01*
X120727313Y-91777658D01*
X120965718Y-91678907D01*
X121180277Y-91535544D01*
X121362744Y-91353077D01*
X121506107Y-91138518D01*
X121604858Y-90900113D01*
X121655200Y-90647024D01*
X121655200Y-90388976D01*
X121604858Y-90135887D01*
X121506107Y-89897482D01*
X121362744Y-89682923D01*
X121197821Y-89518000D01*
X121362744Y-89353077D01*
X121506107Y-89138518D01*
X121604858Y-88900113D01*
X121655200Y-88647024D01*
X121655200Y-88388976D01*
X121604858Y-88135887D01*
X121577371Y-88069527D01*
X123858600Y-88069527D01*
X123858600Y-88308073D01*
X123905138Y-88542036D01*
X123996425Y-88762424D01*
X124128954Y-88960768D01*
X124297632Y-89129446D01*
X124495976Y-89261975D01*
X124716364Y-89353262D01*
X124950327Y-89399800D01*
X125188873Y-89399800D01*
X125422836Y-89353262D01*
X125643224Y-89261975D01*
X125841568Y-89129446D01*
X126010246Y-88960768D01*
X126142775Y-88762424D01*
X126234062Y-88542036D01*
X126280600Y-88308073D01*
X126280600Y-88069527D01*
X126234062Y-87835564D01*
X126142775Y-87615176D01*
X126010246Y-87416832D01*
X125841568Y-87248154D01*
X125643224Y-87115625D01*
X125422836Y-87024338D01*
X125188873Y-86977800D01*
X124950327Y-86977800D01*
X124716364Y-87024338D01*
X124495976Y-87115625D01*
X124297632Y-87248154D01*
X124128954Y-87416832D01*
X123996425Y-87615176D01*
X123905138Y-87835564D01*
X123858600Y-88069527D01*
X121577371Y-88069527D01*
X121506107Y-87897482D01*
X121362744Y-87682923D01*
X121197821Y-87518000D01*
X121362744Y-87353077D01*
X121506107Y-87138518D01*
X121604858Y-86900113D01*
X121655200Y-86647024D01*
X121655200Y-86388976D01*
X121604858Y-86135887D01*
X121506107Y-85897482D01*
X121362744Y-85682923D01*
X121197821Y-85518000D01*
X121362744Y-85353077D01*
X121506107Y-85138518D01*
X121604858Y-84900113D01*
X121655200Y-84647024D01*
X121655200Y-84388976D01*
X121604858Y-84135887D01*
X121506107Y-83897482D01*
X121362744Y-83682923D01*
X121197821Y-83518000D01*
X121362744Y-83353077D01*
X121506107Y-83138518D01*
X121604858Y-82900113D01*
X121655200Y-82647024D01*
X121655200Y-82489475D01*
X123482100Y-82489475D01*
X123482100Y-82712125D01*
X123525537Y-82930496D01*
X123610741Y-83136198D01*
X123734439Y-83321324D01*
X123891876Y-83478761D01*
X124077002Y-83602459D01*
X124282704Y-83687663D01*
X124501075Y-83731100D01*
X124723725Y-83731100D01*
X124942096Y-83687663D01*
X125147798Y-83602459D01*
X125332924Y-83478761D01*
X125490361Y-83321324D01*
X125614059Y-83136198D01*
X125628400Y-83101576D01*
X125642741Y-83136198D01*
X125766439Y-83321324D01*
X125923876Y-83478761D01*
X126109002Y-83602459D01*
X126314704Y-83687663D01*
X126533075Y-83731100D01*
X126755725Y-83731100D01*
X126974096Y-83687663D01*
X127179798Y-83602459D01*
X127364924Y-83478761D01*
X127522361Y-83321324D01*
X127646059Y-83136198D01*
X127731263Y-82930496D01*
X127774700Y-82712125D01*
X127774700Y-82489475D01*
X127731263Y-82271104D01*
X127646059Y-82065402D01*
X127522361Y-81880276D01*
X127364924Y-81722839D01*
X127179798Y-81599141D01*
X126974096Y-81513937D01*
X126755725Y-81470500D01*
X126533075Y-81470500D01*
X126314704Y-81513937D01*
X126109002Y-81599141D01*
X125923876Y-81722839D01*
X125766439Y-81880276D01*
X125642741Y-82065402D01*
X125628400Y-82100024D01*
X125614059Y-82065402D01*
X125490361Y-81880276D01*
X125332924Y-81722839D01*
X125147798Y-81599141D01*
X124942096Y-81513937D01*
X124723725Y-81470500D01*
X124501075Y-81470500D01*
X124282704Y-81513937D01*
X124077002Y-81599141D01*
X123891876Y-81722839D01*
X123734439Y-81880276D01*
X123610741Y-82065402D01*
X123525537Y-82271104D01*
X123482100Y-82489475D01*
X121655200Y-82489475D01*
X121655200Y-82388976D01*
X121604858Y-82135887D01*
X121506107Y-81897482D01*
X121384503Y-81715487D01*
X121471385Y-81644185D01*
X121550737Y-81547494D01*
X121609702Y-81437180D01*
X121646012Y-81317482D01*
X121658272Y-81193000D01*
X121655200Y-80803750D01*
X121496450Y-80645000D01*
X120472200Y-80645000D01*
X120472200Y-80665000D01*
X120218200Y-80665000D01*
X120218200Y-80645000D01*
X119193950Y-80645000D01*
X119035200Y-80803750D01*
X119032128Y-81193000D01*
X104602600Y-81193000D01*
X104602600Y-81051400D01*
X104622600Y-81051400D01*
X104622600Y-81031400D01*
X104876600Y-81031400D01*
X104876600Y-81051400D01*
X105900850Y-81051400D01*
X106059600Y-80892650D01*
X106062672Y-80503400D01*
X106050412Y-80378918D01*
X106014102Y-80259220D01*
X106003080Y-80238600D01*
X117703600Y-80238600D01*
X117728376Y-80236160D01*
X117752201Y-80228933D01*
X117774157Y-80217197D01*
X117791885Y-80202895D01*
X118164049Y-79843000D01*
X119032128Y-79843000D01*
X119035200Y-80232250D01*
X119193950Y-80391000D01*
X120218200Y-80391000D01*
X120218200Y-79366750D01*
X120472200Y-79366750D01*
X120472200Y-80391000D01*
X121496450Y-80391000D01*
X121655200Y-80232250D01*
X121658272Y-79843000D01*
X121646012Y-79718518D01*
X121609702Y-79598820D01*
X121550737Y-79488506D01*
X121471385Y-79391815D01*
X121374694Y-79312463D01*
X121264380Y-79253498D01*
X121144682Y-79217188D01*
X121020200Y-79204928D01*
X120630950Y-79208000D01*
X120472200Y-79366750D01*
X120218200Y-79366750D01*
X120059450Y-79208000D01*
X119670200Y-79204928D01*
X119545718Y-79217188D01*
X119426020Y-79253498D01*
X119315706Y-79312463D01*
X119219015Y-79391815D01*
X119139663Y-79488506D01*
X119080698Y-79598820D01*
X119044388Y-79718518D01*
X119032128Y-79843000D01*
X118164049Y-79843000D01*
X120680535Y-77409475D01*
X124498100Y-77409475D01*
X124498100Y-77632125D01*
X124541537Y-77850496D01*
X124626741Y-78056198D01*
X124750439Y-78241324D01*
X124907876Y-78398761D01*
X125093002Y-78522459D01*
X125298704Y-78607663D01*
X125517075Y-78651100D01*
X125739725Y-78651100D01*
X125958096Y-78607663D01*
X126075730Y-78558938D01*
X126094463Y-78586974D01*
X126147355Y-78639866D01*
X126117400Y-78790461D01*
X126117400Y-78994339D01*
X126157174Y-79194298D01*
X126235195Y-79382656D01*
X126314938Y-79502000D01*
X126235195Y-79621344D01*
X126157174Y-79809702D01*
X126117400Y-80009661D01*
X126117400Y-80213539D01*
X126157174Y-80413498D01*
X126235195Y-80601856D01*
X126348463Y-80771374D01*
X126492626Y-80915537D01*
X126662144Y-81028805D01*
X126850502Y-81106826D01*
X127050461Y-81146600D01*
X127254339Y-81146600D01*
X127454298Y-81106826D01*
X127642656Y-81028805D01*
X127812174Y-80915537D01*
X127956337Y-80771374D01*
X128069605Y-80601856D01*
X128147626Y-80413498D01*
X128187400Y-80213539D01*
X128187400Y-80009661D01*
X128147626Y-79809702D01*
X128069605Y-79621344D01*
X127989862Y-79502000D01*
X128069605Y-79382656D01*
X128147626Y-79194298D01*
X128187400Y-78994339D01*
X128187400Y-78790461D01*
X128147626Y-78590502D01*
X128069605Y-78402144D01*
X127956337Y-78232626D01*
X127903445Y-78179734D01*
X127933400Y-78029139D01*
X127933400Y-77825261D01*
X127893626Y-77625302D01*
X127815605Y-77436944D01*
X127702337Y-77267426D01*
X127558174Y-77123263D01*
X127388656Y-77009995D01*
X127200298Y-76931974D01*
X127000339Y-76892200D01*
X126796461Y-76892200D01*
X126596502Y-76931974D01*
X126594824Y-76932669D01*
X126506361Y-76800276D01*
X126348924Y-76642839D01*
X126163798Y-76519141D01*
X125958096Y-76433937D01*
X125739725Y-76390500D01*
X125517075Y-76390500D01*
X125298704Y-76433937D01*
X125093002Y-76519141D01*
X124907876Y-76642839D01*
X124750439Y-76800276D01*
X124626741Y-76985402D01*
X124541537Y-77191104D01*
X124498100Y-77409475D01*
X120680535Y-77409475D01*
X122168049Y-75971000D01*
X128435501Y-75971000D01*
X128435500Y-91153581D01*
X128432307Y-91186000D01*
X128445050Y-91315383D01*
X128482790Y-91439793D01*
X128544075Y-91554450D01*
X128626552Y-91654948D01*
X128727050Y-91737425D01*
X128841707Y-91798710D01*
X128966117Y-91836450D01*
X129095500Y-91849193D01*
X129127919Y-91846000D01*
X129667000Y-91846000D01*
X129667000Y-97130000D01*
X103187150Y-97130000D01*
X103272462Y-96924036D01*
X103319000Y-96690073D01*
X103319000Y-96451527D01*
X103272462Y-96217564D01*
X103181175Y-95997176D01*
X103084306Y-95852200D01*
X119077290Y-95852200D01*
X119107962Y-95953328D01*
X119215727Y-96186429D01*
X119366897Y-96394027D01*
X119555663Y-96568144D01*
X119774770Y-96702089D01*
X120015799Y-96790715D01*
X120218200Y-96667885D01*
X120218200Y-95649800D01*
X120472200Y-95649800D01*
X120472200Y-96667885D01*
X120674601Y-96790715D01*
X120915630Y-96702089D01*
X121134737Y-96568144D01*
X121323503Y-96394027D01*
X121474673Y-96186429D01*
X121582438Y-95953328D01*
X121613110Y-95852200D01*
X121489424Y-95649800D01*
X120472200Y-95649800D01*
X120218200Y-95649800D01*
X119200976Y-95649800D01*
X119077290Y-95852200D01*
X103084306Y-95852200D01*
X103048646Y-95798832D01*
X102879968Y-95630154D01*
X102681624Y-95497625D01*
X102461236Y-95406338D01*
X102227273Y-95359800D01*
X101988727Y-95359800D01*
X101754764Y-95406338D01*
X101534376Y-95497625D01*
X101336032Y-95630154D01*
X101167354Y-95798832D01*
X101034825Y-95997176D01*
X100943538Y-96217564D01*
X100897000Y-96451527D01*
X100897000Y-96690073D01*
X100943538Y-96924036D01*
X101028850Y-97130000D01*
X91211000Y-97130000D01*
X91211000Y-95085861D01*
X97579200Y-95085861D01*
X97579200Y-95289739D01*
X97618974Y-95489698D01*
X97696995Y-95678056D01*
X97810263Y-95847574D01*
X97954426Y-95991737D01*
X98123944Y-96105005D01*
X98180263Y-96128333D01*
X98217174Y-96313898D01*
X98295195Y-96502256D01*
X98408463Y-96671774D01*
X98552626Y-96815937D01*
X98722144Y-96929205D01*
X98910502Y-97007226D01*
X99110461Y-97047000D01*
X99314339Y-97047000D01*
X99514298Y-97007226D01*
X99702656Y-96929205D01*
X99872174Y-96815937D01*
X100016337Y-96671774D01*
X100129605Y-96502256D01*
X100207626Y-96313898D01*
X100242490Y-96138625D01*
X100323656Y-96105005D01*
X100493174Y-95991737D01*
X100637337Y-95847574D01*
X100750605Y-95678056D01*
X100828626Y-95489698D01*
X100868400Y-95289739D01*
X100868400Y-95085861D01*
X100828626Y-94885902D01*
X100750605Y-94697544D01*
X100712197Y-94640061D01*
X109658200Y-94640061D01*
X109658200Y-94843939D01*
X109697974Y-95043898D01*
X109775995Y-95232256D01*
X109889263Y-95401774D01*
X110033426Y-95545937D01*
X110202944Y-95659205D01*
X110391302Y-95737226D01*
X110591261Y-95777000D01*
X110795139Y-95777000D01*
X110995098Y-95737226D01*
X111183456Y-95659205D01*
X111302800Y-95579462D01*
X111422144Y-95659205D01*
X111610502Y-95737226D01*
X111810461Y-95777000D01*
X112014339Y-95777000D01*
X112214298Y-95737226D01*
X112402656Y-95659205D01*
X112496600Y-95596434D01*
X112590544Y-95659205D01*
X112778902Y-95737226D01*
X112978861Y-95777000D01*
X113182739Y-95777000D01*
X113382698Y-95737226D01*
X113571056Y-95659205D01*
X113740574Y-95545937D01*
X113884737Y-95401774D01*
X113998005Y-95232256D01*
X114076026Y-95043898D01*
X114115800Y-94843939D01*
X114115800Y-94640061D01*
X114076026Y-94440102D01*
X113998005Y-94251744D01*
X113884737Y-94082226D01*
X113740574Y-93938063D01*
X113571056Y-93824795D01*
X113382698Y-93746774D01*
X113182739Y-93707000D01*
X112978861Y-93707000D01*
X112778902Y-93746774D01*
X112590544Y-93824795D01*
X112496600Y-93887566D01*
X112402656Y-93824795D01*
X112214298Y-93746774D01*
X112014339Y-93707000D01*
X111810461Y-93707000D01*
X111610502Y-93746774D01*
X111422144Y-93824795D01*
X111302800Y-93904538D01*
X111183456Y-93824795D01*
X110995098Y-93746774D01*
X110795139Y-93707000D01*
X110591261Y-93707000D01*
X110391302Y-93746774D01*
X110202944Y-93824795D01*
X110033426Y-93938063D01*
X109889263Y-94082226D01*
X109775995Y-94251744D01*
X109697974Y-94440102D01*
X109658200Y-94640061D01*
X100712197Y-94640061D01*
X100637337Y-94528026D01*
X100493174Y-94383863D01*
X100323656Y-94270595D01*
X100135298Y-94192574D01*
X99935339Y-94152800D01*
X99731461Y-94152800D01*
X99531502Y-94192574D01*
X99343144Y-94270595D01*
X99223800Y-94350338D01*
X99104456Y-94270595D01*
X98916098Y-94192574D01*
X98716139Y-94152800D01*
X98512261Y-94152800D01*
X98312302Y-94192574D01*
X98123944Y-94270595D01*
X97954426Y-94383863D01*
X97810263Y-94528026D01*
X97696995Y-94697544D01*
X97618974Y-94885902D01*
X97579200Y-95085861D01*
X91211000Y-95085861D01*
X91211000Y-93928861D01*
X94672200Y-93928861D01*
X94672200Y-94132739D01*
X94711974Y-94332698D01*
X94789995Y-94521056D01*
X94903263Y-94690574D01*
X95047426Y-94834737D01*
X95216944Y-94948005D01*
X95405302Y-95026026D01*
X95605261Y-95065800D01*
X95809139Y-95065800D01*
X96009098Y-95026026D01*
X96197456Y-94948005D01*
X96366974Y-94834737D01*
X96511137Y-94690574D01*
X96624405Y-94521056D01*
X96702426Y-94332698D01*
X96742200Y-94132739D01*
X96742200Y-93928861D01*
X96702426Y-93728902D01*
X96624405Y-93540544D01*
X96511137Y-93371026D01*
X96366974Y-93226863D01*
X96197456Y-93113595D01*
X96009098Y-93035574D01*
X95809139Y-92995800D01*
X95605261Y-92995800D01*
X95405302Y-93035574D01*
X95216944Y-93113595D01*
X95047426Y-93226863D01*
X94903263Y-93371026D01*
X94789995Y-93540544D01*
X94711974Y-93728902D01*
X94672200Y-93928861D01*
X91211000Y-93928861D01*
X91211000Y-93289460D01*
X91368914Y-93224050D01*
X91534337Y-93113518D01*
X91675018Y-92972837D01*
X91768500Y-92832931D01*
X91861982Y-92972837D01*
X92002663Y-93113518D01*
X92168086Y-93224050D01*
X92351894Y-93300186D01*
X92547024Y-93339000D01*
X92745976Y-93339000D01*
X92941106Y-93300186D01*
X93124914Y-93224050D01*
X93281387Y-93119498D01*
X93320226Y-93158337D01*
X93489744Y-93271605D01*
X93678102Y-93349626D01*
X93878061Y-93389400D01*
X94081939Y-93389400D01*
X94281898Y-93349626D01*
X94470256Y-93271605D01*
X94639774Y-93158337D01*
X94783937Y-93014174D01*
X94897205Y-92844656D01*
X94975226Y-92656298D01*
X95015000Y-92456339D01*
X95015000Y-92252461D01*
X94975226Y-92052502D01*
X94897205Y-91864144D01*
X94783937Y-91694626D01*
X94732172Y-91642861D01*
X95180200Y-91642861D01*
X95180200Y-91846739D01*
X95219974Y-92046698D01*
X95297995Y-92235056D01*
X95411263Y-92404574D01*
X95555426Y-92548737D01*
X95724944Y-92662005D01*
X95913302Y-92740026D01*
X96113261Y-92779800D01*
X96317139Y-92779800D01*
X96517098Y-92740026D01*
X96705456Y-92662005D01*
X96874974Y-92548737D01*
X97019137Y-92404574D01*
X97132405Y-92235056D01*
X97210426Y-92046698D01*
X97250200Y-91846739D01*
X97250200Y-91642861D01*
X97210426Y-91442902D01*
X97132405Y-91254544D01*
X97019137Y-91085026D01*
X96874974Y-90940863D01*
X96705456Y-90827595D01*
X96517098Y-90749574D01*
X96317139Y-90709800D01*
X96113261Y-90709800D01*
X95913302Y-90749574D01*
X95724944Y-90827595D01*
X95555426Y-90940863D01*
X95411263Y-91085026D01*
X95297995Y-91254544D01*
X95219974Y-91442902D01*
X95180200Y-91642861D01*
X94732172Y-91642861D01*
X94639774Y-91550463D01*
X94470256Y-91437195D01*
X94281898Y-91359174D01*
X94081939Y-91319400D01*
X93878061Y-91319400D01*
X93678102Y-91359174D01*
X93489744Y-91437195D01*
X93320226Y-91550463D01*
X93308272Y-91562417D01*
X93290337Y-91544482D01*
X93124914Y-91433950D01*
X92941106Y-91357814D01*
X92745976Y-91319000D01*
X92547024Y-91319000D01*
X92351894Y-91357814D01*
X92168086Y-91433950D01*
X92002663Y-91544482D01*
X91861982Y-91685163D01*
X91768500Y-91825069D01*
X91675018Y-91685163D01*
X91534337Y-91544482D01*
X91368914Y-91433950D01*
X91211000Y-91368540D01*
X91211000Y-90637376D01*
X97038800Y-90637376D01*
X97038800Y-90895424D01*
X97089142Y-91148513D01*
X97187893Y-91386918D01*
X97331256Y-91601477D01*
X97496179Y-91766400D01*
X97331256Y-91931323D01*
X97187893Y-92145882D01*
X97089142Y-92384287D01*
X97038800Y-92637376D01*
X97038800Y-92895424D01*
X97089142Y-93148513D01*
X97187893Y-93386918D01*
X97331256Y-93601477D01*
X97513723Y-93783944D01*
X97728282Y-93927307D01*
X97966687Y-94026058D01*
X98219776Y-94076400D01*
X98477824Y-94076400D01*
X98730913Y-94026058D01*
X98969318Y-93927307D01*
X99183877Y-93783944D01*
X99366344Y-93601477D01*
X99509707Y-93386918D01*
X99608458Y-93148513D01*
X99658800Y-92895424D01*
X99658800Y-92637376D01*
X99608458Y-92384287D01*
X99509707Y-92145882D01*
X99366344Y-91931323D01*
X99201421Y-91766400D01*
X99366344Y-91601477D01*
X99509707Y-91386918D01*
X99608458Y-91148513D01*
X99658800Y-90895424D01*
X99658800Y-90637376D01*
X99608458Y-90384287D01*
X99509707Y-90145882D01*
X99366344Y-89931323D01*
X99194740Y-89759719D01*
X99327103Y-89637627D01*
X99478273Y-89430029D01*
X99586038Y-89196928D01*
X99616710Y-89095800D01*
X99493024Y-88893400D01*
X98475800Y-88893400D01*
X98475800Y-88913400D01*
X98221800Y-88913400D01*
X98221800Y-88893400D01*
X97204576Y-88893400D01*
X97080890Y-89095800D01*
X97111562Y-89196928D01*
X97219327Y-89430029D01*
X97370497Y-89637627D01*
X97502860Y-89759719D01*
X97331256Y-89931323D01*
X97187893Y-90145882D01*
X97089142Y-90384287D01*
X97038800Y-90637376D01*
X91211000Y-90637376D01*
X91211000Y-86869216D01*
X91886200Y-86869216D01*
X91886200Y-87171584D01*
X91945189Y-87468143D01*
X92060901Y-87747495D01*
X92228888Y-87998905D01*
X92442695Y-88212712D01*
X92694105Y-88380699D01*
X92973457Y-88496411D01*
X93270016Y-88555400D01*
X93572384Y-88555400D01*
X93868943Y-88496411D01*
X94148295Y-88380699D01*
X94399705Y-88212712D01*
X94613512Y-87998905D01*
X94781499Y-87747495D01*
X94897211Y-87468143D01*
X94956200Y-87171584D01*
X94956200Y-87031400D01*
X95096384Y-87031400D01*
X95392943Y-86972411D01*
X95672295Y-86856699D01*
X95923705Y-86688712D01*
X96137512Y-86474905D01*
X96305499Y-86223495D01*
X96421211Y-85944143D01*
X96480200Y-85647584D01*
X96480200Y-85345216D01*
X96421211Y-85048657D01*
X96305499Y-84769305D01*
X96137512Y-84517895D01*
X95923705Y-84304088D01*
X95806930Y-84226061D01*
X96755000Y-84226061D01*
X96755000Y-84429939D01*
X96794774Y-84629898D01*
X96872795Y-84818256D01*
X96986063Y-84987774D01*
X97130226Y-85131937D01*
X97299744Y-85245205D01*
X97488102Y-85323226D01*
X97688061Y-85363000D01*
X97891939Y-85363000D01*
X98091898Y-85323226D01*
X98280256Y-85245205D01*
X98449774Y-85131937D01*
X98577400Y-85004311D01*
X98705026Y-85131937D01*
X98874544Y-85245205D01*
X99062902Y-85323226D01*
X99262861Y-85363000D01*
X99268590Y-85363000D01*
X99233174Y-85448502D01*
X99225138Y-85488902D01*
X99148282Y-85465588D01*
X99023800Y-85453328D01*
X97673800Y-85453328D01*
X97549318Y-85465588D01*
X97429620Y-85501898D01*
X97319306Y-85560863D01*
X97222615Y-85640215D01*
X97143263Y-85736906D01*
X97084298Y-85847220D01*
X97047988Y-85966918D01*
X97035728Y-86091400D01*
X97035728Y-87441400D01*
X97047988Y-87565882D01*
X97084298Y-87685580D01*
X97143263Y-87795894D01*
X97222615Y-87892585D01*
X97316359Y-87969519D01*
X97219327Y-88102771D01*
X97111562Y-88335872D01*
X97080890Y-88437000D01*
X97204576Y-88639400D01*
X98221800Y-88639400D01*
X98221800Y-88619400D01*
X98475800Y-88619400D01*
X98475800Y-88639400D01*
X99493024Y-88639400D01*
X99616710Y-88437000D01*
X99586038Y-88335872D01*
X99478273Y-88102771D01*
X99381241Y-87969519D01*
X99474985Y-87892585D01*
X99554337Y-87795894D01*
X99613302Y-87685580D01*
X99649612Y-87565882D01*
X99661872Y-87441400D01*
X99661872Y-86616642D01*
X99738144Y-86667605D01*
X99926502Y-86745626D01*
X100126461Y-86785400D01*
X100330339Y-86785400D01*
X100530298Y-86745626D01*
X100718656Y-86667605D01*
X100888174Y-86554337D01*
X101032337Y-86410174D01*
X101145605Y-86240656D01*
X101223626Y-86052298D01*
X101263400Y-85852339D01*
X101263400Y-85648461D01*
X101223626Y-85448502D01*
X101145605Y-85260144D01*
X101032337Y-85090626D01*
X100888174Y-84946463D01*
X100718656Y-84833195D01*
X100530298Y-84755174D01*
X100330339Y-84715400D01*
X100324610Y-84715400D01*
X100360026Y-84629898D01*
X100399800Y-84429939D01*
X100399800Y-84226061D01*
X100360026Y-84026102D01*
X100282005Y-83837744D01*
X100168737Y-83668226D01*
X100024574Y-83524063D01*
X99855056Y-83410795D01*
X99666698Y-83332774D01*
X99466739Y-83293000D01*
X99262861Y-83293000D01*
X99062902Y-83332774D01*
X98874544Y-83410795D01*
X98705026Y-83524063D01*
X98577400Y-83651689D01*
X98449774Y-83524063D01*
X98280256Y-83410795D01*
X98091898Y-83332774D01*
X97891939Y-83293000D01*
X97688061Y-83293000D01*
X97488102Y-83332774D01*
X97299744Y-83410795D01*
X97130226Y-83524063D01*
X96986063Y-83668226D01*
X96872795Y-83837744D01*
X96794774Y-84026102D01*
X96755000Y-84226061D01*
X95806930Y-84226061D01*
X95672295Y-84136101D01*
X95392943Y-84020389D01*
X95096384Y-83961400D01*
X94959132Y-83961400D01*
X94962191Y-83905847D01*
X94937522Y-83732472D01*
X95395200Y-83732472D01*
X95607472Y-83711565D01*
X95811587Y-83649647D01*
X95999700Y-83549099D01*
X96164583Y-83413783D01*
X96299899Y-83248900D01*
X96400447Y-83060787D01*
X96462365Y-82856672D01*
X96483272Y-82644400D01*
X96483272Y-81744400D01*
X96462365Y-81532128D01*
X96400447Y-81328013D01*
X96299899Y-81139900D01*
X96164583Y-80975017D01*
X95999700Y-80839701D01*
X95811587Y-80739153D01*
X95607472Y-80677235D01*
X95395200Y-80656328D01*
X95009611Y-80656328D01*
X95026026Y-80616698D01*
X95065800Y-80416739D01*
X95065800Y-80212861D01*
X95026026Y-80012902D01*
X94948005Y-79824544D01*
X94834737Y-79655026D01*
X94690574Y-79510863D01*
X94521056Y-79397595D01*
X94332698Y-79319574D01*
X94132739Y-79279800D01*
X93928861Y-79279800D01*
X93728902Y-79319574D01*
X93540544Y-79397595D01*
X93371026Y-79510863D01*
X93226863Y-79655026D01*
X93113595Y-79824544D01*
X93035574Y-80012902D01*
X92995800Y-80212861D01*
X92995800Y-80416739D01*
X93035574Y-80616698D01*
X93113595Y-80805056D01*
X93226863Y-80974574D01*
X93371026Y-81118737D01*
X93540544Y-81232005D01*
X93541138Y-81232251D01*
X93489953Y-81328013D01*
X93428035Y-81532128D01*
X93407128Y-81744400D01*
X93407128Y-82434299D01*
X93354647Y-82431409D01*
X93055293Y-82474003D01*
X92770001Y-82574178D01*
X92620408Y-82654139D01*
X92536725Y-82908320D01*
X93421200Y-83792795D01*
X93435343Y-83778653D01*
X93614948Y-83958258D01*
X93600805Y-83972400D01*
X93614948Y-83986543D01*
X93435343Y-84166148D01*
X93421200Y-84152005D01*
X92536725Y-85036480D01*
X92620408Y-85290661D01*
X92892975Y-85421558D01*
X93185842Y-85496765D01*
X93207018Y-85497931D01*
X92973457Y-85544389D01*
X92694105Y-85660101D01*
X92442695Y-85828088D01*
X92228888Y-86041895D01*
X92060901Y-86293305D01*
X91945189Y-86572657D01*
X91886200Y-86869216D01*
X91211000Y-86869216D01*
X91211000Y-84038953D01*
X91880209Y-84038953D01*
X91922803Y-84338307D01*
X92022978Y-84623599D01*
X92102939Y-84773192D01*
X92357120Y-84856875D01*
X93241595Y-83972400D01*
X92357120Y-83087925D01*
X92102939Y-83171608D01*
X91972042Y-83444175D01*
X91896835Y-83737042D01*
X91880209Y-84038953D01*
X91211000Y-84038953D01*
X91211000Y-82665536D01*
X91236461Y-82670600D01*
X91440339Y-82670600D01*
X91640298Y-82630826D01*
X91828656Y-82552805D01*
X91998174Y-82439537D01*
X92142337Y-82295374D01*
X92255605Y-82125856D01*
X92333626Y-81937498D01*
X92373400Y-81737539D01*
X92373400Y-81533661D01*
X92333626Y-81333702D01*
X92255605Y-81145344D01*
X92142337Y-80975826D01*
X91998174Y-80831663D01*
X91828656Y-80718395D01*
X91640298Y-80640374D01*
X91440339Y-80600600D01*
X91236461Y-80600600D01*
X91211000Y-80605664D01*
X91211000Y-79255960D01*
X91368914Y-79190550D01*
X91534337Y-79080018D01*
X91675018Y-78939337D01*
X91768500Y-78799431D01*
X91861982Y-78939337D01*
X92002663Y-79080018D01*
X92168086Y-79190550D01*
X92351894Y-79266686D01*
X92547024Y-79305500D01*
X92745976Y-79305500D01*
X92941106Y-79266686D01*
X93124914Y-79190550D01*
X93290337Y-79080018D01*
X93431018Y-78939337D01*
X93541550Y-78773914D01*
X93617686Y-78590106D01*
X93656500Y-78394976D01*
X93656500Y-78196024D01*
X93617686Y-78000894D01*
X93541550Y-77817086D01*
X93431018Y-77651663D01*
X93290337Y-77510982D01*
X93124914Y-77400450D01*
X92941106Y-77324314D01*
X92745976Y-77285500D01*
X92547024Y-77285500D01*
X92351894Y-77324314D01*
X92168086Y-77400450D01*
X92002663Y-77510982D01*
X91861982Y-77651663D01*
X91768500Y-77791569D01*
X91675018Y-77651663D01*
X91534337Y-77510982D01*
X91368914Y-77400450D01*
X91211000Y-77335040D01*
X91211000Y-75971000D01*
X93702131Y-75971000D01*
X93574226Y-76056463D01*
%TD*%
M02*
