%TF.GenerationSoftware,KiCad,Pcbnew,(5.1.6-0-10_14)*%
%TF.CreationDate,2020-10-08T00:08:50+03:00*%
%TF.ProjectId,ikea-fyrtur,696b6561-2d66-4797-9274-75722e6b6963,rev?*%
%TF.SameCoordinates,Original*%
%TF.FileFunction,Paste,Bot*%
%TF.FilePolarity,Positive*%
%FSLAX46Y46*%
G04 Gerber Fmt 4.6, Leading zero omitted, Abs format (unit mm)*
G04 Created by KiCad (PCBNEW (5.1.6-0-10_14)) date 2020-10-08 00:08:50*
%MOMM*%
%LPD*%
G01*
G04 APERTURE LIST*
%ADD10R,1.800000X2.500000*%
%ADD11R,1.000000X2.750000*%
%ADD12R,1.500000X2.000000*%
%ADD13R,3.800000X2.000000*%
%ADD14R,0.800000X0.900000*%
%ADD15R,0.900000X0.800000*%
G04 APERTURE END LIST*
%TO.C,U3*%
G36*
G01*
X99398000Y-80471100D02*
X99198000Y-80471100D01*
G75*
G02*
X99098000Y-80371100I0J100000D01*
G01*
X99098000Y-79471100D01*
G75*
G02*
X99198000Y-79371100I100000J0D01*
G01*
X99398000Y-79371100D01*
G75*
G02*
X99498000Y-79471100I0J-100000D01*
G01*
X99498000Y-80371100D01*
G75*
G02*
X99398000Y-80471100I-100000J0D01*
G01*
G37*
G36*
G01*
X98398000Y-80471100D02*
X98198000Y-80471100D01*
G75*
G02*
X98098000Y-80371100I0J100000D01*
G01*
X98098000Y-79471100D01*
G75*
G02*
X98198000Y-79371100I100000J0D01*
G01*
X98398000Y-79371100D01*
G75*
G02*
X98498000Y-79471100I0J-100000D01*
G01*
X98498000Y-80371100D01*
G75*
G02*
X98398000Y-80471100I-100000J0D01*
G01*
G37*
G36*
G01*
X97398000Y-80471100D02*
X97198000Y-80471100D01*
G75*
G02*
X97098000Y-80371100I0J100000D01*
G01*
X97098000Y-79471100D01*
G75*
G02*
X97198000Y-79371100I100000J0D01*
G01*
X97398000Y-79371100D01*
G75*
G02*
X97498000Y-79471100I0J-100000D01*
G01*
X97498000Y-80371100D01*
G75*
G02*
X97398000Y-80471100I-100000J0D01*
G01*
G37*
G36*
G01*
X97398000Y-77296100D02*
X97198000Y-77296100D01*
G75*
G02*
X97098000Y-77196100I0J100000D01*
G01*
X97098000Y-76296100D01*
G75*
G02*
X97198000Y-76196100I100000J0D01*
G01*
X97398000Y-76196100D01*
G75*
G02*
X97498000Y-76296100I0J-100000D01*
G01*
X97498000Y-77196100D01*
G75*
G02*
X97398000Y-77296100I-100000J0D01*
G01*
G37*
G36*
G01*
X98398000Y-77296100D02*
X98198000Y-77296100D01*
G75*
G02*
X98098000Y-77196100I0J100000D01*
G01*
X98098000Y-76296100D01*
G75*
G02*
X98198000Y-76196100I100000J0D01*
G01*
X98398000Y-76196100D01*
G75*
G02*
X98498000Y-76296100I0J-100000D01*
G01*
X98498000Y-77196100D01*
G75*
G02*
X98398000Y-77296100I-100000J0D01*
G01*
G37*
G36*
G01*
X99398000Y-77296100D02*
X99198000Y-77296100D01*
G75*
G02*
X99098000Y-77196100I0J100000D01*
G01*
X99098000Y-76296100D01*
G75*
G02*
X99198000Y-76196100I100000J0D01*
G01*
X99398000Y-76196100D01*
G75*
G02*
X99498000Y-76296100I0J-100000D01*
G01*
X99498000Y-77196100D01*
G75*
G02*
X99398000Y-77296100I-100000J0D01*
G01*
G37*
G36*
G01*
X99233000Y-79008600D02*
X98563000Y-79008600D01*
G75*
G02*
X98413000Y-78858600I0J150000D01*
G01*
X98413000Y-78558600D01*
G75*
G02*
X98563000Y-78408600I150000J0D01*
G01*
X99233000Y-78408600D01*
G75*
G02*
X99383000Y-78558600I0J-150000D01*
G01*
X99383000Y-78858600D01*
G75*
G02*
X99233000Y-79008600I-150000J0D01*
G01*
G37*
G36*
G01*
X98033000Y-79008600D02*
X97363000Y-79008600D01*
G75*
G02*
X97213000Y-78858600I0J150000D01*
G01*
X97213000Y-78558600D01*
G75*
G02*
X97363000Y-78408600I150000J0D01*
G01*
X98033000Y-78408600D01*
G75*
G02*
X98183000Y-78558600I0J-150000D01*
G01*
X98183000Y-78858600D01*
G75*
G02*
X98033000Y-79008600I-150000J0D01*
G01*
G37*
G36*
G01*
X99233000Y-78258600D02*
X98563000Y-78258600D01*
G75*
G02*
X98413000Y-78108600I0J150000D01*
G01*
X98413000Y-77808600D01*
G75*
G02*
X98563000Y-77658600I150000J0D01*
G01*
X99233000Y-77658600D01*
G75*
G02*
X99383000Y-77808600I0J-150000D01*
G01*
X99383000Y-78108600D01*
G75*
G02*
X99233000Y-78258600I-150000J0D01*
G01*
G37*
G36*
G01*
X98033000Y-78258600D02*
X97363000Y-78258600D01*
G75*
G02*
X97213000Y-78108600I0J150000D01*
G01*
X97213000Y-77808600D01*
G75*
G02*
X97363000Y-77658600I150000J0D01*
G01*
X98033000Y-77658600D01*
G75*
G02*
X98183000Y-77808600I0J-150000D01*
G01*
X98183000Y-78108600D01*
G75*
G02*
X98033000Y-78258600I-150000J0D01*
G01*
G37*
%TD*%
%TO.C,C1*%
G36*
G01*
X116593199Y-95446000D02*
X117493201Y-95446000D01*
G75*
G02*
X117743200Y-95695999I0J-249999D01*
G01*
X117743200Y-96346001D01*
G75*
G02*
X117493201Y-96596000I-249999J0D01*
G01*
X116593199Y-96596000D01*
G75*
G02*
X116343200Y-96346001I0J249999D01*
G01*
X116343200Y-95695999D01*
G75*
G02*
X116593199Y-95446000I249999J0D01*
G01*
G37*
G36*
G01*
X116593199Y-93396000D02*
X117493201Y-93396000D01*
G75*
G02*
X117743200Y-93645999I0J-249999D01*
G01*
X117743200Y-94296001D01*
G75*
G02*
X117493201Y-94546000I-249999J0D01*
G01*
X116593199Y-94546000D01*
G75*
G02*
X116343200Y-94296001I0J249999D01*
G01*
X116343200Y-93645999D01*
G75*
G02*
X116593199Y-93396000I249999J0D01*
G01*
G37*
%TD*%
%TO.C,R17*%
G36*
G01*
X106834650Y-81488800D02*
X106322150Y-81488800D01*
G75*
G02*
X106103400Y-81270050I0J218750D01*
G01*
X106103400Y-80832550D01*
G75*
G02*
X106322150Y-80613800I218750J0D01*
G01*
X106834650Y-80613800D01*
G75*
G02*
X107053400Y-80832550I0J-218750D01*
G01*
X107053400Y-81270050D01*
G75*
G02*
X106834650Y-81488800I-218750J0D01*
G01*
G37*
G36*
G01*
X106834650Y-83063800D02*
X106322150Y-83063800D01*
G75*
G02*
X106103400Y-82845050I0J218750D01*
G01*
X106103400Y-82407550D01*
G75*
G02*
X106322150Y-82188800I218750J0D01*
G01*
X106834650Y-82188800D01*
G75*
G02*
X107053400Y-82407550I0J-218750D01*
G01*
X107053400Y-82845050D01*
G75*
G02*
X106834650Y-83063800I-218750J0D01*
G01*
G37*
%TD*%
%TO.C,C8*%
G36*
G01*
X107915700Y-86659200D02*
X108390700Y-86659200D01*
G75*
G02*
X108628200Y-86896700I0J-237500D01*
G01*
X108628200Y-87471700D01*
G75*
G02*
X108390700Y-87709200I-237500J0D01*
G01*
X107915700Y-87709200D01*
G75*
G02*
X107678200Y-87471700I0J237500D01*
G01*
X107678200Y-86896700D01*
G75*
G02*
X107915700Y-86659200I237500J0D01*
G01*
G37*
G36*
G01*
X107915700Y-84909200D02*
X108390700Y-84909200D01*
G75*
G02*
X108628200Y-85146700I0J-237500D01*
G01*
X108628200Y-85721700D01*
G75*
G02*
X108390700Y-85959200I-237500J0D01*
G01*
X107915700Y-85959200D01*
G75*
G02*
X107678200Y-85721700I0J237500D01*
G01*
X107678200Y-85146700D01*
G75*
G02*
X107915700Y-84909200I237500J0D01*
G01*
G37*
%TD*%
%TO.C,C3*%
G36*
G01*
X106563000Y-92099100D02*
X107813000Y-92099100D01*
G75*
G02*
X108063000Y-92349100I0J-250000D01*
G01*
X108063000Y-93274100D01*
G75*
G02*
X107813000Y-93524100I-250000J0D01*
G01*
X106563000Y-93524100D01*
G75*
G02*
X106313000Y-93274100I0J250000D01*
G01*
X106313000Y-92349100D01*
G75*
G02*
X106563000Y-92099100I250000J0D01*
G01*
G37*
G36*
G01*
X106563000Y-89124100D02*
X107813000Y-89124100D01*
G75*
G02*
X108063000Y-89374100I0J-250000D01*
G01*
X108063000Y-90299100D01*
G75*
G02*
X107813000Y-90549100I-250000J0D01*
G01*
X106563000Y-90549100D01*
G75*
G02*
X106313000Y-90299100I0J250000D01*
G01*
X106313000Y-89374100D01*
G75*
G02*
X106563000Y-89124100I250000J0D01*
G01*
G37*
%TD*%
%TO.C,F1*%
G36*
G01*
X122333599Y-95395200D02*
X123233601Y-95395200D01*
G75*
G02*
X123483600Y-95645199I0J-249999D01*
G01*
X123483600Y-96295201D01*
G75*
G02*
X123233601Y-96545200I-249999J0D01*
G01*
X122333599Y-96545200D01*
G75*
G02*
X122083600Y-96295201I0J249999D01*
G01*
X122083600Y-95645199D01*
G75*
G02*
X122333599Y-95395200I249999J0D01*
G01*
G37*
G36*
G01*
X122333599Y-93345200D02*
X123233601Y-93345200D01*
G75*
G02*
X123483600Y-93595199I0J-249999D01*
G01*
X123483600Y-94245201D01*
G75*
G02*
X123233601Y-94495200I-249999J0D01*
G01*
X122333599Y-94495200D01*
G75*
G02*
X122083600Y-94245201I0J249999D01*
G01*
X122083600Y-93595199D01*
G75*
G02*
X122333599Y-93345200I249999J0D01*
G01*
G37*
%TD*%
D10*
%TO.C,D2*%
X117297200Y-84156800D03*
X117297200Y-88156800D03*
%TD*%
%TO.C,C5*%
G36*
G01*
X96046300Y-78186800D02*
X95571300Y-78186800D01*
G75*
G02*
X95333800Y-77949300I0J237500D01*
G01*
X95333800Y-77374300D01*
G75*
G02*
X95571300Y-77136800I237500J0D01*
G01*
X96046300Y-77136800D01*
G75*
G02*
X96283800Y-77374300I0J-237500D01*
G01*
X96283800Y-77949300D01*
G75*
G02*
X96046300Y-78186800I-237500J0D01*
G01*
G37*
G36*
G01*
X96046300Y-79936800D02*
X95571300Y-79936800D01*
G75*
G02*
X95333800Y-79699300I0J237500D01*
G01*
X95333800Y-79124300D01*
G75*
G02*
X95571300Y-78886800I237500J0D01*
G01*
X96046300Y-78886800D01*
G75*
G02*
X96283800Y-79124300I0J-237500D01*
G01*
X96283800Y-79699300D01*
G75*
G02*
X96046300Y-79936800I-237500J0D01*
G01*
G37*
%TD*%
%TO.C,C2*%
G36*
G01*
X93630000Y-88560900D02*
X93630000Y-89035900D01*
G75*
G02*
X93392500Y-89273400I-237500J0D01*
G01*
X92817500Y-89273400D01*
G75*
G02*
X92580000Y-89035900I0J237500D01*
G01*
X92580000Y-88560900D01*
G75*
G02*
X92817500Y-88323400I237500J0D01*
G01*
X93392500Y-88323400D01*
G75*
G02*
X93630000Y-88560900I0J-237500D01*
G01*
G37*
G36*
G01*
X95380000Y-88560900D02*
X95380000Y-89035900D01*
G75*
G02*
X95142500Y-89273400I-237500J0D01*
G01*
X94567500Y-89273400D01*
G75*
G02*
X94330000Y-89035900I0J237500D01*
G01*
X94330000Y-88560900D01*
G75*
G02*
X94567500Y-88323400I237500J0D01*
G01*
X95142500Y-88323400D01*
G75*
G02*
X95380000Y-88560900I0J-237500D01*
G01*
G37*
%TD*%
%TO.C,R8*%
G36*
G01*
X101300800Y-87932550D02*
X101300800Y-88445050D01*
G75*
G02*
X101082050Y-88663800I-218750J0D01*
G01*
X100644550Y-88663800D01*
G75*
G02*
X100425800Y-88445050I0J218750D01*
G01*
X100425800Y-87932550D01*
G75*
G02*
X100644550Y-87713800I218750J0D01*
G01*
X101082050Y-87713800D01*
G75*
G02*
X101300800Y-87932550I0J-218750D01*
G01*
G37*
G36*
G01*
X102875800Y-87932550D02*
X102875800Y-88445050D01*
G75*
G02*
X102657050Y-88663800I-218750J0D01*
G01*
X102219550Y-88663800D01*
G75*
G02*
X102000800Y-88445050I0J218750D01*
G01*
X102000800Y-87932550D01*
G75*
G02*
X102219550Y-87713800I218750J0D01*
G01*
X102657050Y-87713800D01*
G75*
G02*
X102875800Y-87932550I0J-218750D01*
G01*
G37*
%TD*%
D11*
%TO.C,SW1*%
X127069600Y-91068800D03*
X127069600Y-85308800D03*
X123069600Y-85308800D03*
X123069600Y-91068800D03*
%TD*%
%TO.C,R6*%
G36*
G01*
X98456000Y-83004950D02*
X98456000Y-83517450D01*
G75*
G02*
X98237250Y-83736200I-218750J0D01*
G01*
X97799750Y-83736200D01*
G75*
G02*
X97581000Y-83517450I0J218750D01*
G01*
X97581000Y-83004950D01*
G75*
G02*
X97799750Y-82786200I218750J0D01*
G01*
X98237250Y-82786200D01*
G75*
G02*
X98456000Y-83004950I0J-218750D01*
G01*
G37*
G36*
G01*
X100031000Y-83004950D02*
X100031000Y-83517450D01*
G75*
G02*
X99812250Y-83736200I-218750J0D01*
G01*
X99374750Y-83736200D01*
G75*
G02*
X99156000Y-83517450I0J218750D01*
G01*
X99156000Y-83004950D01*
G75*
G02*
X99374750Y-82786200I218750J0D01*
G01*
X99812250Y-82786200D01*
G75*
G02*
X100031000Y-83004950I0J-218750D01*
G01*
G37*
%TD*%
%TO.C,R16*%
G36*
G01*
X113078550Y-82239600D02*
X113591050Y-82239600D01*
G75*
G02*
X113809800Y-82458350I0J-218750D01*
G01*
X113809800Y-82895850D01*
G75*
G02*
X113591050Y-83114600I-218750J0D01*
G01*
X113078550Y-83114600D01*
G75*
G02*
X112859800Y-82895850I0J218750D01*
G01*
X112859800Y-82458350D01*
G75*
G02*
X113078550Y-82239600I218750J0D01*
G01*
G37*
G36*
G01*
X113078550Y-80664600D02*
X113591050Y-80664600D01*
G75*
G02*
X113809800Y-80883350I0J-218750D01*
G01*
X113809800Y-81320850D01*
G75*
G02*
X113591050Y-81539600I-218750J0D01*
G01*
X113078550Y-81539600D01*
G75*
G02*
X112859800Y-81320850I0J218750D01*
G01*
X112859800Y-80883350D01*
G75*
G02*
X113078550Y-80664600I218750J0D01*
G01*
G37*
%TD*%
%TO.C,R15*%
G36*
G01*
X115064250Y-81539600D02*
X114551750Y-81539600D01*
G75*
G02*
X114333000Y-81320850I0J218750D01*
G01*
X114333000Y-80883350D01*
G75*
G02*
X114551750Y-80664600I218750J0D01*
G01*
X115064250Y-80664600D01*
G75*
G02*
X115283000Y-80883350I0J-218750D01*
G01*
X115283000Y-81320850D01*
G75*
G02*
X115064250Y-81539600I-218750J0D01*
G01*
G37*
G36*
G01*
X115064250Y-83114600D02*
X114551750Y-83114600D01*
G75*
G02*
X114333000Y-82895850I0J218750D01*
G01*
X114333000Y-82458350D01*
G75*
G02*
X114551750Y-82239600I218750J0D01*
G01*
X115064250Y-82239600D01*
G75*
G02*
X115283000Y-82458350I0J-218750D01*
G01*
X115283000Y-82895850D01*
G75*
G02*
X115064250Y-83114600I-218750J0D01*
G01*
G37*
%TD*%
%TO.C,R14*%
G36*
G01*
X115064250Y-84943200D02*
X114551750Y-84943200D01*
G75*
G02*
X114333000Y-84724450I0J218750D01*
G01*
X114333000Y-84286950D01*
G75*
G02*
X114551750Y-84068200I218750J0D01*
G01*
X115064250Y-84068200D01*
G75*
G02*
X115283000Y-84286950I0J-218750D01*
G01*
X115283000Y-84724450D01*
G75*
G02*
X115064250Y-84943200I-218750J0D01*
G01*
G37*
G36*
G01*
X115064250Y-86518200D02*
X114551750Y-86518200D01*
G75*
G02*
X114333000Y-86299450I0J218750D01*
G01*
X114333000Y-85861950D01*
G75*
G02*
X114551750Y-85643200I218750J0D01*
G01*
X115064250Y-85643200D01*
G75*
G02*
X115283000Y-85861950I0J-218750D01*
G01*
X115283000Y-86299450D01*
G75*
G02*
X115064250Y-86518200I-218750J0D01*
G01*
G37*
%TD*%
%TO.C,R13*%
G36*
G01*
X93680800Y-90066150D02*
X93680800Y-90578650D01*
G75*
G02*
X93462050Y-90797400I-218750J0D01*
G01*
X93024550Y-90797400D01*
G75*
G02*
X92805800Y-90578650I0J218750D01*
G01*
X92805800Y-90066150D01*
G75*
G02*
X93024550Y-89847400I218750J0D01*
G01*
X93462050Y-89847400D01*
G75*
G02*
X93680800Y-90066150I0J-218750D01*
G01*
G37*
G36*
G01*
X95255800Y-90066150D02*
X95255800Y-90578650D01*
G75*
G02*
X95037050Y-90797400I-218750J0D01*
G01*
X94599550Y-90797400D01*
G75*
G02*
X94380800Y-90578650I0J218750D01*
G01*
X94380800Y-90066150D01*
G75*
G02*
X94599550Y-89847400I218750J0D01*
G01*
X95037050Y-89847400D01*
G75*
G02*
X95255800Y-90066150I0J-218750D01*
G01*
G37*
%TD*%
%TO.C,R12*%
G36*
G01*
X91750400Y-79956950D02*
X91750400Y-80469450D01*
G75*
G02*
X91531650Y-80688200I-218750J0D01*
G01*
X91094150Y-80688200D01*
G75*
G02*
X90875400Y-80469450I0J218750D01*
G01*
X90875400Y-79956950D01*
G75*
G02*
X91094150Y-79738200I218750J0D01*
G01*
X91531650Y-79738200D01*
G75*
G02*
X91750400Y-79956950I0J-218750D01*
G01*
G37*
G36*
G01*
X93325400Y-79956950D02*
X93325400Y-80469450D01*
G75*
G02*
X93106650Y-80688200I-218750J0D01*
G01*
X92669150Y-80688200D01*
G75*
G02*
X92450400Y-80469450I0J218750D01*
G01*
X92450400Y-79956950D01*
G75*
G02*
X92669150Y-79738200I218750J0D01*
G01*
X93106650Y-79738200D01*
G75*
G02*
X93325400Y-79956950I0J-218750D01*
G01*
G37*
%TD*%
%TO.C,R11*%
G36*
G01*
X94228400Y-94134650D02*
X94228400Y-93622150D01*
G75*
G02*
X94447150Y-93403400I218750J0D01*
G01*
X94884650Y-93403400D01*
G75*
G02*
X95103400Y-93622150I0J-218750D01*
G01*
X95103400Y-94134650D01*
G75*
G02*
X94884650Y-94353400I-218750J0D01*
G01*
X94447150Y-94353400D01*
G75*
G02*
X94228400Y-94134650I0J218750D01*
G01*
G37*
G36*
G01*
X92653400Y-94134650D02*
X92653400Y-93622150D01*
G75*
G02*
X92872150Y-93403400I218750J0D01*
G01*
X93309650Y-93403400D01*
G75*
G02*
X93528400Y-93622150I0J-218750D01*
G01*
X93528400Y-94134650D01*
G75*
G02*
X93309650Y-94353400I-218750J0D01*
G01*
X92872150Y-94353400D01*
G75*
G02*
X92653400Y-94134650I0J218750D01*
G01*
G37*
%TD*%
%TO.C,R10*%
G36*
G01*
X94079350Y-78886800D02*
X94591850Y-78886800D01*
G75*
G02*
X94810600Y-79105550I0J-218750D01*
G01*
X94810600Y-79543050D01*
G75*
G02*
X94591850Y-79761800I-218750J0D01*
G01*
X94079350Y-79761800D01*
G75*
G02*
X93860600Y-79543050I0J218750D01*
G01*
X93860600Y-79105550D01*
G75*
G02*
X94079350Y-78886800I218750J0D01*
G01*
G37*
G36*
G01*
X94079350Y-77311800D02*
X94591850Y-77311800D01*
G75*
G02*
X94810600Y-77530550I0J-218750D01*
G01*
X94810600Y-77968050D01*
G75*
G02*
X94591850Y-78186800I-218750J0D01*
G01*
X94079350Y-78186800D01*
G75*
G02*
X93860600Y-77968050I0J218750D01*
G01*
X93860600Y-77530550D01*
G75*
G02*
X94079350Y-77311800I218750J0D01*
G01*
G37*
%TD*%
%TO.C,R9*%
G36*
G01*
X93503100Y-95120750D02*
X93503100Y-95633250D01*
G75*
G02*
X93284350Y-95852000I-218750J0D01*
G01*
X92846850Y-95852000D01*
G75*
G02*
X92628100Y-95633250I0J218750D01*
G01*
X92628100Y-95120750D01*
G75*
G02*
X92846850Y-94902000I218750J0D01*
G01*
X93284350Y-94902000D01*
G75*
G02*
X93503100Y-95120750I0J-218750D01*
G01*
G37*
G36*
G01*
X95078100Y-95120750D02*
X95078100Y-95633250D01*
G75*
G02*
X94859350Y-95852000I-218750J0D01*
G01*
X94421850Y-95852000D01*
G75*
G02*
X94203100Y-95633250I0J218750D01*
G01*
X94203100Y-95120750D01*
G75*
G02*
X94421850Y-94902000I218750J0D01*
G01*
X94859350Y-94902000D01*
G75*
G02*
X95078100Y-95120750I0J-218750D01*
G01*
G37*
%TD*%
%TO.C,R7*%
G36*
G01*
X124872000Y-93164950D02*
X124872000Y-93677450D01*
G75*
G02*
X124653250Y-93896200I-218750J0D01*
G01*
X124215750Y-93896200D01*
G75*
G02*
X123997000Y-93677450I0J218750D01*
G01*
X123997000Y-93164950D01*
G75*
G02*
X124215750Y-92946200I218750J0D01*
G01*
X124653250Y-92946200D01*
G75*
G02*
X124872000Y-93164950I0J-218750D01*
G01*
G37*
G36*
G01*
X126447000Y-93164950D02*
X126447000Y-93677450D01*
G75*
G02*
X126228250Y-93896200I-218750J0D01*
G01*
X125790750Y-93896200D01*
G75*
G02*
X125572000Y-93677450I0J218750D01*
G01*
X125572000Y-93164950D01*
G75*
G02*
X125790750Y-92946200I218750J0D01*
G01*
X126228250Y-92946200D01*
G75*
G02*
X126447000Y-93164950I0J-218750D01*
G01*
G37*
%TD*%
%TO.C,R5*%
G36*
G01*
X106885450Y-85857600D02*
X106372950Y-85857600D01*
G75*
G02*
X106154200Y-85638850I0J218750D01*
G01*
X106154200Y-85201350D01*
G75*
G02*
X106372950Y-84982600I218750J0D01*
G01*
X106885450Y-84982600D01*
G75*
G02*
X107104200Y-85201350I0J-218750D01*
G01*
X107104200Y-85638850D01*
G75*
G02*
X106885450Y-85857600I-218750J0D01*
G01*
G37*
G36*
G01*
X106885450Y-87432600D02*
X106372950Y-87432600D01*
G75*
G02*
X106154200Y-87213850I0J218750D01*
G01*
X106154200Y-86776350D01*
G75*
G02*
X106372950Y-86557600I218750J0D01*
G01*
X106885450Y-86557600D01*
G75*
G02*
X107104200Y-86776350I0J-218750D01*
G01*
X107104200Y-87213850D01*
G75*
G02*
X106885450Y-87432600I-218750J0D01*
G01*
G37*
%TD*%
%TO.C,R4*%
G36*
G01*
X98800400Y-82044250D02*
X98800400Y-81531750D01*
G75*
G02*
X99019150Y-81313000I218750J0D01*
G01*
X99456650Y-81313000D01*
G75*
G02*
X99675400Y-81531750I0J-218750D01*
G01*
X99675400Y-82044250D01*
G75*
G02*
X99456650Y-82263000I-218750J0D01*
G01*
X99019150Y-82263000D01*
G75*
G02*
X98800400Y-82044250I0J218750D01*
G01*
G37*
G36*
G01*
X97225400Y-82044250D02*
X97225400Y-81531750D01*
G75*
G02*
X97444150Y-81313000I218750J0D01*
G01*
X97881650Y-81313000D01*
G75*
G02*
X98100400Y-81531750I0J-218750D01*
G01*
X98100400Y-82044250D01*
G75*
G02*
X97881650Y-82263000I-218750J0D01*
G01*
X97444150Y-82263000D01*
G75*
G02*
X97225400Y-82044250I0J218750D01*
G01*
G37*
%TD*%
%TO.C,R3*%
G36*
G01*
X102127900Y-84482650D02*
X102127900Y-83970150D01*
G75*
G02*
X102346650Y-83751400I218750J0D01*
G01*
X102784150Y-83751400D01*
G75*
G02*
X103002900Y-83970150I0J-218750D01*
G01*
X103002900Y-84482650D01*
G75*
G02*
X102784150Y-84701400I-218750J0D01*
G01*
X102346650Y-84701400D01*
G75*
G02*
X102127900Y-84482650I0J218750D01*
G01*
G37*
G36*
G01*
X100552900Y-84482650D02*
X100552900Y-83970150D01*
G75*
G02*
X100771650Y-83751400I218750J0D01*
G01*
X101209150Y-83751400D01*
G75*
G02*
X101427900Y-83970150I0J-218750D01*
G01*
X101427900Y-84482650D01*
G75*
G02*
X101209150Y-84701400I-218750J0D01*
G01*
X100771650Y-84701400D01*
G75*
G02*
X100552900Y-84482650I0J218750D01*
G01*
G37*
%TD*%
%TO.C,R2*%
G36*
G01*
X109933450Y-85908400D02*
X109420950Y-85908400D01*
G75*
G02*
X109202200Y-85689650I0J218750D01*
G01*
X109202200Y-85252150D01*
G75*
G02*
X109420950Y-85033400I218750J0D01*
G01*
X109933450Y-85033400D01*
G75*
G02*
X110152200Y-85252150I0J-218750D01*
G01*
X110152200Y-85689650D01*
G75*
G02*
X109933450Y-85908400I-218750J0D01*
G01*
G37*
G36*
G01*
X109933450Y-87483400D02*
X109420950Y-87483400D01*
G75*
G02*
X109202200Y-87264650I0J218750D01*
G01*
X109202200Y-86827150D01*
G75*
G02*
X109420950Y-86608400I218750J0D01*
G01*
X109933450Y-86608400D01*
G75*
G02*
X110152200Y-86827150I0J-218750D01*
G01*
X110152200Y-87264650D01*
G75*
G02*
X109933450Y-87483400I-218750J0D01*
G01*
G37*
%TD*%
%TO.C,R1*%
G36*
G01*
X111605350Y-82239600D02*
X112117850Y-82239600D01*
G75*
G02*
X112336600Y-82458350I0J-218750D01*
G01*
X112336600Y-82895850D01*
G75*
G02*
X112117850Y-83114600I-218750J0D01*
G01*
X111605350Y-83114600D01*
G75*
G02*
X111386600Y-82895850I0J218750D01*
G01*
X111386600Y-82458350D01*
G75*
G02*
X111605350Y-82239600I218750J0D01*
G01*
G37*
G36*
G01*
X111605350Y-80664600D02*
X112117850Y-80664600D01*
G75*
G02*
X112336600Y-80883350I0J-218750D01*
G01*
X112336600Y-81320850D01*
G75*
G02*
X112117850Y-81539600I-218750J0D01*
G01*
X111605350Y-81539600D01*
G75*
G02*
X111386600Y-81320850I0J218750D01*
G01*
X111386600Y-80883350D01*
G75*
G02*
X111605350Y-80664600I218750J0D01*
G01*
G37*
%TD*%
%TO.C,C7*%
G36*
G01*
X93477600Y-96638100D02*
X93477600Y-97113100D01*
G75*
G02*
X93240100Y-97350600I-237500J0D01*
G01*
X92665100Y-97350600D01*
G75*
G02*
X92427600Y-97113100I0J237500D01*
G01*
X92427600Y-96638100D01*
G75*
G02*
X92665100Y-96400600I237500J0D01*
G01*
X93240100Y-96400600D01*
G75*
G02*
X93477600Y-96638100I0J-237500D01*
G01*
G37*
G36*
G01*
X95227600Y-96638100D02*
X95227600Y-97113100D01*
G75*
G02*
X94990100Y-97350600I-237500J0D01*
G01*
X94415100Y-97350600D01*
G75*
G02*
X94177600Y-97113100I0J237500D01*
G01*
X94177600Y-96638100D01*
G75*
G02*
X94415100Y-96400600I237500J0D01*
G01*
X94990100Y-96400600D01*
G75*
G02*
X95227600Y-96638100I0J-237500D01*
G01*
G37*
%TD*%
%TO.C,C6*%
G36*
G01*
X92055200Y-75962500D02*
X92055200Y-76437500D01*
G75*
G02*
X91817700Y-76675000I-237500J0D01*
G01*
X91242700Y-76675000D01*
G75*
G02*
X91005200Y-76437500I0J237500D01*
G01*
X91005200Y-75962500D01*
G75*
G02*
X91242700Y-75725000I237500J0D01*
G01*
X91817700Y-75725000D01*
G75*
G02*
X92055200Y-75962500I0J-237500D01*
G01*
G37*
G36*
G01*
X93805200Y-75962500D02*
X93805200Y-76437500D01*
G75*
G02*
X93567700Y-76675000I-237500J0D01*
G01*
X92992700Y-76675000D01*
G75*
G02*
X92755200Y-76437500I0J237500D01*
G01*
X92755200Y-75962500D01*
G75*
G02*
X92992700Y-75725000I237500J0D01*
G01*
X93567700Y-75725000D01*
G75*
G02*
X93805200Y-75962500I0J-237500D01*
G01*
G37*
%TD*%
D12*
%TO.C,U1*%
X109612400Y-90004500D03*
X114212400Y-90004500D03*
X111912400Y-90004500D03*
D13*
X111912400Y-96304500D03*
%TD*%
D14*
%TO.C,Q2*%
X112217200Y-87258400D03*
X113167200Y-85258400D03*
X111267200Y-85258400D03*
%TD*%
D15*
%TO.C,Q1*%
X108220000Y-82245200D03*
X110220000Y-83195200D03*
X110220000Y-81295200D03*
%TD*%
M02*
