%TF.GenerationSoftware,KiCad,Pcbnew,(5.1.6-0-10_14)*%
%TF.CreationDate,2020-10-08T00:08:50+03:00*%
%TF.ProjectId,ikea-fyrtur,696b6561-2d66-4797-9274-75722e6b6963,rev?*%
%TF.SameCoordinates,Original*%
%TF.FileFunction,Legend,Bot*%
%TF.FilePolarity,Positive*%
%FSLAX46Y46*%
G04 Gerber Fmt 4.6, Leading zero omitted, Abs format (unit mm)*
G04 Created by KiCad (PCBNEW (5.1.6-0-10_14)) date 2020-10-08 00:08:50*
%MOMM*%
%LPD*%
G01*
G04 APERTURE LIST*
%ADD10C,0.120000*%
%ADD11C,0.100000*%
%ADD12C,0.160000*%
%ADD13C,0.150000*%
%ADD14C,0.200000*%
%ADD15C,0.125000*%
G04 APERTURE END LIST*
D10*
X99078952Y-85604304D02*
X99078952Y-84804304D01*
X98736095Y-84880495D02*
X98698000Y-84842400D01*
X98621809Y-84804304D01*
X98431333Y-84804304D01*
X98355142Y-84842400D01*
X98317047Y-84880495D01*
X98278952Y-84956685D01*
X98278952Y-85032876D01*
X98317047Y-85147161D01*
X98774190Y-85604304D01*
X98278952Y-85604304D01*
X97478952Y-85528114D02*
X97517047Y-85566209D01*
X97631333Y-85604304D01*
X97707523Y-85604304D01*
X97821809Y-85566209D01*
X97898000Y-85490019D01*
X97936095Y-85413828D01*
X97974190Y-85261447D01*
X97974190Y-85147161D01*
X97936095Y-84994780D01*
X97898000Y-84918590D01*
X97821809Y-84842400D01*
X97707523Y-84804304D01*
X97631333Y-84804304D01*
X97517047Y-84842400D01*
X97478952Y-84880495D01*
D11*
X100076819Y-79511352D02*
X100053009Y-79439923D01*
X100053009Y-79320876D01*
X100076819Y-79273257D01*
X100100628Y-79249447D01*
X100148247Y-79225638D01*
X100195866Y-79225638D01*
X100243485Y-79249447D01*
X100267295Y-79273257D01*
X100291104Y-79320876D01*
X100314914Y-79416114D01*
X100338723Y-79463733D01*
X100362533Y-79487542D01*
X100410152Y-79511352D01*
X100457771Y-79511352D01*
X100505390Y-79487542D01*
X100529200Y-79463733D01*
X100553009Y-79416114D01*
X100553009Y-79297066D01*
X100529200Y-79225638D01*
X100314914Y-79011352D02*
X100314914Y-78844685D01*
X100053009Y-78773257D02*
X100053009Y-79011352D01*
X100553009Y-79011352D01*
X100553009Y-78773257D01*
X100053009Y-78558971D02*
X100553009Y-78558971D01*
X100053009Y-78273257D01*
X100553009Y-78273257D01*
X100076819Y-78058971D02*
X100053009Y-77987542D01*
X100053009Y-77868495D01*
X100076819Y-77820876D01*
X100100628Y-77797066D01*
X100148247Y-77773257D01*
X100195866Y-77773257D01*
X100243485Y-77797066D01*
X100267295Y-77820876D01*
X100291104Y-77868495D01*
X100314914Y-77963733D01*
X100338723Y-78011352D01*
X100362533Y-78035161D01*
X100410152Y-78058971D01*
X100457771Y-78058971D01*
X100505390Y-78035161D01*
X100529200Y-78011352D01*
X100553009Y-77963733D01*
X100553009Y-77844685D01*
X100529200Y-77773257D01*
X100553009Y-77463733D02*
X100553009Y-77368495D01*
X100529200Y-77320876D01*
X100481580Y-77273257D01*
X100386342Y-77249447D01*
X100219676Y-77249447D01*
X100124438Y-77273257D01*
X100076819Y-77320876D01*
X100053009Y-77368495D01*
X100053009Y-77463733D01*
X100076819Y-77511352D01*
X100124438Y-77558971D01*
X100219676Y-77582780D01*
X100386342Y-77582780D01*
X100481580Y-77558971D01*
X100529200Y-77511352D01*
X100553009Y-77463733D01*
X100053009Y-76749447D02*
X100291104Y-76916114D01*
X100053009Y-77035161D02*
X100553009Y-77035161D01*
X100553009Y-76844685D01*
X100529200Y-76797066D01*
X100505390Y-76773257D01*
X100457771Y-76749447D01*
X100386342Y-76749447D01*
X100338723Y-76773257D01*
X100314914Y-76797066D01*
X100291104Y-76844685D01*
X100291104Y-77035161D01*
D10*
X100055962Y-80010000D02*
G75*
G03*
X100055962Y-80010000I-183162J0D01*
G01*
X116413562Y-90017600D02*
G75*
G03*
X116413562Y-90017600I-183162J0D01*
G01*
D12*
X128559657Y-81598114D02*
X127831085Y-81598114D01*
X127745371Y-81555257D01*
X127702514Y-81512400D01*
X127659657Y-81426685D01*
X127659657Y-81255257D01*
X127702514Y-81169542D01*
X127745371Y-81126685D01*
X127831085Y-81083828D01*
X128559657Y-81083828D01*
X127916800Y-80698114D02*
X127916800Y-80269542D01*
X127659657Y-80783828D02*
X128559657Y-80483828D01*
X127659657Y-80183828D01*
X127659657Y-79369542D02*
X128088228Y-79669542D01*
X127659657Y-79883828D02*
X128559657Y-79883828D01*
X128559657Y-79540971D01*
X128516800Y-79455257D01*
X128473942Y-79412400D01*
X128388228Y-79369542D01*
X128259657Y-79369542D01*
X128173942Y-79412400D01*
X128131085Y-79455257D01*
X128088228Y-79540971D01*
X128088228Y-79883828D01*
X128559657Y-79112400D02*
X128559657Y-78598114D01*
X127659657Y-78855257D02*
X128559657Y-78855257D01*
D13*
X107160857Y-78351028D02*
X107360857Y-78065314D01*
X107503714Y-78351028D02*
X107503714Y-77751028D01*
X107275142Y-77751028D01*
X107218000Y-77779600D01*
X107189428Y-77808171D01*
X107160857Y-77865314D01*
X107160857Y-77951028D01*
X107189428Y-78008171D01*
X107218000Y-78036742D01*
X107275142Y-78065314D01*
X107503714Y-78065314D01*
X106675142Y-78322457D02*
X106732285Y-78351028D01*
X106846571Y-78351028D01*
X106903714Y-78322457D01*
X106932285Y-78265314D01*
X106932285Y-78036742D01*
X106903714Y-77979600D01*
X106846571Y-77951028D01*
X106732285Y-77951028D01*
X106675142Y-77979600D01*
X106646571Y-78036742D01*
X106646571Y-78093885D01*
X106932285Y-78151028D01*
X106446571Y-77951028D02*
X106303714Y-78351028D01*
X106160857Y-77951028D01*
X105360857Y-77751028D02*
X105303714Y-77751028D01*
X105246571Y-77779600D01*
X105218000Y-77808171D01*
X105189428Y-77865314D01*
X105160857Y-77979600D01*
X105160857Y-78122457D01*
X105189428Y-78236742D01*
X105218000Y-78293885D01*
X105246571Y-78322457D01*
X105303714Y-78351028D01*
X105360857Y-78351028D01*
X105418000Y-78322457D01*
X105446571Y-78293885D01*
X105475142Y-78236742D01*
X105503714Y-78122457D01*
X105503714Y-77979600D01*
X105475142Y-77865314D01*
X105446571Y-77808171D01*
X105418000Y-77779600D01*
X105360857Y-77751028D01*
X104903714Y-78293885D02*
X104875142Y-78322457D01*
X104903714Y-78351028D01*
X104932285Y-78322457D01*
X104903714Y-78293885D01*
X104903714Y-78351028D01*
X104675142Y-77751028D02*
X104275142Y-77751028D01*
X104532285Y-78351028D01*
X121347608Y-78630400D02*
X121372608Y-78601828D01*
X121419037Y-78516114D01*
X121440466Y-78458971D01*
X121458323Y-78373257D01*
X121469037Y-78230400D01*
X121454751Y-78116114D01*
X121408323Y-77973257D01*
X121369037Y-77887542D01*
X121333323Y-77830400D01*
X121265466Y-77744685D01*
X121233323Y-77716114D01*
X120829751Y-78373257D02*
X120890466Y-78401828D01*
X121004751Y-78401828D01*
X121058323Y-78373257D01*
X121083323Y-78344685D01*
X121104751Y-78287542D01*
X121083323Y-78116114D01*
X121047608Y-78058971D01*
X121015466Y-78030400D01*
X120954751Y-78001828D01*
X120840466Y-78001828D01*
X120786894Y-78030400D01*
X120661894Y-78630400D02*
X120629751Y-78601828D01*
X120561894Y-78516114D01*
X120526180Y-78458971D01*
X120486894Y-78373257D01*
X120440466Y-78230400D01*
X120426180Y-78116114D01*
X120436894Y-77973257D01*
X120454751Y-77887542D01*
X120476180Y-77830400D01*
X120522608Y-77744685D01*
X120547608Y-77716114D01*
X119719037Y-78401828D02*
X119644037Y-77801828D01*
X119497608Y-78230400D01*
X119244037Y-77801828D01*
X119319037Y-78401828D01*
X118776180Y-78401828D02*
X118736894Y-78087542D01*
X118758323Y-78030400D01*
X118811894Y-78001828D01*
X118926180Y-78001828D01*
X118986894Y-78030400D01*
X118772608Y-78373257D02*
X118833323Y-78401828D01*
X118976180Y-78401828D01*
X119029751Y-78373257D01*
X119051180Y-78316114D01*
X119044037Y-78258971D01*
X119008323Y-78201828D01*
X118947608Y-78173257D01*
X118804751Y-78173257D01*
X118744037Y-78144685D01*
X118490466Y-78401828D02*
X118440466Y-78001828D01*
X118454751Y-78116114D02*
X118419037Y-78058971D01*
X118386894Y-78030400D01*
X118326180Y-78001828D01*
X118269037Y-78001828D01*
X118119037Y-78401828D02*
X118044037Y-77801828D01*
X118033323Y-78173257D02*
X117890466Y-78401828D01*
X117840466Y-78001828D02*
X118097608Y-78230400D01*
X117547608Y-78401828D02*
X117601180Y-78373257D01*
X117626180Y-78344685D01*
X117647608Y-78287542D01*
X117626180Y-78116114D01*
X117590466Y-78058971D01*
X117558323Y-78030400D01*
X117497608Y-78001828D01*
X117411894Y-78001828D01*
X117358323Y-78030400D01*
X117333323Y-78058971D01*
X117311894Y-78116114D01*
X117333323Y-78287542D01*
X117369037Y-78344685D01*
X117401180Y-78373257D01*
X117461894Y-78401828D01*
X117547608Y-78401828D01*
X116386894Y-77801828D02*
X116440466Y-78230400D01*
X116479751Y-78316114D01*
X116544037Y-78373257D01*
X116633323Y-78401828D01*
X116690466Y-78401828D01*
X115869037Y-78001828D02*
X115919037Y-78401828D01*
X116126180Y-78001828D02*
X116165466Y-78316114D01*
X116144037Y-78373257D01*
X116090466Y-78401828D01*
X116004751Y-78401828D01*
X115944037Y-78373257D01*
X115911894Y-78344685D01*
X115633323Y-78401828D02*
X115558323Y-77801828D01*
X115376180Y-78401828D02*
X115336894Y-78087542D01*
X115358323Y-78030400D01*
X115411894Y-78001828D01*
X115497608Y-78001828D01*
X115558323Y-78030400D01*
X115590466Y-78058971D01*
X114833323Y-78401828D02*
X114794037Y-78087542D01*
X114815466Y-78030400D01*
X114869037Y-78001828D01*
X114983323Y-78001828D01*
X115044037Y-78030400D01*
X114829751Y-78373257D02*
X114890466Y-78401828D01*
X115033323Y-78401828D01*
X115086894Y-78373257D01*
X115108323Y-78316114D01*
X115101180Y-78258971D01*
X115065466Y-78201828D01*
X115004751Y-78173257D01*
X114861894Y-78173257D01*
X114801180Y-78144685D01*
X114497608Y-78001828D02*
X114547608Y-78401828D01*
X114504751Y-78058971D02*
X114472608Y-78030400D01*
X114411894Y-78001828D01*
X114326180Y-78001828D01*
X114272608Y-78030400D01*
X114251180Y-78087542D01*
X114290466Y-78401828D01*
X113954751Y-78001828D02*
X114004751Y-78401828D01*
X113961894Y-78058971D02*
X113929751Y-78030400D01*
X113869037Y-78001828D01*
X113783323Y-78001828D01*
X113729751Y-78030400D01*
X113708323Y-78087542D01*
X113747608Y-78401828D01*
X113229751Y-78373257D02*
X113290466Y-78401828D01*
X113404751Y-78401828D01*
X113458323Y-78373257D01*
X113479751Y-78316114D01*
X113451180Y-78087542D01*
X113415466Y-78030400D01*
X113354751Y-78001828D01*
X113240466Y-78001828D01*
X113186894Y-78030400D01*
X113165466Y-78087542D01*
X113172608Y-78144685D01*
X113465466Y-78201828D01*
X112451180Y-77858971D02*
X112419037Y-77830400D01*
X112358323Y-77801828D01*
X112215466Y-77801828D01*
X112161894Y-77830400D01*
X112136894Y-77858971D01*
X112115466Y-77916114D01*
X112122608Y-77973257D01*
X112161894Y-78058971D01*
X112547608Y-78401828D01*
X112176180Y-78401828D01*
X111729751Y-77801828D02*
X111672608Y-77801828D01*
X111619037Y-77830400D01*
X111594037Y-77858971D01*
X111572608Y-77916114D01*
X111558323Y-78030400D01*
X111576180Y-78173257D01*
X111619037Y-78287542D01*
X111654751Y-78344685D01*
X111686894Y-78373257D01*
X111747608Y-78401828D01*
X111804751Y-78401828D01*
X111858323Y-78373257D01*
X111883323Y-78344685D01*
X111904751Y-78287542D01*
X111919037Y-78173257D01*
X111901180Y-78030400D01*
X111858323Y-77916114D01*
X111822608Y-77858971D01*
X111790466Y-77830400D01*
X111729751Y-77801828D01*
X111308323Y-77858971D02*
X111276180Y-77830400D01*
X111215466Y-77801828D01*
X111072608Y-77801828D01*
X111019037Y-77830400D01*
X110994037Y-77858971D01*
X110972608Y-77916114D01*
X110979751Y-77973257D01*
X111019037Y-78058971D01*
X111404751Y-78401828D01*
X111033323Y-78401828D01*
X110586894Y-77801828D02*
X110529751Y-77801828D01*
X110476180Y-77830400D01*
X110451180Y-77858971D01*
X110429751Y-77916114D01*
X110415466Y-78030400D01*
X110433323Y-78173257D01*
X110476180Y-78287542D01*
X110511894Y-78344685D01*
X110544037Y-78373257D01*
X110604751Y-78401828D01*
X110661894Y-78401828D01*
X110715466Y-78373257D01*
X110740466Y-78344685D01*
X110761894Y-78287542D01*
X110776180Y-78173257D01*
X110758323Y-78030400D01*
X110715466Y-77916114D01*
X110679751Y-77858971D01*
X110647608Y-77830400D01*
X110586894Y-77801828D01*
D14*
X122063352Y-77211180D02*
X122063352Y-76211180D01*
X121587161Y-77211180D02*
X121587161Y-76211180D01*
X121015733Y-77211180D02*
X121444304Y-76639752D01*
X121015733Y-76211180D02*
X121587161Y-76782609D01*
X120587161Y-76687371D02*
X120253828Y-76687371D01*
X120110971Y-77211180D02*
X120587161Y-77211180D01*
X120587161Y-76211180D01*
X120110971Y-76211180D01*
X119730019Y-76925466D02*
X119253828Y-76925466D01*
X119825257Y-77211180D02*
X119491923Y-76211180D01*
X119158590Y-77211180D01*
X117730019Y-76687371D02*
X118063352Y-76687371D01*
X118063352Y-77211180D02*
X118063352Y-76211180D01*
X117587161Y-76211180D01*
X117301447Y-76544514D02*
X117063352Y-77211180D01*
X116825257Y-76544514D02*
X117063352Y-77211180D01*
X117158590Y-77449276D01*
X117206209Y-77496895D01*
X117301447Y-77544514D01*
X116444304Y-77211180D02*
X116444304Y-76544514D01*
X116444304Y-76734990D02*
X116396685Y-76639752D01*
X116349066Y-76592133D01*
X116253828Y-76544514D01*
X116158590Y-76544514D01*
X115968114Y-76544514D02*
X115587161Y-76544514D01*
X115825257Y-76211180D02*
X115825257Y-77068323D01*
X115777638Y-77163561D01*
X115682400Y-77211180D01*
X115587161Y-77211180D01*
X114825257Y-76544514D02*
X114825257Y-77211180D01*
X115253828Y-76544514D02*
X115253828Y-77068323D01*
X115206209Y-77163561D01*
X115110971Y-77211180D01*
X114968114Y-77211180D01*
X114872876Y-77163561D01*
X114825257Y-77115942D01*
X114349066Y-77211180D02*
X114349066Y-76544514D01*
X114349066Y-76734990D02*
X114301447Y-76639752D01*
X114253828Y-76592133D01*
X114158590Y-76544514D01*
X114063352Y-76544514D01*
X113063352Y-76211180D02*
X112825257Y-77211180D01*
X112634780Y-76496895D01*
X112444304Y-77211180D01*
X112206209Y-76211180D01*
X111825257Y-77211180D02*
X111825257Y-76544514D01*
X111825257Y-76211180D02*
X111872876Y-76258800D01*
X111825257Y-76306419D01*
X111777638Y-76258800D01*
X111825257Y-76211180D01*
X111825257Y-76306419D01*
X111015733Y-76687371D02*
X111349066Y-76687371D01*
X111349066Y-77211180D02*
X111349066Y-76211180D01*
X110872876Y-76211180D01*
X110491923Y-77211180D02*
X110491923Y-76544514D01*
X110491923Y-76211180D02*
X110539542Y-76258800D01*
X110491923Y-76306419D01*
X110444304Y-76258800D01*
X110491923Y-76211180D01*
X110491923Y-76306419D01*
X109253828Y-77211180D02*
X109253828Y-76544514D01*
X109253828Y-76639752D02*
X109206209Y-76592133D01*
X109110971Y-76544514D01*
X108968114Y-76544514D01*
X108872876Y-76592133D01*
X108825257Y-76687371D01*
X108825257Y-77211180D01*
X108825257Y-76687371D02*
X108777638Y-76592133D01*
X108682400Y-76544514D01*
X108539542Y-76544514D01*
X108444304Y-76592133D01*
X108396685Y-76687371D01*
X108396685Y-77211180D01*
X107777638Y-77211180D02*
X107872876Y-77163561D01*
X107920495Y-77115942D01*
X107968114Y-77020704D01*
X107968114Y-76734990D01*
X107920495Y-76639752D01*
X107872876Y-76592133D01*
X107777638Y-76544514D01*
X107634780Y-76544514D01*
X107539542Y-76592133D01*
X107491923Y-76639752D01*
X107444304Y-76734990D01*
X107444304Y-77020704D01*
X107491923Y-77115942D01*
X107539542Y-77163561D01*
X107634780Y-77211180D01*
X107777638Y-77211180D01*
X106587161Y-77211180D02*
X106587161Y-76211180D01*
X106587161Y-77163561D02*
X106682400Y-77211180D01*
X106872876Y-77211180D01*
X106968114Y-77163561D01*
X107015733Y-77115942D01*
X107063352Y-77020704D01*
X107063352Y-76734990D01*
X107015733Y-76639752D01*
X106968114Y-76592133D01*
X106872876Y-76544514D01*
X106682400Y-76544514D01*
X106587161Y-76592133D01*
X105682400Y-76544514D02*
X105682400Y-77211180D01*
X106110971Y-76544514D02*
X106110971Y-77068323D01*
X106063352Y-77163561D01*
X105968114Y-77211180D01*
X105825257Y-77211180D01*
X105730019Y-77163561D01*
X105682400Y-77115942D01*
X105063352Y-77211180D02*
X105158590Y-77163561D01*
X105206209Y-77068323D01*
X105206209Y-76211180D01*
X104301447Y-77163561D02*
X104396685Y-77211180D01*
X104587161Y-77211180D01*
X104682400Y-77163561D01*
X104730019Y-77068323D01*
X104730019Y-76687371D01*
X104682400Y-76592133D01*
X104587161Y-76544514D01*
X104396685Y-76544514D01*
X104301447Y-76592133D01*
X104253828Y-76687371D01*
X104253828Y-76782609D01*
X104730019Y-76877847D01*
D11*
X114049085Y-82306266D02*
X114068133Y-82282457D01*
X114106228Y-82211028D01*
X114125276Y-82163409D01*
X114144323Y-82091980D01*
X114163371Y-81972933D01*
X114163371Y-81877695D01*
X114144323Y-81758647D01*
X114125276Y-81687219D01*
X114106228Y-81639600D01*
X114068133Y-81568171D01*
X114049085Y-81544361D01*
X113839561Y-82115790D02*
X113877657Y-82091980D01*
X113896704Y-82068171D01*
X113915752Y-82020552D01*
X113915752Y-81877695D01*
X113896704Y-81830076D01*
X113877657Y-81806266D01*
X113839561Y-81782457D01*
X113782419Y-81782457D01*
X113744323Y-81806266D01*
X113725276Y-81830076D01*
X113706228Y-81877695D01*
X113706228Y-82020552D01*
X113725276Y-82068171D01*
X113744323Y-82091980D01*
X113782419Y-82115790D01*
X113839561Y-82115790D01*
X113534800Y-82115790D02*
X113534800Y-81782457D01*
X113534800Y-81830076D02*
X113515752Y-81806266D01*
X113477657Y-81782457D01*
X113420514Y-81782457D01*
X113382419Y-81806266D01*
X113363371Y-81853885D01*
X113363371Y-82115790D01*
X113363371Y-81853885D02*
X113344323Y-81806266D01*
X113306228Y-81782457D01*
X113249085Y-81782457D01*
X113210990Y-81806266D01*
X113191942Y-81853885D01*
X113191942Y-82115790D01*
X113001466Y-82115790D02*
X113001466Y-81782457D01*
X113001466Y-81615790D02*
X113020514Y-81639600D01*
X113001466Y-81663409D01*
X112982419Y-81639600D01*
X113001466Y-81615790D01*
X113001466Y-81663409D01*
X112868133Y-81782457D02*
X112715752Y-81782457D01*
X112810990Y-81615790D02*
X112810990Y-82044361D01*
X112791942Y-82091980D01*
X112753847Y-82115790D01*
X112715752Y-82115790D01*
X112620514Y-82306266D02*
X112601466Y-82282457D01*
X112563371Y-82211028D01*
X112544323Y-82163409D01*
X112525276Y-82091980D01*
X112506228Y-81972933D01*
X112506228Y-81877695D01*
X112525276Y-81758647D01*
X112544323Y-81687219D01*
X112563371Y-81639600D01*
X112601466Y-81568171D01*
X112620514Y-81544361D01*
D10*
X97161257Y-86488628D02*
X96789828Y-86488628D01*
X96989828Y-86717200D01*
X96904114Y-86717200D01*
X96846971Y-86745771D01*
X96818400Y-86774342D01*
X96789828Y-86831485D01*
X96789828Y-86974342D01*
X96818400Y-87031485D01*
X96846971Y-87060057D01*
X96904114Y-87088628D01*
X97075542Y-87088628D01*
X97132685Y-87060057D01*
X97161257Y-87031485D01*
X96618400Y-86488628D02*
X96418400Y-87088628D01*
X96218400Y-86488628D01*
X96075542Y-86488628D02*
X95704114Y-86488628D01*
X95904114Y-86717200D01*
X95818400Y-86717200D01*
X95761257Y-86745771D01*
X95732685Y-86774342D01*
X95704114Y-86831485D01*
X95704114Y-86974342D01*
X95732685Y-87031485D01*
X95761257Y-87060057D01*
X95818400Y-87088628D01*
X95989828Y-87088628D01*
X96046971Y-87060057D01*
X96075542Y-87031485D01*
X96926342Y-88549200D02*
X96983485Y-88520628D01*
X97069200Y-88520628D01*
X97154914Y-88549200D01*
X97212057Y-88606342D01*
X97240628Y-88663485D01*
X97269200Y-88777771D01*
X97269200Y-88863485D01*
X97240628Y-88977771D01*
X97212057Y-89034914D01*
X97154914Y-89092057D01*
X97069200Y-89120628D01*
X97012057Y-89120628D01*
X96926342Y-89092057D01*
X96897771Y-89063485D01*
X96897771Y-88863485D01*
X97012057Y-88863485D01*
X96640628Y-89120628D02*
X96640628Y-88520628D01*
X96297771Y-89120628D01*
X96297771Y-88520628D01*
X96012057Y-89120628D02*
X96012057Y-88520628D01*
X95869200Y-88520628D01*
X95783485Y-88549200D01*
X95726342Y-88606342D01*
X95697771Y-88663485D01*
X95669200Y-88777771D01*
X95669200Y-88863485D01*
X95697771Y-88977771D01*
X95726342Y-89034914D01*
X95783485Y-89092057D01*
X95869200Y-89120628D01*
X96012057Y-89120628D01*
X97234285Y-91022457D02*
X97148571Y-91051028D01*
X97005714Y-91051028D01*
X96948571Y-91022457D01*
X96920000Y-90993885D01*
X96891428Y-90936742D01*
X96891428Y-90879600D01*
X96920000Y-90822457D01*
X96948571Y-90793885D01*
X97005714Y-90765314D01*
X97120000Y-90736742D01*
X97177142Y-90708171D01*
X97205714Y-90679600D01*
X97234285Y-90622457D01*
X97234285Y-90565314D01*
X97205714Y-90508171D01*
X97177142Y-90479600D01*
X97120000Y-90451028D01*
X96977142Y-90451028D01*
X96891428Y-90479600D01*
X96291428Y-90993885D02*
X96320000Y-91022457D01*
X96405714Y-91051028D01*
X96462857Y-91051028D01*
X96548571Y-91022457D01*
X96605714Y-90965314D01*
X96634285Y-90908171D01*
X96662857Y-90793885D01*
X96662857Y-90708171D01*
X96634285Y-90593885D01*
X96605714Y-90536742D01*
X96548571Y-90479600D01*
X96462857Y-90451028D01*
X96405714Y-90451028D01*
X96320000Y-90479600D01*
X96291428Y-90508171D01*
X95748571Y-91051028D02*
X96034285Y-91051028D01*
X96034285Y-90451028D01*
X97197771Y-93054457D02*
X97112057Y-93083028D01*
X96969200Y-93083028D01*
X96912057Y-93054457D01*
X96883485Y-93025885D01*
X96854914Y-92968742D01*
X96854914Y-92911600D01*
X96883485Y-92854457D01*
X96912057Y-92825885D01*
X96969200Y-92797314D01*
X97083485Y-92768742D01*
X97140628Y-92740171D01*
X97169200Y-92711600D01*
X97197771Y-92654457D01*
X97197771Y-92597314D01*
X97169200Y-92540171D01*
X97140628Y-92511600D01*
X97083485Y-92483028D01*
X96940628Y-92483028D01*
X96854914Y-92511600D01*
X96597771Y-93083028D02*
X96597771Y-92483028D01*
X96454914Y-92483028D01*
X96369200Y-92511600D01*
X96312057Y-92568742D01*
X96283485Y-92625885D01*
X96254914Y-92740171D01*
X96254914Y-92825885D01*
X96283485Y-92940171D01*
X96312057Y-92997314D01*
X96369200Y-93054457D01*
X96454914Y-93083028D01*
X96597771Y-93083028D01*
X96026342Y-92911600D02*
X95740628Y-92911600D01*
X96083485Y-93083028D02*
X95883485Y-92483028D01*
X95683485Y-93083028D01*
D13*
X122631142Y-80268800D02*
X122688285Y-80240228D01*
X122774000Y-80240228D01*
X122859714Y-80268800D01*
X122916857Y-80325942D01*
X122945428Y-80383085D01*
X122974000Y-80497371D01*
X122974000Y-80583085D01*
X122945428Y-80697371D01*
X122916857Y-80754514D01*
X122859714Y-80811657D01*
X122774000Y-80840228D01*
X122716857Y-80840228D01*
X122631142Y-80811657D01*
X122602571Y-80783085D01*
X122602571Y-80583085D01*
X122716857Y-80583085D01*
X122345428Y-80840228D02*
X122345428Y-80240228D01*
X122002571Y-80840228D01*
X122002571Y-80240228D01*
X121716857Y-80840228D02*
X121716857Y-80240228D01*
X121574000Y-80240228D01*
X121488285Y-80268800D01*
X121431142Y-80325942D01*
X121402571Y-80383085D01*
X121374000Y-80497371D01*
X121374000Y-80583085D01*
X121402571Y-80697371D01*
X121431142Y-80754514D01*
X121488285Y-80811657D01*
X121574000Y-80840228D01*
X121716857Y-80840228D01*
X122758114Y-82821428D02*
X122758114Y-82221428D01*
X122615257Y-82221428D01*
X122529542Y-82250000D01*
X122472400Y-82307142D01*
X122443828Y-82364285D01*
X122415257Y-82478571D01*
X122415257Y-82564285D01*
X122443828Y-82678571D01*
X122472400Y-82735714D01*
X122529542Y-82792857D01*
X122615257Y-82821428D01*
X122758114Y-82821428D01*
X122243828Y-82221428D02*
X121900971Y-82221428D01*
X122072400Y-82821428D02*
X122072400Y-82221428D01*
X121358114Y-82821428D02*
X121558114Y-82535714D01*
X121700971Y-82821428D02*
X121700971Y-82221428D01*
X121472400Y-82221428D01*
X121415257Y-82250000D01*
X121386685Y-82278571D01*
X121358114Y-82335714D01*
X121358114Y-82421428D01*
X121386685Y-82478571D01*
X121415257Y-82507142D01*
X121472400Y-82535714D01*
X121700971Y-82535714D01*
D15*
X122366019Y-84308190D02*
X122199352Y-84808190D01*
X122032685Y-84308190D01*
X121866019Y-84808190D02*
X121866019Y-84308190D01*
X121627923Y-84808190D02*
X121627923Y-84308190D01*
X121342209Y-84808190D01*
X121342209Y-84308190D01*
D13*
X121918400Y-86783828D02*
X122118400Y-86498114D01*
X122261257Y-86783828D02*
X122261257Y-86183828D01*
X122032685Y-86183828D01*
X121975542Y-86212400D01*
X121946971Y-86240971D01*
X121918400Y-86298114D01*
X121918400Y-86383828D01*
X121946971Y-86440971D01*
X121975542Y-86469542D01*
X122032685Y-86498114D01*
X122261257Y-86498114D01*
X121718400Y-86183828D02*
X121318400Y-86783828D01*
X121318400Y-86183828D02*
X121718400Y-86783828D01*
X122173942Y-88165028D02*
X121831085Y-88165028D01*
X122002514Y-88765028D02*
X122002514Y-88165028D01*
X121688228Y-88165028D02*
X121288228Y-88765028D01*
X121288228Y-88165028D02*
X121688228Y-88765028D01*
D15*
X122143009Y-90802590D02*
X122309676Y-90564495D01*
X122428723Y-90802590D02*
X122428723Y-90302590D01*
X122238247Y-90302590D01*
X122190628Y-90326400D01*
X122166819Y-90350209D01*
X122143009Y-90397828D01*
X122143009Y-90469257D01*
X122166819Y-90516876D01*
X122190628Y-90540685D01*
X122238247Y-90564495D01*
X122428723Y-90564495D01*
X122000152Y-90302590D02*
X121714438Y-90302590D01*
X121857295Y-90802590D02*
X121857295Y-90302590D01*
X121571580Y-90778780D02*
X121500152Y-90802590D01*
X121381104Y-90802590D01*
X121333485Y-90778780D01*
X121309676Y-90754971D01*
X121285866Y-90707352D01*
X121285866Y-90659733D01*
X121309676Y-90612114D01*
X121333485Y-90588304D01*
X121381104Y-90564495D01*
X121476342Y-90540685D01*
X121523961Y-90516876D01*
X121547771Y-90493066D01*
X121571580Y-90445447D01*
X121571580Y-90397828D01*
X121547771Y-90350209D01*
X121523961Y-90326400D01*
X121476342Y-90302590D01*
X121357295Y-90302590D01*
X121285866Y-90326400D01*
D10*
X92066228Y-87246590D02*
X92304323Y-87246590D01*
X92304323Y-86746590D01*
X91899561Y-86984685D02*
X91732895Y-86984685D01*
X91661466Y-87246590D02*
X91899561Y-87246590D01*
X91899561Y-86746590D01*
X91661466Y-86746590D01*
X91447180Y-87246590D02*
X91447180Y-86746590D01*
X91328133Y-86746590D01*
X91256704Y-86770400D01*
X91209085Y-86818019D01*
X91185276Y-86865638D01*
X91161466Y-86960876D01*
X91161466Y-87032304D01*
X91185276Y-87127542D01*
X91209085Y-87175161D01*
X91256704Y-87222780D01*
X91328133Y-87246590D01*
X91447180Y-87246590D01*
X93786247Y-85273390D02*
X93476723Y-85273390D01*
X93643390Y-85463866D01*
X93571961Y-85463866D01*
X93524342Y-85487676D01*
X93500533Y-85511485D01*
X93476723Y-85559104D01*
X93476723Y-85678152D01*
X93500533Y-85725771D01*
X93524342Y-85749580D01*
X93571961Y-85773390D01*
X93714819Y-85773390D01*
X93762438Y-85749580D01*
X93786247Y-85725771D01*
X93333866Y-85273390D02*
X93167200Y-85773390D01*
X93000533Y-85273390D01*
X92881485Y-85273390D02*
X92571961Y-85273390D01*
X92738628Y-85463866D01*
X92667200Y-85463866D01*
X92619580Y-85487676D01*
X92595771Y-85511485D01*
X92571961Y-85559104D01*
X92571961Y-85678152D01*
X92595771Y-85725771D01*
X92619580Y-85749580D01*
X92667200Y-85773390D01*
X92810057Y-85773390D01*
X92857676Y-85749580D01*
X92881485Y-85725771D01*
X91973352Y-83722400D02*
X92020971Y-83698590D01*
X92092400Y-83698590D01*
X92163828Y-83722400D01*
X92211447Y-83770019D01*
X92235257Y-83817638D01*
X92259066Y-83912876D01*
X92259066Y-83984304D01*
X92235257Y-84079542D01*
X92211447Y-84127161D01*
X92163828Y-84174780D01*
X92092400Y-84198590D01*
X92044780Y-84198590D01*
X91973352Y-84174780D01*
X91949542Y-84150971D01*
X91949542Y-83984304D01*
X92044780Y-83984304D01*
X91735257Y-84198590D02*
X91735257Y-83698590D01*
X91449542Y-84198590D01*
X91449542Y-83698590D01*
X91211447Y-84198590D02*
X91211447Y-83698590D01*
X91092400Y-83698590D01*
X91020971Y-83722400D01*
X90973352Y-83770019D01*
X90949542Y-83817638D01*
X90925733Y-83912876D01*
X90925733Y-83984304D01*
X90949542Y-84079542D01*
X90973352Y-84127161D01*
X91020971Y-84174780D01*
X91092400Y-84198590D01*
X91211447Y-84198590D01*
D12*
X120954723Y-96628000D02*
X121030914Y-96589904D01*
X121145200Y-96589904D01*
X121259485Y-96628000D01*
X121335676Y-96704190D01*
X121373771Y-96780380D01*
X121411866Y-96932761D01*
X121411866Y-97047047D01*
X121373771Y-97199428D01*
X121335676Y-97275619D01*
X121259485Y-97351809D01*
X121145200Y-97389904D01*
X121069009Y-97389904D01*
X120954723Y-97351809D01*
X120916628Y-97313714D01*
X120916628Y-97047047D01*
X121069009Y-97047047D01*
X120573771Y-97389904D02*
X120573771Y-96589904D01*
X120116628Y-97389904D01*
X120116628Y-96589904D01*
X119735676Y-97389904D02*
X119735676Y-96589904D01*
X119545200Y-96589904D01*
X119430914Y-96628000D01*
X119354723Y-96704190D01*
X119316628Y-96780380D01*
X119278533Y-96932761D01*
X119278533Y-97047047D01*
X119316628Y-97199428D01*
X119354723Y-97275619D01*
X119430914Y-97351809D01*
X119545200Y-97389904D01*
X119735676Y-97389904D01*
X121322952Y-91865504D02*
X120789619Y-91865504D01*
X121132476Y-92665504D01*
X120484857Y-92589314D02*
X120446761Y-92627409D01*
X120484857Y-92665504D01*
X120522952Y-92627409D01*
X120484857Y-92589314D01*
X120484857Y-92665504D01*
X119761047Y-92132171D02*
X119761047Y-92665504D01*
X119951523Y-91827409D02*
X120142000Y-92398838D01*
X119646761Y-92398838D01*
X119456285Y-91865504D02*
X119189619Y-92665504D01*
X118922952Y-91865504D01*
D10*
X103579485Y-87444228D02*
X103579485Y-86844228D01*
X103379485Y-87272800D01*
X103179485Y-86844228D01*
X103179485Y-87444228D01*
X103036628Y-87501371D02*
X102579485Y-87501371D01*
X102093771Y-87444228D02*
X102293771Y-87158514D01*
X102436628Y-87444228D02*
X102436628Y-86844228D01*
X102208057Y-86844228D01*
X102150914Y-86872800D01*
X102122342Y-86901371D01*
X102093771Y-86958514D01*
X102093771Y-87044228D01*
X102122342Y-87101371D01*
X102150914Y-87129942D01*
X102208057Y-87158514D01*
X102436628Y-87158514D01*
X101893771Y-86844228D02*
X101493771Y-87444228D01*
X101493771Y-86844228D02*
X101893771Y-87444228D01*
X103558857Y-89527028D02*
X103558857Y-88927028D01*
X103358857Y-89355600D01*
X103158857Y-88927028D01*
X103158857Y-89527028D01*
X103016000Y-89584171D02*
X102558857Y-89584171D01*
X102501714Y-88927028D02*
X102158857Y-88927028D01*
X102330285Y-89527028D02*
X102330285Y-88927028D01*
X102016000Y-88927028D02*
X101616000Y-89527028D01*
X101616000Y-88927028D02*
X102016000Y-89527028D01*
X103255714Y-93540228D02*
X103541428Y-93540228D01*
X103541428Y-92940228D01*
X103055714Y-93225942D02*
X102855714Y-93225942D01*
X102770000Y-93540228D02*
X103055714Y-93540228D01*
X103055714Y-92940228D01*
X102770000Y-92940228D01*
X102512857Y-93540228D02*
X102512857Y-92940228D01*
X102370000Y-92940228D01*
X102284285Y-92968800D01*
X102227142Y-93025942D01*
X102198571Y-93083085D01*
X102170000Y-93197371D01*
X102170000Y-93283085D01*
X102198571Y-93397371D01*
X102227142Y-93454514D01*
X102284285Y-93511657D01*
X102370000Y-93540228D01*
X102512857Y-93540228D01*
X103349257Y-91193942D02*
X103263542Y-91222514D01*
X103234971Y-91251085D01*
X103206400Y-91308228D01*
X103206400Y-91393942D01*
X103234971Y-91451085D01*
X103263542Y-91479657D01*
X103320685Y-91508228D01*
X103549257Y-91508228D01*
X103549257Y-90908228D01*
X103349257Y-90908228D01*
X103292114Y-90936800D01*
X103263542Y-90965371D01*
X103234971Y-91022514D01*
X103234971Y-91079657D01*
X103263542Y-91136800D01*
X103292114Y-91165371D01*
X103349257Y-91193942D01*
X103549257Y-91193942D01*
X103034971Y-90908228D02*
X102692114Y-90908228D01*
X102863542Y-91508228D02*
X102863542Y-90908228D01*
X102492114Y-91508228D02*
X102492114Y-90908228D01*
X102149257Y-91508228D01*
X102149257Y-90908228D01*
X102006400Y-91565371D02*
X101549257Y-91565371D01*
X101406400Y-91508228D02*
X101406400Y-90908228D01*
X101263542Y-90908228D01*
X101177828Y-90936800D01*
X101120685Y-90993942D01*
X101092114Y-91051085D01*
X101063542Y-91165371D01*
X101063542Y-91251085D01*
X101092114Y-91365371D01*
X101120685Y-91422514D01*
X101177828Y-91479657D01*
X101263542Y-91508228D01*
X101406400Y-91508228D01*
X100806400Y-91508228D02*
X100806400Y-90908228D01*
X100463542Y-91508228D01*
X100463542Y-90908228D01*
X103298457Y-85199542D02*
X103212742Y-85228114D01*
X103184171Y-85256685D01*
X103155600Y-85313828D01*
X103155600Y-85399542D01*
X103184171Y-85456685D01*
X103212742Y-85485257D01*
X103269885Y-85513828D01*
X103498457Y-85513828D01*
X103498457Y-84913828D01*
X103298457Y-84913828D01*
X103241314Y-84942400D01*
X103212742Y-84970971D01*
X103184171Y-85028114D01*
X103184171Y-85085257D01*
X103212742Y-85142400D01*
X103241314Y-85170971D01*
X103298457Y-85199542D01*
X103498457Y-85199542D01*
X102984171Y-84913828D02*
X102641314Y-84913828D01*
X102812742Y-85513828D02*
X102812742Y-84913828D01*
X102441314Y-85513828D02*
X102441314Y-84913828D01*
X102098457Y-85513828D01*
X102098457Y-84913828D01*
X101955600Y-85570971D02*
X101498457Y-85570971D01*
X101355600Y-84913828D02*
X101355600Y-85399542D01*
X101327028Y-85456685D01*
X101298457Y-85485257D01*
X101241314Y-85513828D01*
X101127028Y-85513828D01*
X101069885Y-85485257D01*
X101041314Y-85456685D01*
X101012742Y-85399542D01*
X101012742Y-84913828D01*
X100727028Y-85513828D02*
X100727028Y-84913828D01*
X100498457Y-84913828D01*
X100441314Y-84942400D01*
X100412742Y-84970971D01*
X100384171Y-85028114D01*
X100384171Y-85113828D01*
X100412742Y-85170971D01*
X100441314Y-85199542D01*
X100498457Y-85228114D01*
X100727028Y-85228114D01*
X103511257Y-82881828D02*
X103139828Y-82881828D01*
X103339828Y-83110400D01*
X103254114Y-83110400D01*
X103196971Y-83138971D01*
X103168400Y-83167542D01*
X103139828Y-83224685D01*
X103139828Y-83367542D01*
X103168400Y-83424685D01*
X103196971Y-83453257D01*
X103254114Y-83481828D01*
X103425542Y-83481828D01*
X103482685Y-83453257D01*
X103511257Y-83424685D01*
X102968400Y-82881828D02*
X102768400Y-83481828D01*
X102568400Y-82881828D01*
X102425542Y-82881828D02*
X102054114Y-82881828D01*
X102254114Y-83110400D01*
X102168400Y-83110400D01*
X102111257Y-83138971D01*
X102082685Y-83167542D01*
X102054114Y-83224685D01*
X102054114Y-83367542D01*
X102082685Y-83424685D01*
X102111257Y-83453257D01*
X102168400Y-83481828D01*
X102339828Y-83481828D01*
X102396971Y-83453257D01*
X102425542Y-83424685D01*
X103174742Y-80929200D02*
X103231885Y-80900628D01*
X103317600Y-80900628D01*
X103403314Y-80929200D01*
X103460457Y-80986342D01*
X103489028Y-81043485D01*
X103517600Y-81157771D01*
X103517600Y-81243485D01*
X103489028Y-81357771D01*
X103460457Y-81414914D01*
X103403314Y-81472057D01*
X103317600Y-81500628D01*
X103260457Y-81500628D01*
X103174742Y-81472057D01*
X103146171Y-81443485D01*
X103146171Y-81243485D01*
X103260457Y-81243485D01*
X102889028Y-81500628D02*
X102889028Y-80900628D01*
X102546171Y-81500628D01*
X102546171Y-80900628D01*
X102260457Y-81500628D02*
X102260457Y-80900628D01*
X102117600Y-80900628D01*
X102031885Y-80929200D01*
X101974742Y-80986342D01*
X101946171Y-81043485D01*
X101917600Y-81157771D01*
X101917600Y-81243485D01*
X101946171Y-81357771D01*
X101974742Y-81414914D01*
X102031885Y-81472057D01*
X102117600Y-81500628D01*
X102260457Y-81500628D01*
D13*
X131775123Y-96335904D02*
X131317980Y-96335904D01*
X131546552Y-97135904D02*
X131546552Y-96335904D01*
X131127504Y-96335904D02*
X130594171Y-97135904D01*
X130594171Y-96335904D02*
X131127504Y-97135904D01*
X134213523Y-96374000D02*
X134289714Y-96335904D01*
X134404000Y-96335904D01*
X134518285Y-96374000D01*
X134594476Y-96450190D01*
X134632571Y-96526380D01*
X134670666Y-96678761D01*
X134670666Y-96793047D01*
X134632571Y-96945428D01*
X134594476Y-97021619D01*
X134518285Y-97097809D01*
X134404000Y-97135904D01*
X134327809Y-97135904D01*
X134213523Y-97097809D01*
X134175428Y-97059714D01*
X134175428Y-96793047D01*
X134327809Y-96793047D01*
X133832571Y-97135904D02*
X133832571Y-96335904D01*
X133375428Y-97135904D01*
X133375428Y-96335904D01*
X132994476Y-97135904D02*
X132994476Y-96335904D01*
X132804000Y-96335904D01*
X132689714Y-96374000D01*
X132613523Y-96450190D01*
X132575428Y-96526380D01*
X132537333Y-96678761D01*
X132537333Y-96793047D01*
X132575428Y-96945428D01*
X132613523Y-97021619D01*
X132689714Y-97097809D01*
X132804000Y-97135904D01*
X132994476Y-97135904D01*
X132244952Y-91459104D02*
X131711619Y-91459104D01*
X132054476Y-92259104D01*
X131406857Y-92182914D02*
X131368761Y-92221009D01*
X131406857Y-92259104D01*
X131444952Y-92221009D01*
X131406857Y-92182914D01*
X131406857Y-92259104D01*
X130683047Y-91725771D02*
X130683047Y-92259104D01*
X130873523Y-91421009D02*
X131064000Y-91992438D01*
X130568761Y-91992438D01*
X130378285Y-91459104D02*
X130111619Y-92259104D01*
X129844952Y-91459104D01*
X133991333Y-92259104D02*
X134258000Y-91878152D01*
X134448476Y-92259104D02*
X134448476Y-91459104D01*
X134143714Y-91459104D01*
X134067523Y-91497200D01*
X134029428Y-91535295D01*
X133991333Y-91611485D01*
X133991333Y-91725771D01*
X134029428Y-91801961D01*
X134067523Y-91840057D01*
X134143714Y-91878152D01*
X134448476Y-91878152D01*
X133724666Y-91459104D02*
X133191333Y-92259104D01*
X133191333Y-91459104D02*
X133724666Y-92259104D01*
D10*
%TO.C,U3*%
X99908000Y-78333600D02*
X99908000Y-76833600D01*
X96688000Y-79833600D02*
X96688000Y-76833600D01*
%TO.C,C1*%
X117753200Y-94734748D02*
X117753200Y-95257252D01*
X116333200Y-94734748D02*
X116333200Y-95257252D01*
%TO.C,R17*%
X106068400Y-82001579D02*
X106068400Y-81676021D01*
X107088400Y-82001579D02*
X107088400Y-81676021D01*
%TO.C,C8*%
X108663200Y-86137933D02*
X108663200Y-86480467D01*
X107643200Y-86137933D02*
X107643200Y-86480467D01*
%TO.C,C3*%
X108098000Y-90722036D02*
X108098000Y-91926164D01*
X106278000Y-90722036D02*
X106278000Y-91926164D01*
%TO.C,F1*%
X123493600Y-94683948D02*
X123493600Y-95206452D01*
X122073600Y-94683948D02*
X122073600Y-95206452D01*
%TO.C,D2*%
X118947200Y-89556800D02*
X118947200Y-84156800D01*
X115647200Y-89556800D02*
X115647200Y-84156800D01*
X118947200Y-89556800D02*
X115647200Y-89556800D01*
%TO.C,C5*%
X95298800Y-78708067D02*
X95298800Y-78365533D01*
X96318800Y-78708067D02*
X96318800Y-78365533D01*
%TO.C,C2*%
X94151267Y-89308400D02*
X93808733Y-89308400D01*
X94151267Y-88288400D02*
X93808733Y-88288400D01*
%TO.C,R8*%
X101813579Y-88698800D02*
X101488021Y-88698800D01*
X101813579Y-87678800D02*
X101488021Y-87678800D01*
%TO.C,SW1*%
X122419600Y-84838800D02*
X121969600Y-84838800D01*
X121969600Y-91538800D02*
X122419600Y-91538800D01*
X121969600Y-84838800D02*
X121969600Y-91538800D01*
X123719600Y-91538800D02*
X126419600Y-91538800D01*
X126419600Y-84838800D02*
X123719600Y-84838800D01*
X128169600Y-91538800D02*
X127769600Y-91538800D01*
X128169600Y-84838800D02*
X128169600Y-91538800D01*
X127719600Y-84838800D02*
X128169600Y-84838800D01*
%TO.C,R6*%
X98968779Y-83771200D02*
X98643221Y-83771200D01*
X98968779Y-82751200D02*
X98643221Y-82751200D01*
%TO.C,R16*%
X113844800Y-81726821D02*
X113844800Y-82052379D01*
X112824800Y-81726821D02*
X112824800Y-82052379D01*
%TO.C,R15*%
X114298000Y-82052379D02*
X114298000Y-81726821D01*
X115318000Y-82052379D02*
X115318000Y-81726821D01*
%TO.C,J3*%
X126898400Y-78790800D02*
X126898400Y-78155800D01*
X126898400Y-78155800D02*
X126263400Y-78155800D01*
%TO.C,R14*%
X114298000Y-85455979D02*
X114298000Y-85130421D01*
X115318000Y-85455979D02*
X115318000Y-85130421D01*
%TO.C,R13*%
X94193579Y-90832400D02*
X93868021Y-90832400D01*
X94193579Y-89812400D02*
X93868021Y-89812400D01*
%TO.C,R12*%
X92263179Y-80723200D02*
X91937621Y-80723200D01*
X92263179Y-79703200D02*
X91937621Y-79703200D01*
%TO.C,R11*%
X93715621Y-93368400D02*
X94041179Y-93368400D01*
X93715621Y-94388400D02*
X94041179Y-94388400D01*
%TO.C,R10*%
X94845600Y-78374021D02*
X94845600Y-78699579D01*
X93825600Y-78374021D02*
X93825600Y-78699579D01*
%TO.C,R9*%
X94015879Y-95887000D02*
X93690321Y-95887000D01*
X94015879Y-94867000D02*
X93690321Y-94867000D01*
%TO.C,R7*%
X125384779Y-93931200D02*
X125059221Y-93931200D01*
X125384779Y-92911200D02*
X125059221Y-92911200D01*
%TO.C,R5*%
X106119200Y-86370379D02*
X106119200Y-86044821D01*
X107139200Y-86370379D02*
X107139200Y-86044821D01*
%TO.C,R4*%
X98287621Y-81278000D02*
X98613179Y-81278000D01*
X98287621Y-82298000D02*
X98613179Y-82298000D01*
%TO.C,R3*%
X101615121Y-83716400D02*
X101940679Y-83716400D01*
X101615121Y-84736400D02*
X101940679Y-84736400D01*
%TO.C,R2*%
X109167200Y-86421179D02*
X109167200Y-86095621D01*
X110187200Y-86421179D02*
X110187200Y-86095621D01*
%TO.C,R1*%
X112371600Y-81726821D02*
X112371600Y-82052379D01*
X111351600Y-81726821D02*
X111351600Y-82052379D01*
%TO.C,C7*%
X93998867Y-97385600D02*
X93656333Y-97385600D01*
X93998867Y-96365600D02*
X93656333Y-96365600D01*
%TO.C,C6*%
X92576467Y-76710000D02*
X92233933Y-76710000D01*
X92576467Y-75690000D02*
X92233933Y-75690000D01*
%TO.C,U1*%
X108502400Y-89054500D02*
X108502400Y-95064500D01*
X115322400Y-91304500D02*
X115322400Y-95064500D01*
X108502400Y-95064500D02*
X109762400Y-95064500D01*
X115322400Y-95064500D02*
X114062400Y-95064500D01*
%TO.C,Q2*%
X113797200Y-87018400D02*
X113797200Y-85558400D01*
X110637200Y-87018400D02*
X110637200Y-84858400D01*
X110637200Y-87018400D02*
X111567200Y-87018400D01*
X113797200Y-87018400D02*
X112867200Y-87018400D01*
%TO.C,Q1*%
X108460000Y-83825200D02*
X109920000Y-83825200D01*
X108460000Y-80665200D02*
X110620000Y-80665200D01*
X108460000Y-80665200D02*
X108460000Y-81595200D01*
X108460000Y-83825200D02*
X108460000Y-82895200D01*
%TO.C,U3*%
D13*
X101295619Y-79095504D02*
X100486095Y-79095504D01*
X100390857Y-79047885D01*
X100343238Y-79000266D01*
X100295619Y-78905028D01*
X100295619Y-78714552D01*
X100343238Y-78619314D01*
X100390857Y-78571695D01*
X100486095Y-78524076D01*
X101295619Y-78524076D01*
X101295619Y-78143123D02*
X101295619Y-77524076D01*
X100914666Y-77857409D01*
X100914666Y-77714552D01*
X100867047Y-77619314D01*
X100819428Y-77571695D01*
X100724190Y-77524076D01*
X100486095Y-77524076D01*
X100390857Y-77571695D01*
X100343238Y-77619314D01*
X100295619Y-77714552D01*
X100295619Y-78000266D01*
X100343238Y-78095504D01*
X100390857Y-78143123D01*
%TO.C,F1*%
X123050266Y-96970857D02*
X123316933Y-96970857D01*
X123316933Y-97389904D02*
X123316933Y-96589904D01*
X122935980Y-96589904D01*
X122212171Y-97389904D02*
X122669314Y-97389904D01*
X122440742Y-97389904D02*
X122440742Y-96589904D01*
X122516933Y-96704190D01*
X122593123Y-96780380D01*
X122669314Y-96818476D01*
X122920114Y-93133828D02*
X123262971Y-93133828D01*
X123091542Y-93133828D02*
X123091542Y-92533828D01*
X123148685Y-92619542D01*
X123205828Y-92676685D01*
X123262971Y-92705257D01*
X122691542Y-92962400D02*
X122405828Y-92962400D01*
X122748685Y-93133828D02*
X122548685Y-92533828D01*
X122348685Y-93133828D01*
%TO.C,J8*%
X126504552Y-97440704D02*
X126504552Y-96640704D01*
X125971219Y-96640704D02*
X125818838Y-96640704D01*
X125742647Y-96678800D01*
X125666457Y-96754990D01*
X125628361Y-96907371D01*
X125628361Y-97174038D01*
X125666457Y-97326419D01*
X125742647Y-97402609D01*
X125818838Y-97440704D01*
X125971219Y-97440704D01*
X126047409Y-97402609D01*
X126123600Y-97326419D01*
X126161695Y-97174038D01*
X126161695Y-96907371D01*
X126123600Y-96754990D01*
X126047409Y-96678800D01*
X125971219Y-96640704D01*
X124866457Y-97440704D02*
X125323600Y-97440704D01*
X125095028Y-97440704D02*
X125095028Y-96640704D01*
X125171219Y-96754990D01*
X125247409Y-96831180D01*
X125323600Y-96869276D01*
X124142647Y-96640704D02*
X124523600Y-96640704D01*
X124561695Y-97021657D01*
X124523600Y-96983561D01*
X124447409Y-96945466D01*
X124256933Y-96945466D01*
X124180742Y-96983561D01*
X124142647Y-97021657D01*
X124104552Y-97097847D01*
X124104552Y-97288323D01*
X124142647Y-97364514D01*
X124180742Y-97402609D01*
X124256933Y-97440704D01*
X124447409Y-97440704D01*
X124523600Y-97402609D01*
X124561695Y-97364514D01*
%TO.C,SW1*%
X125617219Y-84526380D02*
X125950552Y-84050190D01*
X126188647Y-84526380D02*
X126188647Y-83526380D01*
X125807695Y-83526380D01*
X125712457Y-83574000D01*
X125664838Y-83621619D01*
X125617219Y-83716857D01*
X125617219Y-83859714D01*
X125664838Y-83954952D01*
X125712457Y-84002571D01*
X125807695Y-84050190D01*
X126188647Y-84050190D01*
X125236266Y-84478761D02*
X125093409Y-84526380D01*
X124855314Y-84526380D01*
X124760076Y-84478761D01*
X124712457Y-84431142D01*
X124664838Y-84335904D01*
X124664838Y-84240666D01*
X124712457Y-84145428D01*
X124760076Y-84097809D01*
X124855314Y-84050190D01*
X125045790Y-84002571D01*
X125141028Y-83954952D01*
X125188647Y-83907333D01*
X125236266Y-83812095D01*
X125236266Y-83716857D01*
X125188647Y-83621619D01*
X125141028Y-83574000D01*
X125045790Y-83526380D01*
X124807695Y-83526380D01*
X124664838Y-83574000D01*
X124379123Y-83526380D02*
X123807695Y-83526380D01*
X124093409Y-84526380D02*
X124093409Y-83526380D01*
%TO.C,R16*%
D11*
X113720514Y-80586228D02*
X113920514Y-80300514D01*
X114063371Y-80586228D02*
X114063371Y-79986228D01*
X113834800Y-79986228D01*
X113777657Y-80014800D01*
X113749085Y-80043371D01*
X113720514Y-80100514D01*
X113720514Y-80186228D01*
X113749085Y-80243371D01*
X113777657Y-80271942D01*
X113834800Y-80300514D01*
X114063371Y-80300514D01*
X113149085Y-80586228D02*
X113491942Y-80586228D01*
X113320514Y-80586228D02*
X113320514Y-79986228D01*
X113377657Y-80071942D01*
X113434800Y-80129085D01*
X113491942Y-80157657D01*
X112634800Y-79986228D02*
X112749085Y-79986228D01*
X112806228Y-80014800D01*
X112834800Y-80043371D01*
X112891942Y-80129085D01*
X112920514Y-80243371D01*
X112920514Y-80471942D01*
X112891942Y-80529085D01*
X112863371Y-80557657D01*
X112806228Y-80586228D01*
X112691942Y-80586228D01*
X112634800Y-80557657D01*
X112606228Y-80529085D01*
X112577657Y-80471942D01*
X112577657Y-80329085D01*
X112606228Y-80271942D01*
X112634800Y-80243371D01*
X112691942Y-80214800D01*
X112806228Y-80214800D01*
X112863371Y-80243371D01*
X112891942Y-80271942D01*
X112920514Y-80329085D01*
%TO.C,R15*%
X115846990Y-81618971D02*
X115608895Y-81452304D01*
X115846990Y-81333257D02*
X115346990Y-81333257D01*
X115346990Y-81523733D01*
X115370800Y-81571352D01*
X115394609Y-81595161D01*
X115442228Y-81618971D01*
X115513657Y-81618971D01*
X115561276Y-81595161D01*
X115585085Y-81571352D01*
X115608895Y-81523733D01*
X115608895Y-81333257D01*
X115846990Y-82095161D02*
X115846990Y-81809447D01*
X115846990Y-81952304D02*
X115346990Y-81952304D01*
X115418419Y-81904685D01*
X115466038Y-81857066D01*
X115489847Y-81809447D01*
X115346990Y-82547542D02*
X115346990Y-82309447D01*
X115585085Y-82285638D01*
X115561276Y-82309447D01*
X115537466Y-82357066D01*
X115537466Y-82476114D01*
X115561276Y-82523733D01*
X115585085Y-82547542D01*
X115632704Y-82571352D01*
X115751752Y-82571352D01*
X115799371Y-82547542D01*
X115823180Y-82523733D01*
X115846990Y-82476114D01*
X115846990Y-82357066D01*
X115823180Y-82309447D01*
X115799371Y-82285638D01*
%TD*%
M02*
