%TF.GenerationSoftware,KiCad,Pcbnew,(5.1.6-0-10_14)*%
%TF.CreationDate,2020-10-08T00:08:50+03:00*%
%TF.ProjectId,ikea-fyrtur,696b6561-2d66-4797-9274-75722e6b6963,rev?*%
%TF.SameCoordinates,Original*%
%TF.FileFunction,Copper,L1,Top*%
%TF.FilePolarity,Positive*%
%FSLAX46Y46*%
G04 Gerber Fmt 4.6, Leading zero omitted, Abs format (unit mm)*
G04 Created by KiCad (PCBNEW (5.1.6-0-10_14)) date 2020-10-08 00:08:50*
%MOMM*%
%LPD*%
G01*
G04 APERTURE LIST*
%TA.AperFunction,WasherPad*%
%ADD10C,0.750000*%
%TD*%
%TA.AperFunction,SMDPad,CuDef*%
%ADD11R,1.050000X1.600000*%
%TD*%
%TA.AperFunction,ComponentPad*%
%ADD12R,1.500000X1.100000*%
%TD*%
%TA.AperFunction,ComponentPad*%
%ADD13C,1.800000*%
%TD*%
%TA.AperFunction,ComponentPad*%
%ADD14R,1.350000X1.350000*%
%TD*%
%TA.AperFunction,ComponentPad*%
%ADD15O,1.350000X1.350000*%
%TD*%
%TA.AperFunction,SMDPad,CuDef*%
%ADD16R,2.500000X1.000000*%
%TD*%
%TA.AperFunction,SMDPad,CuDef*%
%ADD17R,1.000000X1.800000*%
%TD*%
%TA.AperFunction,ViaPad*%
%ADD18C,0.800000*%
%TD*%
%TA.AperFunction,Conductor*%
%ADD19C,0.250000*%
%TD*%
%TA.AperFunction,Conductor*%
%ADD20C,0.600000*%
%TD*%
%TA.AperFunction,Conductor*%
%ADD21C,0.300000*%
%TD*%
%TA.AperFunction,Conductor*%
%ADD22C,0.400000*%
%TD*%
%TA.AperFunction,Conductor*%
%ADD23C,1.000000*%
%TD*%
%TA.AperFunction,Conductor*%
%ADD24C,1.200000*%
%TD*%
%TA.AperFunction,Conductor*%
%ADD25C,0.800000*%
%TD*%
%TA.AperFunction,Conductor*%
%ADD26C,0.200000*%
%TD*%
%TA.AperFunction,Conductor*%
%ADD27C,0.500000*%
%TD*%
G04 APERTURE END LIST*
D10*
%TO.P,SW4,*%
%TO.N,*%
X90890500Y-78295500D03*
X92646500Y-78295500D03*
D11*
%TO.P,SW4,1*%
%TO.N,GND*%
X91122500Y-76390500D03*
X91122500Y-80200500D03*
%TO.P,SW4,2*%
%TO.N,Net-(R10-Pad2)*%
X92583000Y-80200500D03*
X92583000Y-76390500D03*
%TD*%
D10*
%TO.P,SW3,*%
%TO.N,*%
X90890500Y-92329000D03*
X92646500Y-92329000D03*
D11*
%TO.P,SW3,1*%
%TO.N,GND*%
X91122500Y-90424000D03*
X91122500Y-94234000D03*
%TO.P,SW3,2*%
%TO.N,Net-(R11-Pad1)*%
X92583000Y-94234000D03*
X92583000Y-90424000D03*
%TD*%
D12*
%TO.P,J2,1*%
%TO.N,GND*%
X133794500Y-95250000D03*
%TO.P,J2,3*%
%TO.N,RXD2*%
X133794500Y-93091000D03*
%TO.P,J2,2*%
%TO.N,TXD2*%
X131254500Y-95250000D03*
%TO.P,J2,4*%
%TO.N,+7.5V*%
X131254500Y-93091000D03*
%TD*%
%TO.P,D1,4*%
%TO.N,Net-(D1-Pad4)*%
%TA.AperFunction,ComponentPad*%
G36*
G01*
X94495200Y-81294400D02*
X95395200Y-81294400D01*
G75*
G02*
X95845200Y-81744400I0J-450000D01*
G01*
X95845200Y-82644400D01*
G75*
G02*
X95395200Y-83094400I-450000J0D01*
G01*
X94495200Y-83094400D01*
G75*
G02*
X94045200Y-82644400I0J450000D01*
G01*
X94045200Y-81744400D01*
G75*
G02*
X94495200Y-81294400I450000J0D01*
G01*
G37*
%TD.AperFunction*%
D13*
%TO.P,D1,3*%
%TO.N,GND*%
X93421200Y-83972400D03*
%TO.P,D1,2*%
%TO.N,+3V3*%
X94945200Y-85496400D03*
%TO.P,D1,1*%
%TO.N,Net-(D1-Pad1)*%
X93421200Y-87020400D03*
%TD*%
D14*
%TO.P,J8,1*%
%TO.N,GPIO15*%
X125222000Y-95656400D03*
%TD*%
D15*
%TO.P,J6,4*%
%TO.N,SDA*%
X98348800Y-92766400D03*
%TO.P,J6,3*%
%TO.N,SCL*%
X98348800Y-90766400D03*
%TO.P,J6,2*%
%TO.N,GND*%
X98348800Y-88766400D03*
D14*
%TO.P,J6,1*%
%TO.N,+3V3*%
X98348800Y-86766400D03*
%TD*%
D15*
%TO.P,J5,2*%
%TO.N,GND*%
X120345200Y-95522800D03*
D14*
%TO.P,J5,1*%
%TO.N,EXT_V*%
X120345200Y-93522800D03*
%TD*%
D15*
%TO.P,J4,6*%
%TO.N,RTS*%
X120345200Y-90518000D03*
%TO.P,J4,5*%
%TO.N,TXD0*%
X120345200Y-88518000D03*
%TO.P,J4,4*%
%TO.N,RXD0*%
X120345200Y-86518000D03*
%TO.P,J4,3*%
%TO.N,VIN*%
X120345200Y-84518000D03*
%TO.P,J4,2*%
%TO.N,CTS_DTR*%
X120345200Y-82518000D03*
D14*
%TO.P,J4,1*%
%TO.N,GND*%
X120345200Y-80518000D03*
%TD*%
%TO.P,C4,2*%
%TO.N,GND*%
%TA.AperFunction,SMDPad,CuDef*%
G36*
G01*
X97400100Y-96412800D02*
X97875100Y-96412800D01*
G75*
G02*
X98112600Y-96650300I0J-237500D01*
G01*
X98112600Y-97225300D01*
G75*
G02*
X97875100Y-97462800I-237500J0D01*
G01*
X97400100Y-97462800D01*
G75*
G02*
X97162600Y-97225300I0J237500D01*
G01*
X97162600Y-96650300D01*
G75*
G02*
X97400100Y-96412800I237500J0D01*
G01*
G37*
%TD.AperFunction*%
%TO.P,C4,1*%
%TO.N,+3V3*%
%TA.AperFunction,SMDPad,CuDef*%
G36*
G01*
X97400100Y-94662800D02*
X97875100Y-94662800D01*
G75*
G02*
X98112600Y-94900300I0J-237500D01*
G01*
X98112600Y-95475300D01*
G75*
G02*
X97875100Y-95712800I-237500J0D01*
G01*
X97400100Y-95712800D01*
G75*
G02*
X97162600Y-95475300I0J237500D01*
G01*
X97162600Y-94900300D01*
G75*
G02*
X97400100Y-94662800I237500J0D01*
G01*
G37*
%TD.AperFunction*%
%TD*%
D15*
%TO.P,J1,7*%
%TO.N,LED*%
X104749600Y-93178400D03*
%TO.P,J1,6*%
%TO.N,GPIO0_BTN_DOWN*%
X104749600Y-91178400D03*
%TO.P,J1,5*%
%TO.N,TXD2*%
X104749600Y-89178400D03*
%TO.P,J1,4*%
%TO.N,RXD2*%
X104749600Y-87178400D03*
%TO.P,J1,3*%
%TO.N,BTN_UP*%
X104749600Y-85178400D03*
%TO.P,J1,2*%
%TO.N,+3V3*%
X104749600Y-83178400D03*
D14*
%TO.P,J1,1*%
%TO.N,GND*%
X104749600Y-81178400D03*
%TD*%
D16*
%TO.P,U2,22*%
%TO.N,TXD0*%
X116921600Y-80980400D03*
%TO.P,U2,21*%
%TO.N,Net-(R14-Pad2)*%
X116921600Y-82980400D03*
%TO.P,U2,20*%
%TO.N,SCL*%
X116921600Y-84980400D03*
%TO.P,U2,19*%
%TO.N,RXD2*%
X116921600Y-86980400D03*
%TO.P,U2,18*%
%TO.N,GPIO0_BTN_DOWN*%
X116921600Y-88980400D03*
%TO.P,U2,17*%
%TO.N,TXD2*%
X116921600Y-90980400D03*
%TO.P,U2,16*%
%TO.N,GPIO15*%
X116921600Y-92980400D03*
%TO.P,U2,15*%
%TO.N,GND*%
X116921600Y-94980400D03*
D17*
%TO.P,U2,14*%
%TO.N,Net-(U2-Pad14)*%
X114321600Y-96480400D03*
%TO.P,U2,13*%
%TO.N,Net-(U2-Pad13)*%
X112321600Y-96480400D03*
%TO.P,U2,12*%
%TO.N,Net-(U2-Pad12)*%
X110321600Y-96480400D03*
%TO.P,U2,11*%
%TO.N,Net-(U2-Pad11)*%
X108321600Y-96480400D03*
%TO.P,U2,10*%
%TO.N,Net-(U2-Pad10)*%
X106321600Y-96480400D03*
%TO.P,U2,9*%
%TO.N,Net-(U2-Pad9)*%
X104321600Y-96480400D03*
D16*
%TO.P,U2,8*%
%TO.N,+3V3*%
X101721600Y-94980400D03*
%TO.P,U2,7*%
%TO.N,SDA*%
X101721600Y-92980400D03*
%TO.P,U2,6*%
%TO.N,LED*%
X101721600Y-90980400D03*
%TO.P,U2,5*%
%TO.N,BTN_UP*%
X101721600Y-88980400D03*
%TO.P,U2,4*%
%TO.N,Net-(U2-Pad4)*%
X101721600Y-86980400D03*
%TO.P,U2,3*%
%TO.N,EN*%
X101721600Y-84980400D03*
%TO.P,U2,2*%
%TO.N,Net-(U2-Pad2)*%
X101721600Y-82980400D03*
%TO.P,U2,1*%
%TO.N,RST*%
X101721600Y-80980400D03*
%TD*%
D18*
%TO.N,EN*%
X100228400Y-85750400D03*
%TO.N,GND*%
X91592400Y-95808800D03*
X125628400Y-83210400D03*
X91795600Y-92811600D03*
X91795600Y-78790800D03*
X99161600Y-97078800D03*
X96215200Y-97028000D03*
X127203200Y-81330800D03*
X96367600Y-80568800D03*
X95504000Y-80518000D03*
X129235200Y-97078800D03*
X129235200Y-96164400D03*
X128320800Y-97078800D03*
X128320800Y-96164400D03*
X110083600Y-91490800D03*
X109220000Y-91490800D03*
X109118400Y-88646000D03*
X107746800Y-94030800D03*
X106680000Y-94030800D03*
X109982000Y-88646000D03*
X117449600Y-97028000D03*
X115824000Y-96164400D03*
X116230400Y-97028000D03*
X123037600Y-87274400D03*
X122986800Y-89052400D03*
%TO.N,+3V3*%
X97790000Y-84328000D03*
X95707200Y-94030800D03*
X99212400Y-96012000D03*
X98614200Y-95187800D03*
X99833400Y-95187800D03*
X113334800Y-83718400D03*
X95656400Y-76606400D03*
X112522000Y-88646000D03*
X111556800Y-88646000D03*
X107645200Y-88646000D03*
X106781600Y-88646000D03*
X112471200Y-91490800D03*
X111506000Y-91490800D03*
X113080800Y-94742000D03*
X111912400Y-94742000D03*
X110693200Y-94742000D03*
X96266000Y-75996800D03*
X91338400Y-81635600D03*
%TO.N,TXD0*%
X127152400Y-80111600D03*
%TO.N,RST*%
X103305833Y-81910967D03*
%TO.N,Net-(R11-Pad1)*%
X93980000Y-92354400D03*
%TO.N,Net-(R10-Pad2)*%
X94030800Y-80314800D03*
%TO.N,Net-(R14-Pad2)*%
X115112800Y-83718400D03*
%TO.N,LED*%
X96215200Y-91744800D03*
%TO.N,BTN_UP*%
X94234000Y-76860400D03*
%TO.N,GPIO0_BTN_DOWN*%
X113639600Y-87934800D03*
%TO.N,SCL*%
X99364800Y-84328000D03*
%TO.N,VIN*%
X127152400Y-78892400D03*
X126898400Y-77927200D03*
%TD*%
D19*
%TO.N,EN*%
X100998400Y-84980400D02*
X100228400Y-85750400D01*
X101721600Y-84980400D02*
X100998400Y-84980400D01*
D20*
%TO.N,GND*%
X97547400Y-97028000D02*
X97637600Y-96937800D01*
X96215200Y-97028000D02*
X97547400Y-97028000D01*
X97778600Y-97078800D02*
X97637600Y-96937800D01*
X99161600Y-97078800D02*
X97778600Y-97078800D01*
D21*
X91186000Y-79349600D02*
X91186000Y-80060800D01*
X91795600Y-77724000D02*
X91795600Y-78790800D01*
X91122500Y-77101700D02*
X91795600Y-77724000D01*
X91236800Y-79349600D02*
X91795600Y-78790800D01*
X91186000Y-79349600D02*
X91236800Y-79349600D01*
D22*
X91122500Y-93484700D02*
X91795600Y-92811600D01*
X91122500Y-94234000D02*
X91122500Y-93484700D01*
X91122500Y-90424000D02*
X91122500Y-91071700D01*
X91795600Y-91744800D02*
X91795600Y-92811600D01*
X91122500Y-91071700D02*
X91795600Y-91744800D01*
D23*
X133794500Y-96431100D02*
X133794500Y-95250000D01*
D22*
X116921600Y-94980400D02*
X116921600Y-95574800D01*
X133096000Y-96977200D02*
X133248400Y-96977200D01*
X91122500Y-95338900D02*
X91592400Y-95808800D01*
X91122500Y-94234000D02*
X91122500Y-95338900D01*
D23*
X116921600Y-95574800D02*
X115824000Y-96164400D01*
D24*
X133400800Y-96875600D02*
X133794500Y-96431100D01*
D22*
X129438400Y-96875600D02*
X129235200Y-97078800D01*
D24*
X133400800Y-96875600D02*
X129438400Y-96875600D01*
D23*
X116230400Y-97028000D02*
X117043200Y-95102000D01*
X117449600Y-97028000D02*
X116921600Y-94980400D01*
D25*
X129235200Y-97078800D02*
X128320800Y-97078800D01*
X129235200Y-96164400D02*
X128320800Y-96164400D01*
X128320800Y-96164400D02*
X128320800Y-97078800D01*
%TO.N,+3V3*%
X101514200Y-95187800D02*
X101721600Y-94980400D01*
X97637600Y-95187800D02*
X101514200Y-95187800D01*
X99212400Y-95808800D02*
X99833400Y-95187800D01*
X99212400Y-96012000D02*
X99212400Y-95808800D01*
D19*
%TO.N,TXD0*%
X119278400Y-79349600D02*
X117647600Y-80980400D01*
X124968000Y-80111600D02*
X124206000Y-79349600D01*
X117647600Y-80980400D02*
X116921600Y-80980400D01*
X124206000Y-79349600D02*
X119278400Y-79349600D01*
X127152400Y-80111600D02*
X124968000Y-80111600D01*
X120345200Y-88518000D02*
X118668800Y-86841600D01*
X118668800Y-81227600D02*
X118421600Y-80980400D01*
X118421600Y-80980400D02*
X116921600Y-80980400D01*
X118668800Y-86841600D02*
X118668800Y-81227600D01*
%TO.N,RST*%
X102468800Y-80980400D02*
X101721600Y-80980400D01*
X103305833Y-81910967D02*
X102468800Y-80980400D01*
%TO.N,Net-(R11-Pad1)*%
X92583000Y-94234000D02*
X92913200Y-94234000D01*
X93980000Y-93167200D02*
X93980000Y-92354400D01*
X92913200Y-94234000D02*
X93980000Y-93167200D01*
X92583000Y-90424000D02*
X92862400Y-90424000D01*
X93980000Y-91541600D02*
X93980000Y-92354400D01*
X92862400Y-90424000D02*
X93980000Y-91541600D01*
%TO.N,Net-(R10-Pad2)*%
X92722700Y-80200500D02*
X92583000Y-80200500D01*
X94030800Y-80314800D02*
X92722700Y-80200500D01*
X92583000Y-76733400D02*
X92583000Y-76390500D01*
X94030800Y-78181200D02*
X92583000Y-76733400D01*
X94030800Y-80314800D02*
X94030800Y-78181200D01*
%TO.N,Net-(R14-Pad2)*%
X117422800Y-82980400D02*
X116921600Y-82980400D01*
X116921600Y-82980400D02*
X116054000Y-82980400D01*
X116742400Y-83159600D02*
X116921600Y-82980400D01*
X115519200Y-83159600D02*
X116742400Y-83159600D01*
X115112800Y-83718400D02*
X115519200Y-83159600D01*
%TO.N,TXD2*%
X116921600Y-90980400D02*
X117904400Y-90980400D01*
X105944400Y-90373200D02*
X104749600Y-89178400D01*
X105968800Y-90373200D02*
X105944400Y-90373200D01*
X106263001Y-90691801D02*
X106263001Y-90667401D01*
X106300000Y-90728800D02*
X106263001Y-90691801D01*
X116670000Y-90728800D02*
X106300000Y-90728800D01*
X106263001Y-90667401D02*
X105968800Y-90373200D01*
X116921600Y-90980400D02*
X116670000Y-90728800D01*
X118719600Y-91278400D02*
X118421600Y-90980400D01*
X118421600Y-90980400D02*
X116921600Y-90980400D01*
D26*
X128930400Y-93573600D02*
X128930400Y-94792800D01*
X128168400Y-92811600D02*
X128930400Y-93573600D01*
X129387600Y-95250000D02*
X131254500Y-95250000D01*
X118761200Y-91278400D02*
X119075200Y-91592400D01*
X123545600Y-92811600D02*
X128168400Y-92811600D01*
X128930400Y-94792800D02*
X129387600Y-95250000D01*
X122326400Y-91592400D02*
X123545600Y-92811600D01*
X119075200Y-91592400D02*
X122326400Y-91592400D01*
X118719600Y-91278400D02*
X118761200Y-91278400D01*
D19*
%TO.N,RXD2*%
X116921600Y-86980400D02*
X118019200Y-86980400D01*
X133794500Y-93091000D02*
X133794500Y-92900500D01*
X104947600Y-86980400D02*
X104749600Y-87178400D01*
X116921600Y-86980400D02*
X104947600Y-86980400D01*
D26*
X117409600Y-86980400D02*
X116921600Y-86980400D01*
X118821200Y-88950800D02*
X118821200Y-88392000D01*
X119380000Y-89509600D02*
X118821200Y-88950800D01*
X118821200Y-88392000D02*
X117409600Y-86980400D01*
X121310400Y-89509600D02*
X119380000Y-89509600D01*
X123647200Y-91846400D02*
X121310400Y-89509600D01*
X132791200Y-91846400D02*
X123647200Y-91846400D01*
X133794500Y-92849700D02*
X132791200Y-91846400D01*
X133794500Y-93091000D02*
X133794500Y-92849700D01*
D19*
%TO.N,LED*%
X101721600Y-90980400D02*
X102795200Y-90980400D01*
X102551600Y-90980400D02*
X101721600Y-90980400D01*
D27*
X104749600Y-93178400D02*
X102551600Y-90980400D01*
D19*
X100683200Y-90980400D02*
X101721600Y-90980400D01*
X96236800Y-91766400D02*
X96215200Y-91744800D01*
D22*
X97463600Y-91766400D02*
X96236800Y-91766400D01*
D19*
X99597200Y-91766400D02*
X97463600Y-91766400D01*
D27*
X99343200Y-91766400D02*
X100683200Y-90980400D01*
D19*
%TO.N,BTN_UP*%
X103530400Y-86766400D02*
X104749600Y-85547200D01*
X103530400Y-87985600D02*
X103530400Y-86766400D01*
X102535600Y-88980400D02*
X103530400Y-87985600D01*
X104749600Y-85547200D02*
X104749600Y-85178400D01*
X101721600Y-88980400D02*
X102535600Y-88980400D01*
X97434400Y-80264000D02*
X94589600Y-77419200D01*
X97434400Y-81026000D02*
X97434400Y-80264000D01*
X94589600Y-77419200D02*
X94589600Y-77063600D01*
X98639799Y-82231399D02*
X97434400Y-81026000D01*
X99016799Y-85053001D02*
X98639799Y-84676001D01*
X99073801Y-85053001D02*
X99016799Y-85053001D01*
X98639799Y-84676001D02*
X98639799Y-82231399D01*
X94589600Y-77063600D02*
X94234000Y-76860400D01*
X101721600Y-88980400D02*
X100664400Y-88980400D01*
X99469590Y-85448790D02*
X99073801Y-85053001D01*
X99469590Y-87785590D02*
X99469590Y-85448790D01*
X100664400Y-88980400D02*
X99469590Y-87785590D01*
%TO.N,GPIO15*%
X116921600Y-92980400D02*
X115858400Y-92980400D01*
X116921600Y-92980400D02*
X117212000Y-92980400D01*
X122088399Y-92522799D02*
X125222000Y-95656400D01*
X117669601Y-92522799D02*
X122088399Y-92522799D01*
X117212000Y-92980400D02*
X117669601Y-92522799D01*
%TO.N,+7.5V*%
X131178300Y-93014800D02*
X131254500Y-93091000D01*
%TO.N,GPIO0_BTN_DOWN*%
X103749599Y-88698399D02*
X104269599Y-88178399D01*
X103749599Y-90178399D02*
X103749599Y-88698399D01*
X104749600Y-91178400D02*
X103749599Y-90178399D01*
X104269599Y-88178399D02*
X104698800Y-88178399D01*
X105229601Y-88178399D02*
X104800400Y-88178399D01*
X105602799Y-88178399D02*
X105229601Y-88178399D01*
X105897198Y-87884000D02*
X105602799Y-88178399D01*
X115825200Y-87884000D02*
X110896400Y-87884000D01*
X116921600Y-88980400D02*
X115825200Y-87884000D01*
X110896400Y-87884000D02*
X105897198Y-87884000D01*
%TO.N,SDA*%
X98562800Y-92980400D02*
X98348800Y-92766400D01*
X101721600Y-92980400D02*
X98562800Y-92980400D01*
%TO.N,SCL*%
X112558598Y-84980400D02*
X116921600Y-84980400D01*
X111756598Y-84178400D02*
X112558598Y-84980400D01*
X103736400Y-84178400D02*
X111756598Y-84178400D01*
X99415600Y-83921600D02*
X99517200Y-84023200D01*
X103581200Y-84023200D02*
X103736400Y-84178400D01*
X99517200Y-84023200D02*
X103581200Y-84023200D01*
%TD*%
M02*
