%TF.GenerationSoftware,KiCad,Pcbnew,(5.1.6-0-10_14)*%
%TF.CreationDate,2020-10-08T00:08:50+03:00*%
%TF.ProjectId,ikea-fyrtur,696b6561-2d66-4797-9274-75722e6b6963,rev?*%
%TF.SameCoordinates,Original*%
%TF.FileFunction,Copper,L4,Bot*%
%TF.FilePolarity,Positive*%
%FSLAX46Y46*%
G04 Gerber Fmt 4.6, Leading zero omitted, Abs format (unit mm)*
G04 Created by KiCad (PCBNEW (5.1.6-0-10_14)) date 2020-10-08 00:08:50*
%MOMM*%
%LPD*%
G01*
G04 APERTURE LIST*
%TA.AperFunction,WasherPad*%
%ADD10C,0.750000*%
%TD*%
%TA.AperFunction,SMDPad,CuDef*%
%ADD11R,2.400000X1.500000*%
%TD*%
%TA.AperFunction,ComponentPad*%
%ADD12R,1.500000X1.100000*%
%TD*%
%TA.AperFunction,ComponentPad*%
%ADD13C,1.800000*%
%TD*%
%TA.AperFunction,SMDPad,CuDef*%
%ADD14R,1.800000X2.500000*%
%TD*%
%TA.AperFunction,ComponentPad*%
%ADD15R,1.350000X1.350000*%
%TD*%
%TA.AperFunction,ComponentPad*%
%ADD16O,1.350000X1.350000*%
%TD*%
%TA.AperFunction,SMDPad,CuDef*%
%ADD17R,1.000000X2.750000*%
%TD*%
%TA.AperFunction,ConnectorPad*%
%ADD18C,0.787400*%
%TD*%
%TA.AperFunction,SMDPad,CuDef*%
%ADD19R,1.500000X2.000000*%
%TD*%
%TA.AperFunction,SMDPad,CuDef*%
%ADD20R,3.800000X2.000000*%
%TD*%
%TA.AperFunction,SMDPad,CuDef*%
%ADD21R,0.800000X0.900000*%
%TD*%
%TA.AperFunction,SMDPad,CuDef*%
%ADD22R,0.900000X0.800000*%
%TD*%
%TA.AperFunction,ViaPad*%
%ADD23C,0.800000*%
%TD*%
%TA.AperFunction,Conductor*%
%ADD24C,0.250000*%
%TD*%
%TA.AperFunction,Conductor*%
%ADD25C,0.600000*%
%TD*%
%TA.AperFunction,Conductor*%
%ADD26C,0.500000*%
%TD*%
%TA.AperFunction,Conductor*%
%ADD27C,0.400000*%
%TD*%
%TA.AperFunction,Conductor*%
%ADD28C,0.800000*%
%TD*%
%TA.AperFunction,Conductor*%
%ADD29C,0.200000*%
%TD*%
%TA.AperFunction,Conductor*%
%ADD30C,0.240000*%
%TD*%
%TA.AperFunction,Conductor*%
%ADD31C,0.900000*%
%TD*%
%TA.AperFunction,Conductor*%
%ADD32C,1.000000*%
%TD*%
%TA.AperFunction,Conductor*%
%ADD33C,1.200000*%
%TD*%
G04 APERTURE END LIST*
D10*
%TO.P,SW4,*%
%TO.N,*%
X90890500Y-78295500D03*
X92646500Y-78295500D03*
%TD*%
%TO.P,SW3,*%
%TO.N,*%
X90890500Y-92329000D03*
X92646500Y-92329000D03*
%TD*%
%TO.P,U3,1*%
%TO.N,SDA*%
%TA.AperFunction,SMDPad,CuDef*%
G36*
G01*
X99398000Y-80471100D02*
X99198000Y-80471100D01*
G75*
G02*
X99098000Y-80371100I0J100000D01*
G01*
X99098000Y-79471100D01*
G75*
G02*
X99198000Y-79371100I100000J0D01*
G01*
X99398000Y-79371100D01*
G75*
G02*
X99498000Y-79471100I0J-100000D01*
G01*
X99498000Y-80371100D01*
G75*
G02*
X99398000Y-80471100I-100000J0D01*
G01*
G37*
%TD.AperFunction*%
%TO.P,U3,2*%
%TO.N,GND*%
%TA.AperFunction,SMDPad,CuDef*%
G36*
G01*
X98398000Y-80471100D02*
X98198000Y-80471100D01*
G75*
G02*
X98098000Y-80371100I0J100000D01*
G01*
X98098000Y-79471100D01*
G75*
G02*
X98198000Y-79371100I100000J0D01*
G01*
X98398000Y-79371100D01*
G75*
G02*
X98498000Y-79471100I0J-100000D01*
G01*
X98498000Y-80371100D01*
G75*
G02*
X98398000Y-80471100I-100000J0D01*
G01*
G37*
%TD.AperFunction*%
%TO.P,U3,3*%
%TO.N,Net-(U3-Pad3)*%
%TA.AperFunction,SMDPad,CuDef*%
G36*
G01*
X97398000Y-80471100D02*
X97198000Y-80471100D01*
G75*
G02*
X97098000Y-80371100I0J100000D01*
G01*
X97098000Y-79471100D01*
G75*
G02*
X97198000Y-79371100I100000J0D01*
G01*
X97398000Y-79371100D01*
G75*
G02*
X97498000Y-79471100I0J-100000D01*
G01*
X97498000Y-80371100D01*
G75*
G02*
X97398000Y-80471100I-100000J0D01*
G01*
G37*
%TD.AperFunction*%
%TO.P,U3,4*%
%TO.N,Net-(U3-Pad4)*%
%TA.AperFunction,SMDPad,CuDef*%
G36*
G01*
X97398000Y-77296100D02*
X97198000Y-77296100D01*
G75*
G02*
X97098000Y-77196100I0J100000D01*
G01*
X97098000Y-76296100D01*
G75*
G02*
X97198000Y-76196100I100000J0D01*
G01*
X97398000Y-76196100D01*
G75*
G02*
X97498000Y-76296100I0J-100000D01*
G01*
X97498000Y-77196100D01*
G75*
G02*
X97398000Y-77296100I-100000J0D01*
G01*
G37*
%TD.AperFunction*%
%TO.P,U3,5*%
%TO.N,+3V3*%
%TA.AperFunction,SMDPad,CuDef*%
G36*
G01*
X98398000Y-77296100D02*
X98198000Y-77296100D01*
G75*
G02*
X98098000Y-77196100I0J100000D01*
G01*
X98098000Y-76296100D01*
G75*
G02*
X98198000Y-76196100I100000J0D01*
G01*
X98398000Y-76196100D01*
G75*
G02*
X98498000Y-76296100I0J-100000D01*
G01*
X98498000Y-77196100D01*
G75*
G02*
X98398000Y-77296100I-100000J0D01*
G01*
G37*
%TD.AperFunction*%
%TO.P,U3,6*%
%TO.N,SCL*%
%TA.AperFunction,SMDPad,CuDef*%
G36*
G01*
X99398000Y-77296100D02*
X99198000Y-77296100D01*
G75*
G02*
X99098000Y-77196100I0J100000D01*
G01*
X99098000Y-76296100D01*
G75*
G02*
X99198000Y-76196100I100000J0D01*
G01*
X99398000Y-76196100D01*
G75*
G02*
X99498000Y-76296100I0J-100000D01*
G01*
X99498000Y-77196100D01*
G75*
G02*
X99398000Y-77296100I-100000J0D01*
G01*
G37*
%TD.AperFunction*%
D11*
%TO.P,U3,7*%
%TO.N,Net-(U3-Pad7)*%
X98298000Y-78333600D03*
%TD*%
D12*
%TO.P,J2,1*%
%TO.N,GND*%
X133794500Y-95250000D03*
%TO.P,J2,3*%
%TO.N,RXD2*%
X133794500Y-93091000D03*
%TO.P,J2,2*%
%TO.N,TXD2*%
X131254500Y-95250000D03*
%TO.P,J2,4*%
%TO.N,+7.5V*%
X131254500Y-93091000D03*
%TD*%
%TO.P,D1,4*%
%TO.N,Net-(D1-Pad4)*%
%TA.AperFunction,ComponentPad*%
G36*
G01*
X94495200Y-81294400D02*
X95395200Y-81294400D01*
G75*
G02*
X95845200Y-81744400I0J-450000D01*
G01*
X95845200Y-82644400D01*
G75*
G02*
X95395200Y-83094400I-450000J0D01*
G01*
X94495200Y-83094400D01*
G75*
G02*
X94045200Y-82644400I0J450000D01*
G01*
X94045200Y-81744400D01*
G75*
G02*
X94495200Y-81294400I450000J0D01*
G01*
G37*
%TD.AperFunction*%
D13*
%TO.P,D1,3*%
%TO.N,GND*%
X93421200Y-83972400D03*
%TO.P,D1,2*%
%TO.N,+3V3*%
X94945200Y-85496400D03*
%TO.P,D1,1*%
%TO.N,Net-(D1-Pad1)*%
X93421200Y-87020400D03*
%TD*%
%TO.P,C1,2*%
%TO.N,GND*%
%TA.AperFunction,SMDPad,CuDef*%
G36*
G01*
X116593199Y-95446000D02*
X117493201Y-95446000D01*
G75*
G02*
X117743200Y-95695999I0J-249999D01*
G01*
X117743200Y-96346001D01*
G75*
G02*
X117493201Y-96596000I-249999J0D01*
G01*
X116593199Y-96596000D01*
G75*
G02*
X116343200Y-96346001I0J249999D01*
G01*
X116343200Y-95695999D01*
G75*
G02*
X116593199Y-95446000I249999J0D01*
G01*
G37*
%TD.AperFunction*%
%TO.P,C1,1*%
%TO.N,+7.5V*%
%TA.AperFunction,SMDPad,CuDef*%
G36*
G01*
X116593199Y-93396000D02*
X117493201Y-93396000D01*
G75*
G02*
X117743200Y-93645999I0J-249999D01*
G01*
X117743200Y-94296001D01*
G75*
G02*
X117493201Y-94546000I-249999J0D01*
G01*
X116593199Y-94546000D01*
G75*
G02*
X116343200Y-94296001I0J249999D01*
G01*
X116343200Y-93645999D01*
G75*
G02*
X116593199Y-93396000I249999J0D01*
G01*
G37*
%TD.AperFunction*%
%TD*%
%TO.P,R17,2*%
%TO.N,Net-(R17-Pad2)*%
%TA.AperFunction,SMDPad,CuDef*%
G36*
G01*
X106834650Y-81488800D02*
X106322150Y-81488800D01*
G75*
G02*
X106103400Y-81270050I0J218750D01*
G01*
X106103400Y-80832550D01*
G75*
G02*
X106322150Y-80613800I218750J0D01*
G01*
X106834650Y-80613800D01*
G75*
G02*
X107053400Y-80832550I0J-218750D01*
G01*
X107053400Y-81270050D01*
G75*
G02*
X106834650Y-81488800I-218750J0D01*
G01*
G37*
%TD.AperFunction*%
%TO.P,R17,1*%
%TO.N,RST*%
%TA.AperFunction,SMDPad,CuDef*%
G36*
G01*
X106834650Y-83063800D02*
X106322150Y-83063800D01*
G75*
G02*
X106103400Y-82845050I0J218750D01*
G01*
X106103400Y-82407550D01*
G75*
G02*
X106322150Y-82188800I218750J0D01*
G01*
X106834650Y-82188800D01*
G75*
G02*
X107053400Y-82407550I0J-218750D01*
G01*
X107053400Y-82845050D01*
G75*
G02*
X106834650Y-83063800I-218750J0D01*
G01*
G37*
%TD.AperFunction*%
%TD*%
%TO.P,C8,2*%
%TO.N,GND*%
%TA.AperFunction,SMDPad,CuDef*%
G36*
G01*
X107915700Y-86659200D02*
X108390700Y-86659200D01*
G75*
G02*
X108628200Y-86896700I0J-237500D01*
G01*
X108628200Y-87471700D01*
G75*
G02*
X108390700Y-87709200I-237500J0D01*
G01*
X107915700Y-87709200D01*
G75*
G02*
X107678200Y-87471700I0J237500D01*
G01*
X107678200Y-86896700D01*
G75*
G02*
X107915700Y-86659200I237500J0D01*
G01*
G37*
%TD.AperFunction*%
%TO.P,C8,1*%
%TO.N,RST*%
%TA.AperFunction,SMDPad,CuDef*%
G36*
G01*
X107915700Y-84909200D02*
X108390700Y-84909200D01*
G75*
G02*
X108628200Y-85146700I0J-237500D01*
G01*
X108628200Y-85721700D01*
G75*
G02*
X108390700Y-85959200I-237500J0D01*
G01*
X107915700Y-85959200D01*
G75*
G02*
X107678200Y-85721700I0J237500D01*
G01*
X107678200Y-85146700D01*
G75*
G02*
X107915700Y-84909200I237500J0D01*
G01*
G37*
%TD.AperFunction*%
%TD*%
%TO.P,C3,2*%
%TO.N,GND*%
%TA.AperFunction,SMDPad,CuDef*%
G36*
G01*
X106563000Y-92099100D02*
X107813000Y-92099100D01*
G75*
G02*
X108063000Y-92349100I0J-250000D01*
G01*
X108063000Y-93274100D01*
G75*
G02*
X107813000Y-93524100I-250000J0D01*
G01*
X106563000Y-93524100D01*
G75*
G02*
X106313000Y-93274100I0J250000D01*
G01*
X106313000Y-92349100D01*
G75*
G02*
X106563000Y-92099100I250000J0D01*
G01*
G37*
%TD.AperFunction*%
%TO.P,C3,1*%
%TO.N,+3V3*%
%TA.AperFunction,SMDPad,CuDef*%
G36*
G01*
X106563000Y-89124100D02*
X107813000Y-89124100D01*
G75*
G02*
X108063000Y-89374100I0J-250000D01*
G01*
X108063000Y-90299100D01*
G75*
G02*
X107813000Y-90549100I-250000J0D01*
G01*
X106563000Y-90549100D01*
G75*
G02*
X106313000Y-90299100I0J250000D01*
G01*
X106313000Y-89374100D01*
G75*
G02*
X106563000Y-89124100I250000J0D01*
G01*
G37*
%TD.AperFunction*%
%TD*%
%TO.P,F1,2*%
%TO.N,+7.5V*%
%TA.AperFunction,SMDPad,CuDef*%
G36*
G01*
X122333599Y-95395200D02*
X123233601Y-95395200D01*
G75*
G02*
X123483600Y-95645199I0J-249999D01*
G01*
X123483600Y-96295201D01*
G75*
G02*
X123233601Y-96545200I-249999J0D01*
G01*
X122333599Y-96545200D01*
G75*
G02*
X122083600Y-96295201I0J249999D01*
G01*
X122083600Y-95645199D01*
G75*
G02*
X122333599Y-95395200I249999J0D01*
G01*
G37*
%TD.AperFunction*%
%TO.P,F1,1*%
%TO.N,EXT_V*%
%TA.AperFunction,SMDPad,CuDef*%
G36*
G01*
X122333599Y-93345200D02*
X123233601Y-93345200D01*
G75*
G02*
X123483600Y-93595199I0J-249999D01*
G01*
X123483600Y-94245201D01*
G75*
G02*
X123233601Y-94495200I-249999J0D01*
G01*
X122333599Y-94495200D01*
G75*
G02*
X122083600Y-94245201I0J249999D01*
G01*
X122083600Y-93595199D01*
G75*
G02*
X122333599Y-93345200I249999J0D01*
G01*
G37*
%TD.AperFunction*%
%TD*%
D14*
%TO.P,D2,2*%
%TO.N,VIN*%
X117297200Y-84156800D03*
%TO.P,D2,1*%
%TO.N,EXT_V*%
X117297200Y-88156800D03*
%TD*%
D15*
%TO.P,J8,1*%
%TO.N,GPIO15*%
X125222000Y-95656400D03*
%TD*%
%TO.P,C5,2*%
%TO.N,+3V3*%
%TA.AperFunction,SMDPad,CuDef*%
G36*
G01*
X96046300Y-78186800D02*
X95571300Y-78186800D01*
G75*
G02*
X95333800Y-77949300I0J237500D01*
G01*
X95333800Y-77374300D01*
G75*
G02*
X95571300Y-77136800I237500J0D01*
G01*
X96046300Y-77136800D01*
G75*
G02*
X96283800Y-77374300I0J-237500D01*
G01*
X96283800Y-77949300D01*
G75*
G02*
X96046300Y-78186800I-237500J0D01*
G01*
G37*
%TD.AperFunction*%
%TO.P,C5,1*%
%TO.N,GND*%
%TA.AperFunction,SMDPad,CuDef*%
G36*
G01*
X96046300Y-79936800D02*
X95571300Y-79936800D01*
G75*
G02*
X95333800Y-79699300I0J237500D01*
G01*
X95333800Y-79124300D01*
G75*
G02*
X95571300Y-78886800I237500J0D01*
G01*
X96046300Y-78886800D01*
G75*
G02*
X96283800Y-79124300I0J-237500D01*
G01*
X96283800Y-79699300D01*
G75*
G02*
X96046300Y-79936800I-237500J0D01*
G01*
G37*
%TD.AperFunction*%
%TD*%
%TO.P,C2,2*%
%TO.N,GND*%
%TA.AperFunction,SMDPad,CuDef*%
G36*
G01*
X93630000Y-88560900D02*
X93630000Y-89035900D01*
G75*
G02*
X93392500Y-89273400I-237500J0D01*
G01*
X92817500Y-89273400D01*
G75*
G02*
X92580000Y-89035900I0J237500D01*
G01*
X92580000Y-88560900D01*
G75*
G02*
X92817500Y-88323400I237500J0D01*
G01*
X93392500Y-88323400D01*
G75*
G02*
X93630000Y-88560900I0J-237500D01*
G01*
G37*
%TD.AperFunction*%
%TO.P,C2,1*%
%TO.N,+3V3*%
%TA.AperFunction,SMDPad,CuDef*%
G36*
G01*
X95380000Y-88560900D02*
X95380000Y-89035900D01*
G75*
G02*
X95142500Y-89273400I-237500J0D01*
G01*
X94567500Y-89273400D01*
G75*
G02*
X94330000Y-89035900I0J237500D01*
G01*
X94330000Y-88560900D01*
G75*
G02*
X94567500Y-88323400I237500J0D01*
G01*
X95142500Y-88323400D01*
G75*
G02*
X95380000Y-88560900I0J-237500D01*
G01*
G37*
%TD.AperFunction*%
%TD*%
%TO.P,R8,2*%
%TO.N,+3V3*%
%TA.AperFunction,SMDPad,CuDef*%
G36*
G01*
X101300800Y-87932550D02*
X101300800Y-88445050D01*
G75*
G02*
X101082050Y-88663800I-218750J0D01*
G01*
X100644550Y-88663800D01*
G75*
G02*
X100425800Y-88445050I0J218750D01*
G01*
X100425800Y-87932550D01*
G75*
G02*
X100644550Y-87713800I218750J0D01*
G01*
X101082050Y-87713800D01*
G75*
G02*
X101300800Y-87932550I0J-218750D01*
G01*
G37*
%TD.AperFunction*%
%TO.P,R8,1*%
%TO.N,TXD2*%
%TA.AperFunction,SMDPad,CuDef*%
G36*
G01*
X102875800Y-87932550D02*
X102875800Y-88445050D01*
G75*
G02*
X102657050Y-88663800I-218750J0D01*
G01*
X102219550Y-88663800D01*
G75*
G02*
X102000800Y-88445050I0J218750D01*
G01*
X102000800Y-87932550D01*
G75*
G02*
X102219550Y-87713800I218750J0D01*
G01*
X102657050Y-87713800D01*
G75*
G02*
X102875800Y-87932550I0J-218750D01*
G01*
G37*
%TD.AperFunction*%
%TD*%
D16*
%TO.P,J6,4*%
%TO.N,SDA*%
X98348800Y-92766400D03*
%TO.P,J6,3*%
%TO.N,SCL*%
X98348800Y-90766400D03*
%TO.P,J6,2*%
%TO.N,GND*%
X98348800Y-88766400D03*
D15*
%TO.P,J6,1*%
%TO.N,+3V3*%
X98348800Y-86766400D03*
%TD*%
D17*
%TO.P,SW1,2*%
%TO.N,Net-(R17-Pad2)*%
X127069600Y-91068800D03*
X127069600Y-85308800D03*
%TO.P,SW1,1*%
%TO.N,GND*%
X123069600Y-85308800D03*
X123069600Y-91068800D03*
%TD*%
%TO.P,R6,2*%
%TO.N,+3V3*%
%TA.AperFunction,SMDPad,CuDef*%
G36*
G01*
X98456000Y-83004950D02*
X98456000Y-83517450D01*
G75*
G02*
X98237250Y-83736200I-218750J0D01*
G01*
X97799750Y-83736200D01*
G75*
G02*
X97581000Y-83517450I0J218750D01*
G01*
X97581000Y-83004950D01*
G75*
G02*
X97799750Y-82786200I218750J0D01*
G01*
X98237250Y-82786200D01*
G75*
G02*
X98456000Y-83004950I0J-218750D01*
G01*
G37*
%TD.AperFunction*%
%TO.P,R6,1*%
%TO.N,SCL*%
%TA.AperFunction,SMDPad,CuDef*%
G36*
G01*
X100031000Y-83004950D02*
X100031000Y-83517450D01*
G75*
G02*
X99812250Y-83736200I-218750J0D01*
G01*
X99374750Y-83736200D01*
G75*
G02*
X99156000Y-83517450I0J218750D01*
G01*
X99156000Y-83004950D01*
G75*
G02*
X99374750Y-82786200I218750J0D01*
G01*
X99812250Y-82786200D01*
G75*
G02*
X100031000Y-83004950I0J-218750D01*
G01*
G37*
%TD.AperFunction*%
%TD*%
D16*
%TO.P,J5,2*%
%TO.N,GND*%
X120345200Y-95522800D03*
D15*
%TO.P,J5,1*%
%TO.N,EXT_V*%
X120345200Y-93522800D03*
%TD*%
D16*
%TO.P,J4,6*%
%TO.N,RTS*%
X120345200Y-90518000D03*
%TO.P,J4,5*%
%TO.N,TXD0*%
X120345200Y-88518000D03*
%TO.P,J4,4*%
%TO.N,RXD0*%
X120345200Y-86518000D03*
%TO.P,J4,3*%
%TO.N,VIN*%
X120345200Y-84518000D03*
%TO.P,J4,2*%
%TO.N,CTS_DTR*%
X120345200Y-82518000D03*
D15*
%TO.P,J4,1*%
%TO.N,GND*%
X120345200Y-80518000D03*
%TD*%
%TO.P,R16,2*%
%TO.N,+3V3*%
%TA.AperFunction,SMDPad,CuDef*%
G36*
G01*
X113078550Y-82239600D02*
X113591050Y-82239600D01*
G75*
G02*
X113809800Y-82458350I0J-218750D01*
G01*
X113809800Y-82895850D01*
G75*
G02*
X113591050Y-83114600I-218750J0D01*
G01*
X113078550Y-83114600D01*
G75*
G02*
X112859800Y-82895850I0J218750D01*
G01*
X112859800Y-82458350D01*
G75*
G02*
X113078550Y-82239600I218750J0D01*
G01*
G37*
%TD.AperFunction*%
%TO.P,R16,1*%
%TO.N,DTR*%
%TA.AperFunction,SMDPad,CuDef*%
G36*
G01*
X113078550Y-80664600D02*
X113591050Y-80664600D01*
G75*
G02*
X113809800Y-80883350I0J-218750D01*
G01*
X113809800Y-81320850D01*
G75*
G02*
X113591050Y-81539600I-218750J0D01*
G01*
X113078550Y-81539600D01*
G75*
G02*
X112859800Y-81320850I0J218750D01*
G01*
X112859800Y-80883350D01*
G75*
G02*
X113078550Y-80664600I218750J0D01*
G01*
G37*
%TD.AperFunction*%
%TD*%
%TO.P,R15,2*%
%TO.N,CTS_DTR*%
%TA.AperFunction,SMDPad,CuDef*%
G36*
G01*
X115064250Y-81539600D02*
X114551750Y-81539600D01*
G75*
G02*
X114333000Y-81320850I0J218750D01*
G01*
X114333000Y-80883350D01*
G75*
G02*
X114551750Y-80664600I218750J0D01*
G01*
X115064250Y-80664600D01*
G75*
G02*
X115283000Y-80883350I0J-218750D01*
G01*
X115283000Y-81320850D01*
G75*
G02*
X115064250Y-81539600I-218750J0D01*
G01*
G37*
%TD.AperFunction*%
%TO.P,R15,1*%
%TO.N,DTR*%
%TA.AperFunction,SMDPad,CuDef*%
G36*
G01*
X115064250Y-83114600D02*
X114551750Y-83114600D01*
G75*
G02*
X114333000Y-82895850I0J218750D01*
G01*
X114333000Y-82458350D01*
G75*
G02*
X114551750Y-82239600I218750J0D01*
G01*
X115064250Y-82239600D01*
G75*
G02*
X115283000Y-82458350I0J-218750D01*
G01*
X115283000Y-82895850D01*
G75*
G02*
X115064250Y-83114600I-218750J0D01*
G01*
G37*
%TD.AperFunction*%
%TD*%
D18*
%TO.P,J3,6*%
%TO.N,RTS*%
X124993400Y-81330800D03*
%TO.P,J3,5*%
%TO.N,GND*%
X126263400Y-81330800D03*
%TO.P,J3,4*%
%TO.N,RXD0*%
X124993400Y-80060800D03*
%TO.P,J3,3*%
%TO.N,TXD0*%
X126263400Y-80060800D03*
%TO.P,J3,2*%
%TO.N,CTS_DTR*%
X124993400Y-78790800D03*
%TO.P,J3,1*%
%TO.N,VIN*%
X126263400Y-78790800D03*
%TD*%
%TO.P,R14,2*%
%TO.N,Net-(R14-Pad2)*%
%TA.AperFunction,SMDPad,CuDef*%
G36*
G01*
X115064250Y-84943200D02*
X114551750Y-84943200D01*
G75*
G02*
X114333000Y-84724450I0J218750D01*
G01*
X114333000Y-84286950D01*
G75*
G02*
X114551750Y-84068200I218750J0D01*
G01*
X115064250Y-84068200D01*
G75*
G02*
X115283000Y-84286950I0J-218750D01*
G01*
X115283000Y-84724450D01*
G75*
G02*
X115064250Y-84943200I-218750J0D01*
G01*
G37*
%TD.AperFunction*%
%TO.P,R14,1*%
%TO.N,RXD0*%
%TA.AperFunction,SMDPad,CuDef*%
G36*
G01*
X115064250Y-86518200D02*
X114551750Y-86518200D01*
G75*
G02*
X114333000Y-86299450I0J218750D01*
G01*
X114333000Y-85861950D01*
G75*
G02*
X114551750Y-85643200I218750J0D01*
G01*
X115064250Y-85643200D01*
G75*
G02*
X115283000Y-85861950I0J-218750D01*
G01*
X115283000Y-86299450D01*
G75*
G02*
X115064250Y-86518200I-218750J0D01*
G01*
G37*
%TD.AperFunction*%
%TD*%
%TO.P,R13,2*%
%TO.N,Net-(D1-Pad1)*%
%TA.AperFunction,SMDPad,CuDef*%
G36*
G01*
X93680800Y-90066150D02*
X93680800Y-90578650D01*
G75*
G02*
X93462050Y-90797400I-218750J0D01*
G01*
X93024550Y-90797400D01*
G75*
G02*
X92805800Y-90578650I0J218750D01*
G01*
X92805800Y-90066150D01*
G75*
G02*
X93024550Y-89847400I218750J0D01*
G01*
X93462050Y-89847400D01*
G75*
G02*
X93680800Y-90066150I0J-218750D01*
G01*
G37*
%TD.AperFunction*%
%TO.P,R13,1*%
%TO.N,LED*%
%TA.AperFunction,SMDPad,CuDef*%
G36*
G01*
X95255800Y-90066150D02*
X95255800Y-90578650D01*
G75*
G02*
X95037050Y-90797400I-218750J0D01*
G01*
X94599550Y-90797400D01*
G75*
G02*
X94380800Y-90578650I0J218750D01*
G01*
X94380800Y-90066150D01*
G75*
G02*
X94599550Y-89847400I218750J0D01*
G01*
X95037050Y-89847400D01*
G75*
G02*
X95255800Y-90066150I0J-218750D01*
G01*
G37*
%TD.AperFunction*%
%TD*%
%TO.P,R12,2*%
%TO.N,+3V3*%
%TA.AperFunction,SMDPad,CuDef*%
G36*
G01*
X91750400Y-79956950D02*
X91750400Y-80469450D01*
G75*
G02*
X91531650Y-80688200I-218750J0D01*
G01*
X91094150Y-80688200D01*
G75*
G02*
X90875400Y-80469450I0J218750D01*
G01*
X90875400Y-79956950D01*
G75*
G02*
X91094150Y-79738200I218750J0D01*
G01*
X91531650Y-79738200D01*
G75*
G02*
X91750400Y-79956950I0J-218750D01*
G01*
G37*
%TD.AperFunction*%
%TO.P,R12,1*%
%TO.N,Net-(R10-Pad2)*%
%TA.AperFunction,SMDPad,CuDef*%
G36*
G01*
X93325400Y-79956950D02*
X93325400Y-80469450D01*
G75*
G02*
X93106650Y-80688200I-218750J0D01*
G01*
X92669150Y-80688200D01*
G75*
G02*
X92450400Y-80469450I0J218750D01*
G01*
X92450400Y-79956950D01*
G75*
G02*
X92669150Y-79738200I218750J0D01*
G01*
X93106650Y-79738200D01*
G75*
G02*
X93325400Y-79956950I0J-218750D01*
G01*
G37*
%TD.AperFunction*%
%TD*%
%TO.P,R11,2*%
%TO.N,+3V3*%
%TA.AperFunction,SMDPad,CuDef*%
G36*
G01*
X94228400Y-94134650D02*
X94228400Y-93622150D01*
G75*
G02*
X94447150Y-93403400I218750J0D01*
G01*
X94884650Y-93403400D01*
G75*
G02*
X95103400Y-93622150I0J-218750D01*
G01*
X95103400Y-94134650D01*
G75*
G02*
X94884650Y-94353400I-218750J0D01*
G01*
X94447150Y-94353400D01*
G75*
G02*
X94228400Y-94134650I0J218750D01*
G01*
G37*
%TD.AperFunction*%
%TO.P,R11,1*%
%TO.N,Net-(R11-Pad1)*%
%TA.AperFunction,SMDPad,CuDef*%
G36*
G01*
X92653400Y-94134650D02*
X92653400Y-93622150D01*
G75*
G02*
X92872150Y-93403400I218750J0D01*
G01*
X93309650Y-93403400D01*
G75*
G02*
X93528400Y-93622150I0J-218750D01*
G01*
X93528400Y-94134650D01*
G75*
G02*
X93309650Y-94353400I-218750J0D01*
G01*
X92872150Y-94353400D01*
G75*
G02*
X92653400Y-94134650I0J218750D01*
G01*
G37*
%TD.AperFunction*%
%TD*%
%TO.P,R10,2*%
%TO.N,Net-(R10-Pad2)*%
%TA.AperFunction,SMDPad,CuDef*%
G36*
G01*
X94079350Y-78886800D02*
X94591850Y-78886800D01*
G75*
G02*
X94810600Y-79105550I0J-218750D01*
G01*
X94810600Y-79543050D01*
G75*
G02*
X94591850Y-79761800I-218750J0D01*
G01*
X94079350Y-79761800D01*
G75*
G02*
X93860600Y-79543050I0J218750D01*
G01*
X93860600Y-79105550D01*
G75*
G02*
X94079350Y-78886800I218750J0D01*
G01*
G37*
%TD.AperFunction*%
%TO.P,R10,1*%
%TO.N,BTN_UP*%
%TA.AperFunction,SMDPad,CuDef*%
G36*
G01*
X94079350Y-77311800D02*
X94591850Y-77311800D01*
G75*
G02*
X94810600Y-77530550I0J-218750D01*
G01*
X94810600Y-77968050D01*
G75*
G02*
X94591850Y-78186800I-218750J0D01*
G01*
X94079350Y-78186800D01*
G75*
G02*
X93860600Y-77968050I0J218750D01*
G01*
X93860600Y-77530550D01*
G75*
G02*
X94079350Y-77311800I218750J0D01*
G01*
G37*
%TD.AperFunction*%
%TD*%
%TO.P,R9,2*%
%TO.N,Net-(R11-Pad1)*%
%TA.AperFunction,SMDPad,CuDef*%
G36*
G01*
X93503100Y-95120750D02*
X93503100Y-95633250D01*
G75*
G02*
X93284350Y-95852000I-218750J0D01*
G01*
X92846850Y-95852000D01*
G75*
G02*
X92628100Y-95633250I0J218750D01*
G01*
X92628100Y-95120750D01*
G75*
G02*
X92846850Y-94902000I218750J0D01*
G01*
X93284350Y-94902000D01*
G75*
G02*
X93503100Y-95120750I0J-218750D01*
G01*
G37*
%TD.AperFunction*%
%TO.P,R9,1*%
%TO.N,GPIO0_BTN_DOWN*%
%TA.AperFunction,SMDPad,CuDef*%
G36*
G01*
X95078100Y-95120750D02*
X95078100Y-95633250D01*
G75*
G02*
X94859350Y-95852000I-218750J0D01*
G01*
X94421850Y-95852000D01*
G75*
G02*
X94203100Y-95633250I0J218750D01*
G01*
X94203100Y-95120750D01*
G75*
G02*
X94421850Y-94902000I218750J0D01*
G01*
X94859350Y-94902000D01*
G75*
G02*
X95078100Y-95120750I0J-218750D01*
G01*
G37*
%TD.AperFunction*%
%TD*%
%TO.P,R7,2*%
%TO.N,GND*%
%TA.AperFunction,SMDPad,CuDef*%
G36*
G01*
X124872000Y-93164950D02*
X124872000Y-93677450D01*
G75*
G02*
X124653250Y-93896200I-218750J0D01*
G01*
X124215750Y-93896200D01*
G75*
G02*
X123997000Y-93677450I0J218750D01*
G01*
X123997000Y-93164950D01*
G75*
G02*
X124215750Y-92946200I218750J0D01*
G01*
X124653250Y-92946200D01*
G75*
G02*
X124872000Y-93164950I0J-218750D01*
G01*
G37*
%TD.AperFunction*%
%TO.P,R7,1*%
%TO.N,GPIO15*%
%TA.AperFunction,SMDPad,CuDef*%
G36*
G01*
X126447000Y-93164950D02*
X126447000Y-93677450D01*
G75*
G02*
X126228250Y-93896200I-218750J0D01*
G01*
X125790750Y-93896200D01*
G75*
G02*
X125572000Y-93677450I0J218750D01*
G01*
X125572000Y-93164950D01*
G75*
G02*
X125790750Y-92946200I218750J0D01*
G01*
X126228250Y-92946200D01*
G75*
G02*
X126447000Y-93164950I0J-218750D01*
G01*
G37*
%TD.AperFunction*%
%TD*%
%TO.P,R5,2*%
%TO.N,RST*%
%TA.AperFunction,SMDPad,CuDef*%
G36*
G01*
X106885450Y-85857600D02*
X106372950Y-85857600D01*
G75*
G02*
X106154200Y-85638850I0J218750D01*
G01*
X106154200Y-85201350D01*
G75*
G02*
X106372950Y-84982600I218750J0D01*
G01*
X106885450Y-84982600D01*
G75*
G02*
X107104200Y-85201350I0J-218750D01*
G01*
X107104200Y-85638850D01*
G75*
G02*
X106885450Y-85857600I-218750J0D01*
G01*
G37*
%TD.AperFunction*%
%TO.P,R5,1*%
%TO.N,+3V3*%
%TA.AperFunction,SMDPad,CuDef*%
G36*
G01*
X106885450Y-87432600D02*
X106372950Y-87432600D01*
G75*
G02*
X106154200Y-87213850I0J218750D01*
G01*
X106154200Y-86776350D01*
G75*
G02*
X106372950Y-86557600I218750J0D01*
G01*
X106885450Y-86557600D01*
G75*
G02*
X107104200Y-86776350I0J-218750D01*
G01*
X107104200Y-87213850D01*
G75*
G02*
X106885450Y-87432600I-218750J0D01*
G01*
G37*
%TD.AperFunction*%
%TD*%
%TO.P,R4,2*%
%TO.N,+3V3*%
%TA.AperFunction,SMDPad,CuDef*%
G36*
G01*
X98800400Y-82044250D02*
X98800400Y-81531750D01*
G75*
G02*
X99019150Y-81313000I218750J0D01*
G01*
X99456650Y-81313000D01*
G75*
G02*
X99675400Y-81531750I0J-218750D01*
G01*
X99675400Y-82044250D01*
G75*
G02*
X99456650Y-82263000I-218750J0D01*
G01*
X99019150Y-82263000D01*
G75*
G02*
X98800400Y-82044250I0J218750D01*
G01*
G37*
%TD.AperFunction*%
%TO.P,R4,1*%
%TO.N,SDA*%
%TA.AperFunction,SMDPad,CuDef*%
G36*
G01*
X97225400Y-82044250D02*
X97225400Y-81531750D01*
G75*
G02*
X97444150Y-81313000I218750J0D01*
G01*
X97881650Y-81313000D01*
G75*
G02*
X98100400Y-81531750I0J-218750D01*
G01*
X98100400Y-82044250D01*
G75*
G02*
X97881650Y-82263000I-218750J0D01*
G01*
X97444150Y-82263000D01*
G75*
G02*
X97225400Y-82044250I0J218750D01*
G01*
G37*
%TD.AperFunction*%
%TD*%
%TO.P,R3,2*%
%TO.N,+3V3*%
%TA.AperFunction,SMDPad,CuDef*%
G36*
G01*
X102127900Y-84482650D02*
X102127900Y-83970150D01*
G75*
G02*
X102346650Y-83751400I218750J0D01*
G01*
X102784150Y-83751400D01*
G75*
G02*
X103002900Y-83970150I0J-218750D01*
G01*
X103002900Y-84482650D01*
G75*
G02*
X102784150Y-84701400I-218750J0D01*
G01*
X102346650Y-84701400D01*
G75*
G02*
X102127900Y-84482650I0J218750D01*
G01*
G37*
%TD.AperFunction*%
%TO.P,R3,1*%
%TO.N,EN*%
%TA.AperFunction,SMDPad,CuDef*%
G36*
G01*
X100552900Y-84482650D02*
X100552900Y-83970150D01*
G75*
G02*
X100771650Y-83751400I218750J0D01*
G01*
X101209150Y-83751400D01*
G75*
G02*
X101427900Y-83970150I0J-218750D01*
G01*
X101427900Y-84482650D01*
G75*
G02*
X101209150Y-84701400I-218750J0D01*
G01*
X100771650Y-84701400D01*
G75*
G02*
X100552900Y-84482650I0J218750D01*
G01*
G37*
%TD.AperFunction*%
%TD*%
%TO.P,R2,2*%
%TO.N,RTS*%
%TA.AperFunction,SMDPad,CuDef*%
G36*
G01*
X109933450Y-85908400D02*
X109420950Y-85908400D01*
G75*
G02*
X109202200Y-85689650I0J218750D01*
G01*
X109202200Y-85252150D01*
G75*
G02*
X109420950Y-85033400I218750J0D01*
G01*
X109933450Y-85033400D01*
G75*
G02*
X110152200Y-85252150I0J-218750D01*
G01*
X110152200Y-85689650D01*
G75*
G02*
X109933450Y-85908400I-218750J0D01*
G01*
G37*
%TD.AperFunction*%
%TO.P,R2,1*%
%TO.N,Net-(Q2-Pad1)*%
%TA.AperFunction,SMDPad,CuDef*%
G36*
G01*
X109933450Y-87483400D02*
X109420950Y-87483400D01*
G75*
G02*
X109202200Y-87264650I0J218750D01*
G01*
X109202200Y-86827150D01*
G75*
G02*
X109420950Y-86608400I218750J0D01*
G01*
X109933450Y-86608400D01*
G75*
G02*
X110152200Y-86827150I0J-218750D01*
G01*
X110152200Y-87264650D01*
G75*
G02*
X109933450Y-87483400I-218750J0D01*
G01*
G37*
%TD.AperFunction*%
%TD*%
%TO.P,R1,2*%
%TO.N,DTR*%
%TA.AperFunction,SMDPad,CuDef*%
G36*
G01*
X111605350Y-82239600D02*
X112117850Y-82239600D01*
G75*
G02*
X112336600Y-82458350I0J-218750D01*
G01*
X112336600Y-82895850D01*
G75*
G02*
X112117850Y-83114600I-218750J0D01*
G01*
X111605350Y-83114600D01*
G75*
G02*
X111386600Y-82895850I0J218750D01*
G01*
X111386600Y-82458350D01*
G75*
G02*
X111605350Y-82239600I218750J0D01*
G01*
G37*
%TD.AperFunction*%
%TO.P,R1,1*%
%TO.N,Net-(Q1-Pad1)*%
%TA.AperFunction,SMDPad,CuDef*%
G36*
G01*
X111605350Y-80664600D02*
X112117850Y-80664600D01*
G75*
G02*
X112336600Y-80883350I0J-218750D01*
G01*
X112336600Y-81320850D01*
G75*
G02*
X112117850Y-81539600I-218750J0D01*
G01*
X111605350Y-81539600D01*
G75*
G02*
X111386600Y-81320850I0J218750D01*
G01*
X111386600Y-80883350D01*
G75*
G02*
X111605350Y-80664600I218750J0D01*
G01*
G37*
%TD.AperFunction*%
%TD*%
%TO.P,C7,2*%
%TO.N,GND*%
%TA.AperFunction,SMDPad,CuDef*%
G36*
G01*
X93477600Y-96638100D02*
X93477600Y-97113100D01*
G75*
G02*
X93240100Y-97350600I-237500J0D01*
G01*
X92665100Y-97350600D01*
G75*
G02*
X92427600Y-97113100I0J237500D01*
G01*
X92427600Y-96638100D01*
G75*
G02*
X92665100Y-96400600I237500J0D01*
G01*
X93240100Y-96400600D01*
G75*
G02*
X93477600Y-96638100I0J-237500D01*
G01*
G37*
%TD.AperFunction*%
%TO.P,C7,1*%
%TO.N,GPIO0_BTN_DOWN*%
%TA.AperFunction,SMDPad,CuDef*%
G36*
G01*
X95227600Y-96638100D02*
X95227600Y-97113100D01*
G75*
G02*
X94990100Y-97350600I-237500J0D01*
G01*
X94415100Y-97350600D01*
G75*
G02*
X94177600Y-97113100I0J237500D01*
G01*
X94177600Y-96638100D01*
G75*
G02*
X94415100Y-96400600I237500J0D01*
G01*
X94990100Y-96400600D01*
G75*
G02*
X95227600Y-96638100I0J-237500D01*
G01*
G37*
%TD.AperFunction*%
%TD*%
%TO.P,C6,2*%
%TO.N,GND*%
%TA.AperFunction,SMDPad,CuDef*%
G36*
G01*
X92055200Y-75962500D02*
X92055200Y-76437500D01*
G75*
G02*
X91817700Y-76675000I-237500J0D01*
G01*
X91242700Y-76675000D01*
G75*
G02*
X91005200Y-76437500I0J237500D01*
G01*
X91005200Y-75962500D01*
G75*
G02*
X91242700Y-75725000I237500J0D01*
G01*
X91817700Y-75725000D01*
G75*
G02*
X92055200Y-75962500I0J-237500D01*
G01*
G37*
%TD.AperFunction*%
%TO.P,C6,1*%
%TO.N,BTN_UP*%
%TA.AperFunction,SMDPad,CuDef*%
G36*
G01*
X93805200Y-75962500D02*
X93805200Y-76437500D01*
G75*
G02*
X93567700Y-76675000I-237500J0D01*
G01*
X92992700Y-76675000D01*
G75*
G02*
X92755200Y-76437500I0J237500D01*
G01*
X92755200Y-75962500D01*
G75*
G02*
X92992700Y-75725000I237500J0D01*
G01*
X93567700Y-75725000D01*
G75*
G02*
X93805200Y-75962500I0J-237500D01*
G01*
G37*
%TD.AperFunction*%
%TD*%
D16*
%TO.P,J1,7*%
%TO.N,LED*%
X104749600Y-93178400D03*
%TO.P,J1,6*%
%TO.N,GPIO0_BTN_DOWN*%
X104749600Y-91178400D03*
%TO.P,J1,5*%
%TO.N,TXD2*%
X104749600Y-89178400D03*
%TO.P,J1,4*%
%TO.N,RXD2*%
X104749600Y-87178400D03*
%TO.P,J1,3*%
%TO.N,BTN_UP*%
X104749600Y-85178400D03*
%TO.P,J1,2*%
%TO.N,+3V3*%
X104749600Y-83178400D03*
D15*
%TO.P,J1,1*%
%TO.N,GND*%
X104749600Y-81178400D03*
%TD*%
D19*
%TO.P,U1,1*%
%TO.N,GND*%
X109612400Y-90004500D03*
%TO.P,U1,3*%
%TO.N,+7.5V*%
X114212400Y-90004500D03*
%TO.P,U1,2*%
%TO.N,+3V3*%
X111912400Y-90004500D03*
D20*
X111912400Y-96304500D03*
%TD*%
D21*
%TO.P,Q2,3*%
%TO.N,GPIO0_BTN_DOWN*%
X112217200Y-87258400D03*
%TO.P,Q2,2*%
%TO.N,DTR*%
X113167200Y-85258400D03*
%TO.P,Q2,1*%
%TO.N,Net-(Q2-Pad1)*%
X111267200Y-85258400D03*
%TD*%
D22*
%TO.P,Q1,3*%
%TO.N,RST*%
X108220000Y-82245200D03*
%TO.P,Q1,2*%
%TO.N,RTS*%
X110220000Y-83195200D03*
%TO.P,Q1,1*%
%TO.N,Net-(Q1-Pad1)*%
X110220000Y-81295200D03*
%TD*%
D23*
%TO.N,EN*%
X100228400Y-85750400D03*
%TO.N,GND*%
X91592400Y-95808800D03*
X125628400Y-83210400D03*
X91795600Y-92811600D03*
X91795600Y-78790800D03*
X99161600Y-97078800D03*
X96215200Y-97028000D03*
X127203200Y-81330800D03*
X96367600Y-80568800D03*
X95504000Y-80518000D03*
X129235200Y-97078800D03*
X129235200Y-96164400D03*
X128320800Y-97078800D03*
X128320800Y-96164400D03*
X110083600Y-91490800D03*
X109220000Y-91490800D03*
X109118400Y-88646000D03*
X107746800Y-94030800D03*
X106680000Y-94030800D03*
X109982000Y-88646000D03*
X117449600Y-97028000D03*
X115824000Y-96164400D03*
X116230400Y-97028000D03*
X123037600Y-87274400D03*
X122986800Y-89052400D03*
%TO.N,+3V3*%
X97790000Y-84328000D03*
X95707200Y-94030800D03*
X99212400Y-96012000D03*
X98614200Y-95187800D03*
X99833400Y-95187800D03*
X113334800Y-83718400D03*
X95656400Y-76606400D03*
X112522000Y-88646000D03*
X111556800Y-88646000D03*
X107645200Y-88646000D03*
X106781600Y-88646000D03*
X112471200Y-91490800D03*
X111506000Y-91490800D03*
X113080800Y-94742000D03*
X111912400Y-94742000D03*
X110693200Y-94742000D03*
X96266000Y-75996800D03*
X91338400Y-81635600D03*
%TO.N,TXD0*%
X127152400Y-80111600D03*
%TO.N,RST*%
X103305833Y-81910967D03*
%TO.N,Net-(R11-Pad1)*%
X93980000Y-92354400D03*
%TO.N,Net-(R10-Pad2)*%
X94030800Y-80314800D03*
%TO.N,Net-(R14-Pad2)*%
X115112800Y-83718400D03*
%TO.N,LED*%
X96215200Y-91744800D03*
%TO.N,BTN_UP*%
X94234000Y-76860400D03*
%TO.N,GPIO0_BTN_DOWN*%
X113639600Y-87934800D03*
%TO.N,SCL*%
X99364800Y-84328000D03*
%TO.N,VIN*%
X127152400Y-78892400D03*
X126898400Y-77927200D03*
%TD*%
D24*
%TO.N,EN*%
X100584000Y-84277200D02*
X100787200Y-84277200D01*
X100177600Y-84683600D02*
X100584000Y-84277200D01*
X100177600Y-85750400D02*
X100177600Y-84683600D01*
X100228400Y-85750400D02*
X100177600Y-85750400D01*
%TO.N,RTS*%
X120345200Y-90670400D02*
X120345200Y-90474800D01*
X119982000Y-91033600D02*
X120345200Y-90670400D01*
X122174000Y-83718400D02*
X124561600Y-81330800D01*
X124561600Y-81330800D02*
X124993400Y-81330800D01*
X121767600Y-85928798D02*
X122174000Y-85522398D01*
X121767600Y-89044800D02*
X121767600Y-85928798D01*
X122174000Y-85522398D02*
X122174000Y-83718400D01*
X120142000Y-90670400D02*
X121767600Y-89044800D01*
X109997200Y-85258400D02*
X109997200Y-85405100D01*
X110220000Y-84928100D02*
X109677200Y-85470900D01*
X110220000Y-84159600D02*
X110220000Y-84928100D01*
X110220000Y-83195200D02*
X110220000Y-84159600D01*
X112115600Y-85801200D02*
X112115600Y-84671798D01*
X111603402Y-84159600D02*
X110220000Y-84159600D01*
X112572800Y-86258400D02*
X112115600Y-85801200D01*
X113284000Y-86258400D02*
X112572800Y-86258400D01*
X114249200Y-87223600D02*
X113284000Y-86258400D01*
X118782684Y-86524684D02*
X116014916Y-86524684D01*
X115316000Y-87223600D02*
X114249200Y-87223600D01*
X116014916Y-86524684D02*
X115316000Y-87223600D01*
X119345199Y-87087199D02*
X118782684Y-86524684D01*
X112115600Y-84671798D02*
X111603402Y-84159600D01*
X119345199Y-89517999D02*
X119345199Y-87087199D01*
X120345200Y-90518000D02*
X119345199Y-89517999D01*
%TO.N,Net-(Q1-Pad1)*%
X110413100Y-81102100D02*
X110220000Y-81295200D01*
X111861600Y-81102100D02*
X110413100Y-81102100D01*
%TO.N,DTR*%
X114808000Y-82575300D02*
X113334800Y-81102100D01*
X114808000Y-82677100D02*
X114808000Y-82575300D01*
X113334800Y-81203900D02*
X111861600Y-82677100D01*
X113334800Y-81102100D02*
X113334800Y-81203900D01*
X111861600Y-83515200D02*
X111861600Y-82677100D01*
X113167200Y-84820800D02*
X111861600Y-83515200D01*
X113167200Y-85258400D02*
X113167200Y-84820800D01*
%TO.N,Net-(Q2-Pad1)*%
X111267200Y-85684400D02*
X109905700Y-87045900D01*
X109905700Y-87045900D02*
X109677200Y-87045900D01*
X111267200Y-85258400D02*
X111267200Y-85684400D01*
D25*
%TO.N,GND*%
X127304800Y-81330800D02*
X126263400Y-81330800D01*
D26*
X125628400Y-81965800D02*
X126263400Y-81330800D01*
X125628400Y-83210400D02*
X125628400Y-81965800D01*
D27*
X93105000Y-88798400D02*
X92608400Y-88798400D01*
X92608400Y-88798400D02*
X91897200Y-88087200D01*
X93831438Y-84154963D02*
X93831438Y-83972400D01*
X91897200Y-86089201D02*
X93831438Y-84154963D01*
X91897200Y-88087200D02*
X91897200Y-86089201D01*
X91795600Y-76465400D02*
X91795600Y-78790800D01*
X91530200Y-76200000D02*
X91795600Y-76465400D01*
X95707200Y-80314800D02*
X95504000Y-80518000D01*
X95707200Y-79411800D02*
X95707200Y-80314800D01*
X92557600Y-96774000D02*
X91592400Y-95808800D01*
X92952600Y-96774000D02*
X92557600Y-96774000D01*
X98298000Y-79806800D02*
X98298000Y-79580400D01*
X109982000Y-89634900D02*
X109612400Y-90004500D01*
X109982000Y-88595200D02*
X109982000Y-89634900D01*
X109118400Y-89510500D02*
X109612400Y-90004500D01*
X109118400Y-88595200D02*
X109118400Y-89510500D01*
X110083600Y-90475700D02*
X109612400Y-90004500D01*
X110083600Y-91440000D02*
X110083600Y-90475700D01*
X109220000Y-90396900D02*
X109612400Y-90004500D01*
X109220000Y-91440000D02*
X109220000Y-90396900D01*
X96316800Y-80518000D02*
X96367600Y-80568800D01*
X95504000Y-80518000D02*
X96316800Y-80518000D01*
X96672400Y-80873600D02*
X96367600Y-80568800D01*
X98298000Y-80467200D02*
X97891600Y-80873600D01*
X97891600Y-80873600D02*
X96672400Y-80873600D01*
X98298000Y-79921100D02*
X98298000Y-80467200D01*
X124536100Y-92636900D02*
X123069600Y-91170400D01*
X124536100Y-93522800D02*
X124536100Y-92636900D01*
D28*
X117043200Y-96012000D02*
X116230400Y-97028000D01*
X117043200Y-96062800D02*
X117449600Y-97028000D01*
X115824000Y-96164400D02*
X117043200Y-96062800D01*
D24*
X123037600Y-87274400D02*
X123037600Y-86512400D01*
X122986800Y-89052400D02*
X123393200Y-92256000D01*
D27*
X107289600Y-93421200D02*
X107289600Y-93370400D01*
X107746800Y-93878400D02*
X107289600Y-93421200D01*
X107797600Y-93878400D02*
X107746800Y-93878400D01*
X107188000Y-93370400D02*
X107188000Y-92913200D01*
X106680000Y-93878400D02*
X107188000Y-93370400D01*
X106680000Y-94030800D02*
X106680000Y-93878400D01*
X108153200Y-87680800D02*
X109118400Y-88646000D01*
X108153200Y-87184200D02*
X108153200Y-87680800D01*
%TO.N,+3V3*%
X94855000Y-85586600D02*
X94945200Y-85496400D01*
X94855000Y-88798400D02*
X94855000Y-85586600D01*
X97790000Y-83184900D02*
X98018500Y-82956400D01*
X97790000Y-84124800D02*
X97790000Y-83184900D01*
X98018500Y-82804200D02*
X99237900Y-81584800D01*
X98018500Y-82956400D02*
X98018500Y-82804200D01*
X95656400Y-77611000D02*
X95707200Y-77661800D01*
X95656400Y-76606400D02*
X95656400Y-77611000D01*
X95656400Y-93980000D02*
X95707200Y-94030800D01*
X94665900Y-93980000D02*
X95656400Y-93980000D01*
X106781600Y-89288400D02*
X107188000Y-89694800D01*
X106781600Y-88646000D02*
X106781600Y-89288400D01*
X107645200Y-89237600D02*
X107188000Y-89694800D01*
X107645200Y-88646000D02*
X107645200Y-89237600D01*
X112522000Y-89394900D02*
X111912400Y-90004500D01*
X112522000Y-88646000D02*
X112522000Y-89394900D01*
X111556800Y-89648900D02*
X111912400Y-90004500D01*
X111556800Y-88646000D02*
X111556800Y-89648900D01*
X112471200Y-90563300D02*
X111912400Y-90004500D01*
X112471200Y-91490800D02*
X112471200Y-90563300D01*
X111506000Y-90410900D02*
X111912400Y-90004500D01*
X111506000Y-91490800D02*
X111506000Y-90410900D01*
X113080800Y-95136100D02*
X111912400Y-96304500D01*
X113080800Y-94742000D02*
X113080800Y-95136100D01*
X111912400Y-94742000D02*
X111912400Y-96304500D01*
X110693200Y-95085300D02*
X111912400Y-96304500D01*
X110693200Y-94742000D02*
X110693200Y-95085300D01*
X98298000Y-76200000D02*
X98298000Y-76504800D01*
X97876790Y-75778790D02*
X98298000Y-76200000D01*
X96266000Y-75996800D02*
X95656400Y-76504800D01*
X96266000Y-75996800D02*
X96382410Y-75778790D01*
X95656400Y-76504800D02*
X95656400Y-76606400D01*
X96382410Y-75778790D02*
X97876790Y-75778790D01*
X91338400Y-80924400D02*
X91363700Y-80213200D01*
X91338400Y-81635600D02*
X91338400Y-80924400D01*
X106781600Y-87096700D02*
X106883200Y-86995100D01*
X102768400Y-84277200D02*
X104749600Y-83178400D01*
X99720400Y-88138000D02*
X98348800Y-86766400D01*
X100710900Y-88138000D02*
X99720400Y-88138000D01*
X100863300Y-87985600D02*
X100710900Y-88138000D01*
X106883200Y-88544400D02*
X106781600Y-88646000D01*
X106883200Y-86995100D02*
X106883200Y-88544400D01*
X113334800Y-82677100D02*
X113334800Y-83718400D01*
D24*
%TO.N,TXD0*%
X126415800Y-80060800D02*
X127304800Y-80060800D01*
D29*
%TO.N,RXD0*%
X119526800Y-85852000D02*
X120345200Y-86670400D01*
X114934900Y-86334700D02*
X115417600Y-85852000D01*
X115417600Y-85852000D02*
X119526800Y-85852000D01*
X114706400Y-86334700D02*
X114934900Y-86334700D01*
D24*
X123545600Y-80162400D02*
X122224800Y-81483200D01*
X124714000Y-80162400D02*
X123545600Y-80162400D01*
X121564400Y-85248000D02*
X120142000Y-86670400D01*
X121564400Y-82143600D02*
X121564400Y-85248000D01*
X122275600Y-81432400D02*
X121564400Y-82143600D01*
%TO.N,RST*%
X107010300Y-82245200D02*
X106629200Y-82626300D01*
X108220000Y-82245200D02*
X107010300Y-82245200D01*
D30*
X106151001Y-82173401D02*
X106603900Y-82626300D01*
X106603900Y-82626300D02*
X106629200Y-82626300D01*
X103305833Y-81910967D02*
X103661801Y-82173401D01*
X103661801Y-82173401D02*
X106151001Y-82173401D01*
X106629200Y-85420100D02*
X106629200Y-82626300D01*
X106643300Y-85434200D02*
X106629200Y-85420100D01*
X108153200Y-85434200D02*
X106643300Y-85434200D01*
D24*
%TO.N,Net-(R11-Pad1)*%
X93065600Y-94005300D02*
X93090900Y-93980000D01*
X93065600Y-95377000D02*
X93065600Y-94005300D01*
X93090900Y-93243500D02*
X93980000Y-92354400D01*
X93090900Y-93878400D02*
X93090900Y-93243500D01*
%TO.N,Net-(R10-Pad2)*%
X94183200Y-80162400D02*
X94030800Y-80314800D01*
X94183200Y-79324300D02*
X94183200Y-80162400D01*
X93929200Y-80213200D02*
X94030800Y-80314800D01*
X92887900Y-80213200D02*
X93929200Y-80213200D01*
%TO.N,Net-(R14-Pad2)*%
X114706400Y-84759700D02*
X114706400Y-84582000D01*
X115112800Y-83718400D02*
X114706400Y-84505700D01*
D29*
%TO.N,TXD2*%
X103709200Y-88138000D02*
X104749600Y-89178400D01*
X102412800Y-88138000D02*
X103709200Y-88138000D01*
D26*
%TO.N,LED*%
X94818300Y-90220800D02*
X96363900Y-91766400D01*
D24*
%TO.N,BTN_UP*%
X94234000Y-76911200D02*
X93331000Y-76008200D01*
X94234000Y-77557500D02*
X94234000Y-76911200D01*
%TO.N,GPIO15*%
X125222000Y-94691200D02*
X125222000Y-95656400D01*
X126111100Y-93802100D02*
X125222000Y-94691200D01*
X126111100Y-93522800D02*
X126111100Y-93802100D01*
%TO.N,+7.5V*%
X114650700Y-90442800D02*
X114212400Y-90004500D01*
X116840000Y-93767800D02*
X117043200Y-93971000D01*
X122834400Y-97028000D02*
X122885200Y-97078800D01*
X122834400Y-96173400D02*
X122834400Y-97028000D01*
X119532400Y-97028000D02*
X119481600Y-97078800D01*
D31*
X126492000Y-97028000D02*
X127457200Y-94843600D01*
X119532400Y-97028000D02*
X126492000Y-97028000D01*
D32*
X117043200Y-93776800D02*
X117043200Y-93971000D01*
X114249200Y-90982800D02*
X117043200Y-93776800D01*
X114249200Y-90017600D02*
X114249200Y-90982800D01*
D31*
X118567200Y-96164400D02*
X119481600Y-97078800D01*
X118567200Y-94996000D02*
X118567200Y-96164400D01*
X117542200Y-93971000D02*
X118567200Y-94996000D01*
X117043200Y-93971000D02*
X117542200Y-93971000D01*
D32*
X129768600Y-93091000D02*
X131254500Y-93091000D01*
X129209800Y-93091000D02*
X129768600Y-93091000D01*
X127457200Y-94843600D02*
X129209800Y-93091000D01*
D24*
%TO.N,CTS_DTR*%
X124764800Y-78790800D02*
X125145800Y-78790800D01*
X114833300Y-81076800D02*
X114808000Y-81102100D01*
X120142000Y-82651600D02*
X123850400Y-78943200D01*
X123850400Y-78943200D02*
X125018800Y-78943200D01*
X120142000Y-82670400D02*
X120142000Y-82651600D01*
X118802400Y-81127600D02*
X114833500Y-81127600D01*
X114833500Y-81127600D02*
X114808000Y-81102100D01*
X120345200Y-82670400D02*
X118802400Y-81127600D01*
%TO.N,Net-(D1-Pad1)*%
X93243300Y-90220800D02*
X93319600Y-90220800D01*
X94004990Y-89535410D02*
X94004990Y-87604190D01*
X94004990Y-87604190D02*
X93421200Y-87020400D01*
X93319600Y-90220800D02*
X94004990Y-89535410D01*
%TO.N,GPIO0_BTN_DOWN*%
X97351998Y-95377000D02*
X94640600Y-95377000D01*
X101550598Y-91178400D02*
X97351998Y-95377000D01*
X104749600Y-91178400D02*
X101550598Y-91178400D01*
X94640600Y-96712000D02*
X94702600Y-96774000D01*
X94640600Y-95377000D02*
X94640600Y-96712000D01*
X112963200Y-87258400D02*
X113639600Y-87934800D01*
X112217200Y-87258400D02*
X112963200Y-87258400D01*
%TO.N,SDA*%
X99212400Y-79451200D02*
X99212400Y-80117802D01*
X96469200Y-82905600D02*
X97790000Y-81584800D01*
X98348800Y-92659200D02*
X96469200Y-90779600D01*
X96469200Y-90779600D02*
X96469200Y-82905600D01*
X98348800Y-92766400D02*
X98348800Y-92659200D01*
X99298000Y-80330800D02*
X99298000Y-79921100D01*
X98044000Y-81584800D02*
X99298000Y-80330800D01*
X97662900Y-81584800D02*
X98044000Y-81584800D01*
%TO.N,SCL*%
X99367013Y-84173387D02*
X99364800Y-83921600D01*
X99364800Y-83185100D02*
X99593500Y-82956400D01*
X99364800Y-83921600D02*
X99364800Y-83185100D01*
X100076000Y-77266800D02*
X99388000Y-76578800D01*
X99388000Y-76578800D02*
X99196400Y-76578800D01*
X99593500Y-82727700D02*
X100076000Y-82245200D01*
X100076000Y-82245200D02*
X100076000Y-77266800D01*
X99593500Y-82956400D02*
X99593500Y-82727700D01*
X97129600Y-89547200D02*
X98348800Y-90766400D01*
X97129600Y-85801200D02*
X97129600Y-89547200D01*
X97637600Y-85293200D02*
X97129600Y-85801200D01*
X99415600Y-84277200D02*
X98399600Y-85293200D01*
X99364800Y-83921600D02*
X99415600Y-83921600D01*
X99415600Y-83921600D02*
X99415600Y-84277200D01*
X98399600Y-85293200D02*
X97637600Y-85293200D01*
%TO.N,VIN*%
X127152400Y-78790800D02*
X127254000Y-78892400D01*
D25*
X126263400Y-78790800D02*
X127152400Y-78790800D01*
X126898400Y-78155800D02*
X126263400Y-78790800D01*
D24*
X126898400Y-77927200D02*
X126898400Y-78155800D01*
D32*
X117658400Y-84518000D02*
X117297200Y-84156800D01*
X120345200Y-84518000D02*
X117658400Y-84518000D01*
D24*
%TO.N,EXT_V*%
X116840000Y-87718400D02*
X117297200Y-87261200D01*
X120599200Y-93776800D02*
X120345200Y-93522800D01*
X123190000Y-94123400D02*
X122843400Y-93776800D01*
D33*
X122589400Y-93522800D02*
X120345200Y-93522800D01*
X122843400Y-93776800D02*
X122589400Y-93522800D01*
X119888000Y-93522800D02*
X117297200Y-90932000D01*
X117297200Y-90932000D02*
X117297200Y-88156800D01*
X120345200Y-93522800D02*
X119888000Y-93522800D01*
D24*
%TO.N,Net-(R17-Pad2)*%
X128117600Y-77216000D02*
X127849799Y-76948199D01*
X128117600Y-83820000D02*
X128117600Y-77216000D01*
X127558800Y-76657200D02*
X127812800Y-76911200D01*
X121158000Y-76657200D02*
X127558800Y-76657200D01*
X117703600Y-80111600D02*
X121158000Y-76657200D01*
X106730800Y-80721200D02*
X106934000Y-80721200D01*
X127101600Y-91338400D02*
X127101600Y-84836000D01*
X127069600Y-84868000D02*
X128117600Y-83820000D01*
X127069600Y-85308800D02*
X127069600Y-84868000D01*
X108712000Y-80111600D02*
X107568900Y-80111600D01*
X107568900Y-80111600D02*
X106629200Y-81051300D01*
X108559600Y-80111600D02*
X108712000Y-80111600D01*
X108712000Y-80111600D02*
X117703600Y-80111600D01*
%TD*%
M02*
