%TF.GenerationSoftware,KiCad,Pcbnew,(5.1.6-0-10_14)*%
%TF.CreationDate,2020-10-08T00:08:50+03:00*%
%TF.ProjectId,ikea-fyrtur,696b6561-2d66-4797-9274-75722e6b6963,rev?*%
%TF.SameCoordinates,Original*%
%TF.FileFunction,Soldermask,Top*%
%TF.FilePolarity,Negative*%
%FSLAX46Y46*%
G04 Gerber Fmt 4.6, Leading zero omitted, Abs format (unit mm)*
G04 Created by KiCad (PCBNEW (5.1.6-0-10_14)) date 2020-10-08 00:08:50*
%MOMM*%
%LPD*%
G01*
G04 APERTURE LIST*
%ADD10C,0.850000*%
%ADD11R,1.150000X1.700000*%
%ADD12O,3.200000X1.100000*%
%ADD13R,1.600000X1.200000*%
%ADD14C,1.900000*%
%ADD15C,1.452000*%
%ADD16R,1.450000X1.450000*%
%ADD17O,1.450000X1.450000*%
%ADD18C,1.090600*%
%ADD19R,2.600000X1.100000*%
%ADD20R,1.100000X1.900000*%
G04 APERTURE END LIST*
D10*
%TO.C,SW4*%
X90890500Y-78295500D03*
X92646500Y-78295500D03*
D11*
X91122500Y-76390500D03*
X91122500Y-80200500D03*
X92583000Y-80200500D03*
X92583000Y-76390500D03*
%TD*%
D10*
%TO.C,SW3*%
X90890500Y-92329000D03*
X92646500Y-92329000D03*
D11*
X91122500Y-90424000D03*
X91122500Y-94234000D03*
X92583000Y-94234000D03*
X92583000Y-90424000D03*
%TD*%
D12*
%TO.C,J2*%
X132524500Y-94170500D03*
D13*
X133794500Y-95250000D03*
X133794500Y-93091000D03*
X131254500Y-95250000D03*
X131254500Y-93091000D03*
%TD*%
%TO.C,D1*%
G36*
G01*
X94470200Y-81244400D02*
X95420200Y-81244400D01*
G75*
G02*
X95895200Y-81719400I0J-475000D01*
G01*
X95895200Y-82669400D01*
G75*
G02*
X95420200Y-83144400I-475000J0D01*
G01*
X94470200Y-83144400D01*
G75*
G02*
X93995200Y-82669400I0J475000D01*
G01*
X93995200Y-81719400D01*
G75*
G02*
X94470200Y-81244400I475000J0D01*
G01*
G37*
D14*
X93421200Y-83972400D03*
X94945200Y-85496400D03*
X93421200Y-87020400D03*
%TD*%
D15*
%TO.C,REF\u002A\u002A*%
X102108000Y-96570800D03*
%TD*%
%TO.C,REF\u002A\u002A*%
X101600000Y-76911200D03*
%TD*%
%TO.C,REF\u002A\u002A*%
X125069600Y-88188800D03*
%TD*%
D16*
%TO.C,J8*%
X125222000Y-95656400D03*
%TD*%
D17*
%TO.C,J6*%
X98348800Y-92766400D03*
X98348800Y-90766400D03*
X98348800Y-88766400D03*
D16*
X98348800Y-86766400D03*
%TD*%
D17*
%TO.C,J5*%
X120345200Y-95522800D03*
D16*
X120345200Y-93522800D03*
%TD*%
D17*
%TO.C,J4*%
X120345200Y-90518000D03*
X120345200Y-88518000D03*
X120345200Y-86518000D03*
X120345200Y-84518000D03*
X120345200Y-82518000D03*
D16*
X120345200Y-80518000D03*
%TD*%
D18*
%TO.C,J3*%
X125628400Y-77520800D03*
X126644400Y-82600800D03*
X124612400Y-82600800D03*
%TD*%
%TO.C,C4*%
G36*
G01*
X97375100Y-96362800D02*
X97900100Y-96362800D01*
G75*
G02*
X98162600Y-96625300I0J-262500D01*
G01*
X98162600Y-97250300D01*
G75*
G02*
X97900100Y-97512800I-262500J0D01*
G01*
X97375100Y-97512800D01*
G75*
G02*
X97112600Y-97250300I0J262500D01*
G01*
X97112600Y-96625300D01*
G75*
G02*
X97375100Y-96362800I262500J0D01*
G01*
G37*
G36*
G01*
X97375100Y-94612800D02*
X97900100Y-94612800D01*
G75*
G02*
X98162600Y-94875300I0J-262500D01*
G01*
X98162600Y-95500300D01*
G75*
G02*
X97900100Y-95762800I-262500J0D01*
G01*
X97375100Y-95762800D01*
G75*
G02*
X97112600Y-95500300I0J262500D01*
G01*
X97112600Y-94875300D01*
G75*
G02*
X97375100Y-94612800I262500J0D01*
G01*
G37*
%TD*%
D17*
%TO.C,J1*%
X104749600Y-93178400D03*
X104749600Y-91178400D03*
X104749600Y-89178400D03*
X104749600Y-87178400D03*
X104749600Y-85178400D03*
X104749600Y-83178400D03*
D16*
X104749600Y-81178400D03*
%TD*%
D19*
%TO.C,U2*%
X116921600Y-80980400D03*
X116921600Y-82980400D03*
X116921600Y-84980400D03*
X116921600Y-86980400D03*
X116921600Y-88980400D03*
X116921600Y-90980400D03*
X116921600Y-92980400D03*
X116921600Y-94980400D03*
D20*
X114321600Y-96480400D03*
X112321600Y-96480400D03*
X110321600Y-96480400D03*
X108321600Y-96480400D03*
X106321600Y-96480400D03*
X104321600Y-96480400D03*
D19*
X101721600Y-94980400D03*
X101721600Y-92980400D03*
X101721600Y-90980400D03*
X101721600Y-88980400D03*
X101721600Y-86980400D03*
X101721600Y-84980400D03*
X101721600Y-82980400D03*
X101721600Y-80980400D03*
%TD*%
M02*
