%TF.GenerationSoftware,KiCad,Pcbnew,(5.1.6-0-10_14)*%
%TF.CreationDate,2020-10-08T00:08:50+03:00*%
%TF.ProjectId,ikea-fyrtur,696b6561-2d66-4797-9274-75722e6b6963,rev?*%
%TF.SameCoordinates,Original*%
%TF.FileFunction,Copper,L3,Inr*%
%TF.FilePolarity,Positive*%
%FSLAX46Y46*%
G04 Gerber Fmt 4.6, Leading zero omitted, Abs format (unit mm)*
G04 Created by KiCad (PCBNEW (5.1.6-0-10_14)) date 2020-10-08 00:08:50*
%MOMM*%
%LPD*%
G01*
G04 APERTURE LIST*
%TA.AperFunction,WasherPad*%
%ADD10C,0.750000*%
%TD*%
%TA.AperFunction,ViaPad*%
%ADD11R,1.500000X1.100000*%
%TD*%
%TA.AperFunction,ViaPad*%
%ADD12C,1.800000*%
%TD*%
%TA.AperFunction,ViaPad*%
%ADD13R,1.350000X1.350000*%
%TD*%
%TA.AperFunction,ViaPad*%
%ADD14O,1.350000X1.350000*%
%TD*%
%TA.AperFunction,ViaPad*%
%ADD15C,0.800000*%
%TD*%
%TA.AperFunction,Conductor*%
%ADD16C,1.000000*%
%TD*%
%TA.AperFunction,Conductor*%
%ADD17C,0.254000*%
%TD*%
G04 APERTURE END LIST*
D10*
%TO.N,*%
%TO.C,SW4*%
X90890500Y-78295500D03*
X92646500Y-78295500D03*
%TD*%
%TO.N,*%
%TO.C,SW3*%
X90890500Y-92329000D03*
X92646500Y-92329000D03*
%TD*%
D11*
%TO.N,GND*%
%TO.C,J2*%
X133794500Y-95250000D03*
%TO.N,RXD2*%
X133794500Y-93091000D03*
%TO.N,TXD2*%
X131254500Y-95250000D03*
%TO.N,+7.5V*%
X131254500Y-93091000D03*
%TD*%
%TO.N,Net-(D1-Pad4)*%
%TO.C,D1*%
%TA.AperFunction,ViaPad*%
G36*
G01*
X94495200Y-81294400D02*
X95395200Y-81294400D01*
G75*
G02*
X95845200Y-81744400I0J-450000D01*
G01*
X95845200Y-82644400D01*
G75*
G02*
X95395200Y-83094400I-450000J0D01*
G01*
X94495200Y-83094400D01*
G75*
G02*
X94045200Y-82644400I0J450000D01*
G01*
X94045200Y-81744400D01*
G75*
G02*
X94495200Y-81294400I450000J0D01*
G01*
G37*
%TD.AperFunction*%
D12*
%TO.N,GND*%
X93421200Y-83972400D03*
%TO.N,+3V3*%
X94945200Y-85496400D03*
%TO.N,Net-(D1-Pad1)*%
X93421200Y-87020400D03*
%TD*%
D13*
%TO.N,GPIO15*%
%TO.C,J8*%
X125222000Y-95656400D03*
%TD*%
D14*
%TO.N,SDA*%
%TO.C,J6*%
X98348800Y-92766400D03*
%TO.N,SCL*%
X98348800Y-90766400D03*
%TO.N,GND*%
X98348800Y-88766400D03*
D13*
%TO.N,+3V3*%
X98348800Y-86766400D03*
%TD*%
D14*
%TO.N,GND*%
%TO.C,J5*%
X120345200Y-95522800D03*
D13*
%TO.N,EXT_V*%
X120345200Y-93522800D03*
%TD*%
D14*
%TO.N,RTS*%
%TO.C,J4*%
X120345200Y-90518000D03*
%TO.N,TXD0*%
X120345200Y-88518000D03*
%TO.N,RXD0*%
X120345200Y-86518000D03*
%TO.N,VIN*%
X120345200Y-84518000D03*
%TO.N,CTS_DTR*%
X120345200Y-82518000D03*
D13*
%TO.N,GND*%
X120345200Y-80518000D03*
%TD*%
D14*
%TO.N,LED*%
%TO.C,J1*%
X104749600Y-93178400D03*
%TO.N,GPIO0_BTN_DOWN*%
X104749600Y-91178400D03*
%TO.N,TXD2*%
X104749600Y-89178400D03*
%TO.N,RXD2*%
X104749600Y-87178400D03*
%TO.N,BTN_UP*%
X104749600Y-85178400D03*
%TO.N,+3V3*%
X104749600Y-83178400D03*
D13*
%TO.N,GND*%
X104749600Y-81178400D03*
%TD*%
D15*
%TO.N,EN*%
X100228400Y-85750400D03*
%TO.N,GND*%
X91592400Y-95808800D03*
X125628400Y-83210400D03*
X91795600Y-92811600D03*
X91795600Y-78790800D03*
X99161600Y-97078800D03*
X96215200Y-97028000D03*
X127203200Y-81330800D03*
X96367600Y-80568800D03*
X95504000Y-80518000D03*
X129235200Y-97078800D03*
X129235200Y-96164400D03*
X128320800Y-97078800D03*
X128320800Y-96164400D03*
X110083600Y-91490800D03*
X109220000Y-91490800D03*
X109118400Y-88646000D03*
X107746800Y-94030800D03*
X106680000Y-94030800D03*
X109982000Y-88646000D03*
X117449600Y-97028000D03*
X115824000Y-96164400D03*
X116230400Y-97028000D03*
X123037600Y-87274400D03*
X122986800Y-89052400D03*
%TO.N,+3V3*%
X97790000Y-84328000D03*
X95707200Y-94030800D03*
X99212400Y-96012000D03*
X98614200Y-95187800D03*
X99833400Y-95187800D03*
X113334800Y-83718400D03*
X95656400Y-76606400D03*
X112522000Y-88646000D03*
X111556800Y-88646000D03*
X107645200Y-88646000D03*
X106781600Y-88646000D03*
X112471200Y-91490800D03*
X111506000Y-91490800D03*
X113080800Y-94742000D03*
X111912400Y-94742000D03*
X110693200Y-94742000D03*
X96266000Y-75996800D03*
X91338400Y-81635600D03*
%TO.N,TXD0*%
X127152400Y-80111600D03*
%TO.N,RST*%
X103305833Y-81910967D03*
%TO.N,Net-(R11-Pad1)*%
X93980000Y-92354400D03*
%TO.N,Net-(R10-Pad2)*%
X94030800Y-80314800D03*
%TO.N,Net-(R14-Pad2)*%
X115112800Y-83718400D03*
%TO.N,LED*%
X96215200Y-91744800D03*
%TO.N,BTN_UP*%
X94234000Y-76860400D03*
%TO.N,GPIO0_BTN_DOWN*%
X113639600Y-87934800D03*
%TO.N,SCL*%
X99364800Y-84328000D03*
%TO.N,VIN*%
X127152400Y-78892400D03*
X126898400Y-77927200D03*
%TD*%
D16*
%TO.N,VIN*%
X120345200Y-84531200D02*
X120345200Y-84670400D01*
X125937677Y-78938723D02*
X120345200Y-84531200D01*
X127097123Y-78938723D02*
X125937677Y-78938723D01*
%TD*%
D17*
%TO.N,+3V3*%
G36*
X93574226Y-76056463D02*
G01*
X93430063Y-76200626D01*
X93316795Y-76370144D01*
X93238774Y-76558502D01*
X93199000Y-76758461D01*
X93199000Y-76962339D01*
X93238774Y-77162298D01*
X93316795Y-77350656D01*
X93430063Y-77520174D01*
X93574226Y-77664337D01*
X93743744Y-77777605D01*
X93932102Y-77855626D01*
X94132061Y-77895400D01*
X94335939Y-77895400D01*
X94535898Y-77855626D01*
X94724256Y-77777605D01*
X94893774Y-77664337D01*
X95037937Y-77520174D01*
X95151205Y-77350656D01*
X95229226Y-77162298D01*
X95269000Y-76962339D01*
X95269000Y-76758461D01*
X95229226Y-76558502D01*
X95151205Y-76370144D01*
X95037937Y-76200626D01*
X94893774Y-76056463D01*
X94765869Y-75971000D01*
X96998006Y-75971000D01*
X100383336Y-80191069D01*
X100400743Y-80208868D01*
X100421288Y-80222930D01*
X100444182Y-80232713D01*
X100468544Y-80237842D01*
X100482400Y-80238600D01*
X103496120Y-80238600D01*
X103485098Y-80259220D01*
X103448788Y-80378918D01*
X103436528Y-80503400D01*
X103436528Y-80881687D01*
X103407772Y-80875967D01*
X103203894Y-80875967D01*
X103003935Y-80915741D01*
X102815577Y-80993762D01*
X102646059Y-81107030D01*
X102501896Y-81251193D01*
X102388628Y-81420711D01*
X102310607Y-81609069D01*
X102270833Y-81809028D01*
X102270833Y-82012906D01*
X102310607Y-82212865D01*
X102388628Y-82401223D01*
X102501896Y-82570741D01*
X102646059Y-82714904D01*
X102815577Y-82828172D01*
X103003935Y-82906193D01*
X103203894Y-82945967D01*
X103407772Y-82945967D01*
X103526513Y-82922348D01*
X103605376Y-83051400D01*
X104622600Y-83051400D01*
X104622600Y-83031400D01*
X104876600Y-83031400D01*
X104876600Y-83051400D01*
X105893824Y-83051400D01*
X106017510Y-82849000D01*
X105986838Y-82747872D01*
X105879073Y-82514771D01*
X105782041Y-82381519D01*
X105875785Y-82304585D01*
X105955137Y-82207894D01*
X106014102Y-82097580D01*
X106050412Y-81977882D01*
X106062672Y-81853400D01*
X106062672Y-80503400D01*
X106050412Y-80378918D01*
X106014102Y-80259220D01*
X106003080Y-80238600D01*
X117652800Y-80238600D01*
X117677576Y-80236160D01*
X117701401Y-80228933D01*
X117723357Y-80217197D01*
X117745131Y-80198801D01*
X118081165Y-79843000D01*
X119032128Y-79843000D01*
X119032128Y-81193000D01*
X119044388Y-81317482D01*
X119080698Y-81437180D01*
X119139663Y-81547494D01*
X119219015Y-81644185D01*
X119305897Y-81715487D01*
X119184293Y-81897482D01*
X119085542Y-82135887D01*
X119035200Y-82388976D01*
X119035200Y-82647024D01*
X119085542Y-82900113D01*
X119184293Y-83138518D01*
X119327656Y-83353077D01*
X119492579Y-83518000D01*
X119327656Y-83682923D01*
X119184293Y-83897482D01*
X119085542Y-84135887D01*
X119035200Y-84388976D01*
X119035200Y-84647024D01*
X119085542Y-84900113D01*
X119184293Y-85138518D01*
X119327656Y-85353077D01*
X119492579Y-85518000D01*
X119327656Y-85682923D01*
X119184293Y-85897482D01*
X119085542Y-86135887D01*
X119035200Y-86388976D01*
X119035200Y-86647024D01*
X119085542Y-86900113D01*
X119184293Y-87138518D01*
X119327656Y-87353077D01*
X119492579Y-87518000D01*
X119327656Y-87682923D01*
X119184293Y-87897482D01*
X119085542Y-88135887D01*
X119035200Y-88388976D01*
X119035200Y-88647024D01*
X119085542Y-88900113D01*
X119184293Y-89138518D01*
X119327656Y-89353077D01*
X119492579Y-89518000D01*
X119327656Y-89682923D01*
X119184293Y-89897482D01*
X119085542Y-90135887D01*
X119035200Y-90388976D01*
X119035200Y-90647024D01*
X119085542Y-90900113D01*
X119184293Y-91138518D01*
X119327656Y-91353077D01*
X119510123Y-91535544D01*
X119724682Y-91678907D01*
X119963087Y-91777658D01*
X120216176Y-91828000D01*
X120474224Y-91828000D01*
X120727313Y-91777658D01*
X120965718Y-91678907D01*
X121180277Y-91535544D01*
X121362744Y-91353077D01*
X121506107Y-91138518D01*
X121604858Y-90900113D01*
X121655200Y-90647024D01*
X121655200Y-90388976D01*
X121604858Y-90135887D01*
X121506107Y-89897482D01*
X121362744Y-89682923D01*
X121197821Y-89518000D01*
X121362744Y-89353077D01*
X121506107Y-89138518D01*
X121584003Y-88950461D01*
X121951800Y-88950461D01*
X121951800Y-89154339D01*
X121991574Y-89354298D01*
X122069595Y-89542656D01*
X122182863Y-89712174D01*
X122327026Y-89856337D01*
X122496544Y-89969605D01*
X122684902Y-90047626D01*
X122884861Y-90087400D01*
X123088739Y-90087400D01*
X123288698Y-90047626D01*
X123477056Y-89969605D01*
X123646574Y-89856337D01*
X123790737Y-89712174D01*
X123904005Y-89542656D01*
X123982026Y-89354298D01*
X124021800Y-89154339D01*
X124021800Y-88950461D01*
X123982026Y-88750502D01*
X123904005Y-88562144D01*
X123790737Y-88392626D01*
X123646574Y-88248463D01*
X123544668Y-88180372D01*
X123697374Y-88078337D01*
X123841537Y-87934174D01*
X123904168Y-87840440D01*
X123858600Y-88069527D01*
X123858600Y-88308073D01*
X123905138Y-88542036D01*
X123996425Y-88762424D01*
X124128954Y-88960768D01*
X124297632Y-89129446D01*
X124495976Y-89261975D01*
X124716364Y-89353262D01*
X124950327Y-89399800D01*
X125188873Y-89399800D01*
X125422836Y-89353262D01*
X125643224Y-89261975D01*
X125841568Y-89129446D01*
X126010246Y-88960768D01*
X126142775Y-88762424D01*
X126234062Y-88542036D01*
X126280600Y-88308073D01*
X126280600Y-88069527D01*
X126234062Y-87835564D01*
X126142775Y-87615176D01*
X126010246Y-87416832D01*
X125841568Y-87248154D01*
X125643224Y-87115625D01*
X125422836Y-87024338D01*
X125188873Y-86977800D01*
X124950327Y-86977800D01*
X124716364Y-87024338D01*
X124495976Y-87115625D01*
X124297632Y-87248154D01*
X124128954Y-87416832D01*
X124037244Y-87554085D01*
X124072600Y-87376339D01*
X124072600Y-87172461D01*
X124032826Y-86972502D01*
X123954805Y-86784144D01*
X123841537Y-86614626D01*
X123697374Y-86470463D01*
X123527856Y-86357195D01*
X123339498Y-86279174D01*
X123139539Y-86239400D01*
X122935661Y-86239400D01*
X122735702Y-86279174D01*
X122547344Y-86357195D01*
X122377826Y-86470463D01*
X122233663Y-86614626D01*
X122120395Y-86784144D01*
X122042374Y-86972502D01*
X122002600Y-87172461D01*
X122002600Y-87376339D01*
X122042374Y-87576298D01*
X122120395Y-87764656D01*
X122233663Y-87934174D01*
X122377826Y-88078337D01*
X122479732Y-88146428D01*
X122327026Y-88248463D01*
X122182863Y-88392626D01*
X122069595Y-88562144D01*
X121991574Y-88750502D01*
X121951800Y-88950461D01*
X121584003Y-88950461D01*
X121604858Y-88900113D01*
X121655200Y-88647024D01*
X121655200Y-88388976D01*
X121604858Y-88135887D01*
X121506107Y-87897482D01*
X121362744Y-87682923D01*
X121197821Y-87518000D01*
X121362744Y-87353077D01*
X121506107Y-87138518D01*
X121604858Y-86900113D01*
X121655200Y-86647024D01*
X121655200Y-86388976D01*
X121604858Y-86135887D01*
X121506107Y-85897482D01*
X121362744Y-85682923D01*
X121197821Y-85518000D01*
X121362744Y-85353077D01*
X121506107Y-85138518D01*
X121604858Y-84900113D01*
X121610678Y-84870853D01*
X123533005Y-82948526D01*
X123610741Y-83136198D01*
X123734439Y-83321324D01*
X123891876Y-83478761D01*
X124077002Y-83602459D01*
X124282704Y-83687663D01*
X124501075Y-83731100D01*
X124723725Y-83731100D01*
X124730620Y-83729728D01*
X124824463Y-83870174D01*
X124968626Y-84014337D01*
X125138144Y-84127605D01*
X125326502Y-84205626D01*
X125526461Y-84245400D01*
X125730339Y-84245400D01*
X125930298Y-84205626D01*
X126118656Y-84127605D01*
X126288174Y-84014337D01*
X126432337Y-83870174D01*
X126526180Y-83729728D01*
X126533075Y-83731100D01*
X126755725Y-83731100D01*
X126974096Y-83687663D01*
X127179798Y-83602459D01*
X127364924Y-83478761D01*
X127522361Y-83321324D01*
X127646059Y-83136198D01*
X127731263Y-82930496D01*
X127774700Y-82712125D01*
X127774700Y-82489475D01*
X127731263Y-82271104D01*
X127715574Y-82233226D01*
X127862974Y-82134737D01*
X128007137Y-81990574D01*
X128120405Y-81821056D01*
X128198426Y-81632698D01*
X128238200Y-81432739D01*
X128238200Y-81228861D01*
X128198426Y-81028902D01*
X128120405Y-80840544D01*
X128015262Y-80683186D01*
X128069605Y-80601856D01*
X128147626Y-80413498D01*
X128187400Y-80213539D01*
X128187400Y-80009661D01*
X128147626Y-79809702D01*
X128069605Y-79621344D01*
X128040699Y-79578083D01*
X128045407Y-79572346D01*
X128150799Y-79375170D01*
X128215700Y-79161222D01*
X128237614Y-78938723D01*
X128215700Y-78716224D01*
X128150799Y-78502276D01*
X128045407Y-78305100D01*
X127911068Y-78141408D01*
X127933400Y-78029139D01*
X127933400Y-77825261D01*
X127893626Y-77625302D01*
X127815605Y-77436944D01*
X127702337Y-77267426D01*
X127558174Y-77123263D01*
X127388656Y-77009995D01*
X127200298Y-76931974D01*
X127000339Y-76892200D01*
X126796461Y-76892200D01*
X126596502Y-76931974D01*
X126594824Y-76932669D01*
X126506361Y-76800276D01*
X126348924Y-76642839D01*
X126163798Y-76519141D01*
X125958096Y-76433937D01*
X125739725Y-76390500D01*
X125517075Y-76390500D01*
X125298704Y-76433937D01*
X125093002Y-76519141D01*
X124907876Y-76642839D01*
X124750439Y-76800276D01*
X124626741Y-76985402D01*
X124541537Y-77191104D01*
X124498100Y-77409475D01*
X124498100Y-77632125D01*
X124541537Y-77850496D01*
X124626741Y-78056198D01*
X124750439Y-78241324D01*
X124890192Y-78381077D01*
X121453107Y-81818162D01*
X121384503Y-81715487D01*
X121471385Y-81644185D01*
X121550737Y-81547494D01*
X121609702Y-81437180D01*
X121646012Y-81317482D01*
X121658272Y-81193000D01*
X121658272Y-79843000D01*
X121646012Y-79718518D01*
X121609702Y-79598820D01*
X121550737Y-79488506D01*
X121471385Y-79391815D01*
X121374694Y-79312463D01*
X121264380Y-79253498D01*
X121144682Y-79217188D01*
X121020200Y-79204928D01*
X119670200Y-79204928D01*
X119545718Y-79217188D01*
X119426020Y-79253498D01*
X119315706Y-79312463D01*
X119219015Y-79391815D01*
X119139663Y-79488506D01*
X119080698Y-79598820D01*
X119044388Y-79718518D01*
X119032128Y-79843000D01*
X118081165Y-79843000D01*
X121738054Y-75971000D01*
X128435501Y-75971000D01*
X128435500Y-91153581D01*
X128432307Y-91186000D01*
X128445050Y-91315383D01*
X128482790Y-91439793D01*
X128544075Y-91554450D01*
X128626552Y-91654948D01*
X128727050Y-91737425D01*
X128766115Y-91758305D01*
X128758145Y-95225279D01*
X128622698Y-95169174D01*
X128422739Y-95129400D01*
X128218861Y-95129400D01*
X128018902Y-95169174D01*
X127830544Y-95247195D01*
X127661026Y-95360463D01*
X127516863Y-95504626D01*
X127403595Y-95674144D01*
X127325574Y-95862502D01*
X127285800Y-96062461D01*
X127285800Y-96266339D01*
X127325574Y-96466298D01*
X127389903Y-96621600D01*
X127325574Y-96776902D01*
X127285800Y-96976861D01*
X127285800Y-97130000D01*
X118484588Y-97130000D01*
X118484600Y-97129939D01*
X118484600Y-96926061D01*
X118444826Y-96726102D01*
X118366805Y-96537744D01*
X118253537Y-96368226D01*
X118109374Y-96224063D01*
X117939856Y-96110795D01*
X117751498Y-96032774D01*
X117551539Y-95993000D01*
X117347661Y-95993000D01*
X117147702Y-96032774D01*
X116959344Y-96110795D01*
X116859000Y-96177843D01*
X116859000Y-96062461D01*
X116819226Y-95862502D01*
X116741205Y-95674144D01*
X116627937Y-95504626D01*
X116483774Y-95360463D01*
X116314256Y-95247195D01*
X116125898Y-95169174D01*
X115925939Y-95129400D01*
X115722061Y-95129400D01*
X115522102Y-95169174D01*
X115333744Y-95247195D01*
X115164226Y-95360463D01*
X115020063Y-95504626D01*
X114906795Y-95674144D01*
X114828774Y-95862502D01*
X114789000Y-96062461D01*
X114789000Y-96266339D01*
X114828774Y-96466298D01*
X114906795Y-96654656D01*
X115020063Y-96824174D01*
X115164226Y-96968337D01*
X115195400Y-96989167D01*
X115195400Y-97129939D01*
X115195412Y-97130000D01*
X103187150Y-97130000D01*
X103272462Y-96924036D01*
X103319000Y-96690073D01*
X103319000Y-96451527D01*
X103272462Y-96217564D01*
X103181175Y-95997176D01*
X103048646Y-95798832D01*
X102879968Y-95630154D01*
X102681624Y-95497625D01*
X102461236Y-95406338D01*
X102227273Y-95359800D01*
X101988727Y-95359800D01*
X101754764Y-95406338D01*
X101534376Y-95497625D01*
X101336032Y-95630154D01*
X101167354Y-95798832D01*
X101034825Y-95997176D01*
X100943538Y-96217564D01*
X100897000Y-96451527D01*
X100897000Y-96690073D01*
X100943538Y-96924036D01*
X101028850Y-97130000D01*
X100196600Y-97130000D01*
X100196600Y-96976861D01*
X100156826Y-96776902D01*
X100078805Y-96588544D01*
X99965537Y-96419026D01*
X99821374Y-96274863D01*
X99651856Y-96161595D01*
X99463498Y-96083574D01*
X99263539Y-96043800D01*
X99059661Y-96043800D01*
X98859702Y-96083574D01*
X98671344Y-96161595D01*
X98501826Y-96274863D01*
X98357663Y-96419026D01*
X98244395Y-96588544D01*
X98166374Y-96776902D01*
X98126600Y-96976861D01*
X98126600Y-97130000D01*
X97250188Y-97130000D01*
X97250200Y-97129939D01*
X97250200Y-96926061D01*
X97210426Y-96726102D01*
X97132405Y-96537744D01*
X97019137Y-96368226D01*
X96874974Y-96224063D01*
X96705456Y-96110795D01*
X96517098Y-96032774D01*
X96317139Y-95993000D01*
X96113261Y-95993000D01*
X95913302Y-96032774D01*
X95724944Y-96110795D01*
X95555426Y-96224063D01*
X95411263Y-96368226D01*
X95297995Y-96537744D01*
X95219974Y-96726102D01*
X95180200Y-96926061D01*
X95180200Y-97129939D01*
X95180212Y-97130000D01*
X91211000Y-97130000D01*
X91211000Y-96771095D01*
X91290502Y-96804026D01*
X91490461Y-96843800D01*
X91694339Y-96843800D01*
X91894298Y-96804026D01*
X92082656Y-96726005D01*
X92252174Y-96612737D01*
X92396337Y-96468574D01*
X92509605Y-96299056D01*
X92587626Y-96110698D01*
X92627400Y-95910739D01*
X92627400Y-95706861D01*
X92587626Y-95506902D01*
X92509605Y-95318544D01*
X92396337Y-95149026D01*
X92252174Y-95004863D01*
X92082656Y-94891595D01*
X91894298Y-94813574D01*
X91694339Y-94773800D01*
X91490461Y-94773800D01*
X91290502Y-94813574D01*
X91211000Y-94846505D01*
X91211000Y-93665767D01*
X91305344Y-93728805D01*
X91493702Y-93806826D01*
X91693661Y-93846600D01*
X91897539Y-93846600D01*
X92097498Y-93806826D01*
X92285856Y-93728805D01*
X92455374Y-93615537D01*
X92599537Y-93471374D01*
X92687986Y-93339000D01*
X92745976Y-93339000D01*
X92941106Y-93300186D01*
X93124914Y-93224050D01*
X93281387Y-93119498D01*
X93320226Y-93158337D01*
X93489744Y-93271605D01*
X93678102Y-93349626D01*
X93878061Y-93389400D01*
X94081939Y-93389400D01*
X94281898Y-93349626D01*
X94470256Y-93271605D01*
X94639774Y-93158337D01*
X94783937Y-93014174D01*
X94897205Y-92844656D01*
X94975226Y-92656298D01*
X95015000Y-92456339D01*
X95015000Y-92252461D01*
X94975226Y-92052502D01*
X94897205Y-91864144D01*
X94783937Y-91694626D01*
X94732172Y-91642861D01*
X95180200Y-91642861D01*
X95180200Y-91846739D01*
X95219974Y-92046698D01*
X95297995Y-92235056D01*
X95411263Y-92404574D01*
X95555426Y-92548737D01*
X95724944Y-92662005D01*
X95913302Y-92740026D01*
X96113261Y-92779800D01*
X96317139Y-92779800D01*
X96517098Y-92740026D01*
X96705456Y-92662005D01*
X96874974Y-92548737D01*
X97019137Y-92404574D01*
X97132405Y-92235056D01*
X97210426Y-92046698D01*
X97250200Y-91846739D01*
X97250200Y-91642861D01*
X97210426Y-91442902D01*
X97132405Y-91254544D01*
X97019137Y-91085026D01*
X96874974Y-90940863D01*
X96705456Y-90827595D01*
X96517098Y-90749574D01*
X96317139Y-90709800D01*
X96113261Y-90709800D01*
X95913302Y-90749574D01*
X95724944Y-90827595D01*
X95555426Y-90940863D01*
X95411263Y-91085026D01*
X95297995Y-91254544D01*
X95219974Y-91442902D01*
X95180200Y-91642861D01*
X94732172Y-91642861D01*
X94639774Y-91550463D01*
X94470256Y-91437195D01*
X94281898Y-91359174D01*
X94081939Y-91319400D01*
X93878061Y-91319400D01*
X93678102Y-91359174D01*
X93489744Y-91437195D01*
X93320226Y-91550463D01*
X93308272Y-91562417D01*
X93290337Y-91544482D01*
X93124914Y-91433950D01*
X92941106Y-91357814D01*
X92745976Y-91319000D01*
X92547024Y-91319000D01*
X92351894Y-91357814D01*
X92168086Y-91433950D01*
X92002663Y-91544482D01*
X91861982Y-91685163D01*
X91800886Y-91776600D01*
X91736114Y-91776600D01*
X91675018Y-91685163D01*
X91534337Y-91544482D01*
X91368914Y-91433950D01*
X91211000Y-91368540D01*
X91211000Y-83821216D01*
X91886200Y-83821216D01*
X91886200Y-84123584D01*
X91945189Y-84420143D01*
X92060901Y-84699495D01*
X92228888Y-84950905D01*
X92442695Y-85164712D01*
X92694105Y-85332699D01*
X92973457Y-85448411D01*
X93214715Y-85496400D01*
X92973457Y-85544389D01*
X92694105Y-85660101D01*
X92442695Y-85828088D01*
X92228888Y-86041895D01*
X92060901Y-86293305D01*
X91945189Y-86572657D01*
X91886200Y-86869216D01*
X91886200Y-87171584D01*
X91945189Y-87468143D01*
X92060901Y-87747495D01*
X92228888Y-87998905D01*
X92442695Y-88212712D01*
X92694105Y-88380699D01*
X92973457Y-88496411D01*
X93270016Y-88555400D01*
X93572384Y-88555400D01*
X93868943Y-88496411D01*
X94148295Y-88380699D01*
X94399705Y-88212712D01*
X94613512Y-87998905D01*
X94781499Y-87747495D01*
X94897211Y-87468143D01*
X94902530Y-87441400D01*
X97035728Y-87441400D01*
X97047988Y-87565882D01*
X97084298Y-87685580D01*
X97143263Y-87795894D01*
X97222615Y-87892585D01*
X97309497Y-87963887D01*
X97187893Y-88145882D01*
X97089142Y-88384287D01*
X97038800Y-88637376D01*
X97038800Y-88895424D01*
X97089142Y-89148513D01*
X97187893Y-89386918D01*
X97331256Y-89601477D01*
X97496179Y-89766400D01*
X97331256Y-89931323D01*
X97187893Y-90145882D01*
X97089142Y-90384287D01*
X97038800Y-90637376D01*
X97038800Y-90895424D01*
X97089142Y-91148513D01*
X97187893Y-91386918D01*
X97331256Y-91601477D01*
X97496179Y-91766400D01*
X97331256Y-91931323D01*
X97187893Y-92145882D01*
X97089142Y-92384287D01*
X97038800Y-92637376D01*
X97038800Y-92895424D01*
X97089142Y-93148513D01*
X97187893Y-93386918D01*
X97331256Y-93601477D01*
X97513723Y-93783944D01*
X97728282Y-93927307D01*
X97966687Y-94026058D01*
X98219776Y-94076400D01*
X98477824Y-94076400D01*
X98730913Y-94026058D01*
X98969318Y-93927307D01*
X99183877Y-93783944D01*
X99366344Y-93601477D01*
X99509707Y-93386918D01*
X99608458Y-93148513D01*
X99658800Y-92895424D01*
X99658800Y-92637376D01*
X99608458Y-92384287D01*
X99509707Y-92145882D01*
X99366344Y-91931323D01*
X99201421Y-91766400D01*
X99366344Y-91601477D01*
X99509707Y-91386918D01*
X99608458Y-91148513D01*
X99658800Y-90895424D01*
X99658800Y-90637376D01*
X99608458Y-90384287D01*
X99509707Y-90145882D01*
X99366344Y-89931323D01*
X99201421Y-89766400D01*
X99366344Y-89601477D01*
X99509707Y-89386918D01*
X99608458Y-89148513D01*
X99658800Y-88895424D01*
X99658800Y-88637376D01*
X99608458Y-88384287D01*
X99509707Y-88145882D01*
X99388103Y-87963887D01*
X99474985Y-87892585D01*
X99554337Y-87795894D01*
X99613302Y-87685580D01*
X99649612Y-87565882D01*
X99661872Y-87441400D01*
X99658800Y-87052150D01*
X99500050Y-86893400D01*
X98475800Y-86893400D01*
X98475800Y-86913400D01*
X98221800Y-86913400D01*
X98221800Y-86893400D01*
X97197550Y-86893400D01*
X97038800Y-87052150D01*
X97035728Y-87441400D01*
X94902530Y-87441400D01*
X94956200Y-87171584D01*
X94956200Y-87034332D01*
X95011753Y-87037391D01*
X95311107Y-86994797D01*
X95596399Y-86894622D01*
X95745992Y-86814661D01*
X95829675Y-86560480D01*
X94945200Y-85676005D01*
X94931058Y-85690148D01*
X94751453Y-85510543D01*
X94765595Y-85496400D01*
X95124805Y-85496400D01*
X96009280Y-86380875D01*
X96263461Y-86297192D01*
X96362290Y-86091400D01*
X97035728Y-86091400D01*
X97038800Y-86480650D01*
X97197550Y-86639400D01*
X98221800Y-86639400D01*
X98221800Y-85615150D01*
X98063050Y-85456400D01*
X97673800Y-85453328D01*
X97549318Y-85465588D01*
X97429620Y-85501898D01*
X97319306Y-85560863D01*
X97222615Y-85640215D01*
X97143263Y-85736906D01*
X97084298Y-85847220D01*
X97047988Y-85966918D01*
X97035728Y-86091400D01*
X96362290Y-86091400D01*
X96394358Y-86024625D01*
X96469565Y-85731758D01*
X96486191Y-85429847D01*
X96443597Y-85130493D01*
X96343422Y-84845201D01*
X96263461Y-84695608D01*
X96009280Y-84611925D01*
X95124805Y-85496400D01*
X94765595Y-85496400D01*
X94751453Y-85482258D01*
X94931058Y-85302653D01*
X94945200Y-85316795D01*
X95829675Y-84432320D01*
X95761770Y-84226061D01*
X98329800Y-84226061D01*
X98329800Y-84429939D01*
X98369574Y-84629898D01*
X98447595Y-84818256D01*
X98560863Y-84987774D01*
X98705026Y-85131937D01*
X98874544Y-85245205D01*
X99062902Y-85323226D01*
X99262861Y-85363000D01*
X99268590Y-85363000D01*
X99233174Y-85448502D01*
X99225138Y-85488902D01*
X99148282Y-85465588D01*
X99023800Y-85453328D01*
X98634550Y-85456400D01*
X98475800Y-85615150D01*
X98475800Y-86639400D01*
X99500050Y-86639400D01*
X99578509Y-86560941D01*
X99738144Y-86667605D01*
X99926502Y-86745626D01*
X100126461Y-86785400D01*
X100330339Y-86785400D01*
X100530298Y-86745626D01*
X100718656Y-86667605D01*
X100888174Y-86554337D01*
X101032337Y-86410174D01*
X101145605Y-86240656D01*
X101223626Y-86052298D01*
X101263400Y-85852339D01*
X101263400Y-85648461D01*
X101223626Y-85448502D01*
X101145605Y-85260144D01*
X101032337Y-85090626D01*
X100991087Y-85049376D01*
X103439600Y-85049376D01*
X103439600Y-85307424D01*
X103489942Y-85560513D01*
X103588693Y-85798918D01*
X103732056Y-86013477D01*
X103896979Y-86178400D01*
X103732056Y-86343323D01*
X103588693Y-86557882D01*
X103489942Y-86796287D01*
X103439600Y-87049376D01*
X103439600Y-87307424D01*
X103489942Y-87560513D01*
X103588693Y-87798918D01*
X103732056Y-88013477D01*
X103896979Y-88178400D01*
X103732056Y-88343323D01*
X103588693Y-88557882D01*
X103489942Y-88796287D01*
X103439600Y-89049376D01*
X103439600Y-89307424D01*
X103489942Y-89560513D01*
X103588693Y-89798918D01*
X103732056Y-90013477D01*
X103896979Y-90178400D01*
X103732056Y-90343323D01*
X103588693Y-90557882D01*
X103489942Y-90796287D01*
X103439600Y-91049376D01*
X103439600Y-91307424D01*
X103489942Y-91560513D01*
X103588693Y-91798918D01*
X103732056Y-92013477D01*
X103896979Y-92178400D01*
X103732056Y-92343323D01*
X103588693Y-92557882D01*
X103489942Y-92796287D01*
X103439600Y-93049376D01*
X103439600Y-93307424D01*
X103489942Y-93560513D01*
X103588693Y-93798918D01*
X103732056Y-94013477D01*
X103914523Y-94195944D01*
X104129082Y-94339307D01*
X104367487Y-94438058D01*
X104620576Y-94488400D01*
X104878624Y-94488400D01*
X105131713Y-94438058D01*
X105370118Y-94339307D01*
X105584677Y-94195944D01*
X105645478Y-94135143D01*
X105684774Y-94332698D01*
X105762795Y-94521056D01*
X105876063Y-94690574D01*
X106020226Y-94834737D01*
X106189744Y-94948005D01*
X106378102Y-95026026D01*
X106578061Y-95065800D01*
X106781939Y-95065800D01*
X106981898Y-95026026D01*
X107170256Y-94948005D01*
X107213400Y-94919177D01*
X107256544Y-94948005D01*
X107444902Y-95026026D01*
X107644861Y-95065800D01*
X107848739Y-95065800D01*
X108048698Y-95026026D01*
X108237056Y-94948005D01*
X108406574Y-94834737D01*
X108550737Y-94690574D01*
X108664005Y-94521056D01*
X108742026Y-94332698D01*
X108781800Y-94132739D01*
X108781800Y-93928861D01*
X108742026Y-93728902D01*
X108664005Y-93540544D01*
X108550737Y-93371026D01*
X108406574Y-93226863D01*
X108237056Y-93113595D01*
X108048698Y-93035574D01*
X107848739Y-92995800D01*
X107644861Y-92995800D01*
X107444902Y-93035574D01*
X107256544Y-93113595D01*
X107213400Y-93142423D01*
X107170256Y-93113595D01*
X106981898Y-93035574D01*
X106781939Y-92995800D01*
X106578061Y-92995800D01*
X106378102Y-93035574D01*
X106189744Y-93113595D01*
X106059600Y-93200554D01*
X106059600Y-93049376D01*
X106019505Y-92847800D01*
X119032128Y-92847800D01*
X119032128Y-94197800D01*
X119044388Y-94322282D01*
X119080698Y-94441980D01*
X119139663Y-94552294D01*
X119219015Y-94648985D01*
X119305897Y-94720287D01*
X119184293Y-94902282D01*
X119085542Y-95140687D01*
X119035200Y-95393776D01*
X119035200Y-95651824D01*
X119085542Y-95904913D01*
X119184293Y-96143318D01*
X119327656Y-96357877D01*
X119510123Y-96540344D01*
X119724682Y-96683707D01*
X119963087Y-96782458D01*
X120216176Y-96832800D01*
X120474224Y-96832800D01*
X120727313Y-96782458D01*
X120965718Y-96683707D01*
X121180277Y-96540344D01*
X121362744Y-96357877D01*
X121506107Y-96143318D01*
X121604858Y-95904913D01*
X121655200Y-95651824D01*
X121655200Y-95393776D01*
X121604858Y-95140687D01*
X121538879Y-94981400D01*
X123908928Y-94981400D01*
X123908928Y-96331400D01*
X123921188Y-96455882D01*
X123957498Y-96575580D01*
X124016463Y-96685894D01*
X124095815Y-96782585D01*
X124192506Y-96861937D01*
X124302820Y-96920902D01*
X124422518Y-96957212D01*
X124547000Y-96969472D01*
X125897000Y-96969472D01*
X126021482Y-96957212D01*
X126141180Y-96920902D01*
X126251494Y-96861937D01*
X126348185Y-96782585D01*
X126427537Y-96685894D01*
X126486502Y-96575580D01*
X126522812Y-96455882D01*
X126535072Y-96331400D01*
X126535072Y-94981400D01*
X126522812Y-94856918D01*
X126486502Y-94737220D01*
X126427537Y-94626906D01*
X126348185Y-94530215D01*
X126251494Y-94450863D01*
X126141180Y-94391898D01*
X126021482Y-94355588D01*
X125897000Y-94343328D01*
X124547000Y-94343328D01*
X124422518Y-94355588D01*
X124302820Y-94391898D01*
X124192506Y-94450863D01*
X124095815Y-94530215D01*
X124016463Y-94626906D01*
X123957498Y-94737220D01*
X123921188Y-94856918D01*
X123908928Y-94981400D01*
X121538879Y-94981400D01*
X121506107Y-94902282D01*
X121384503Y-94720287D01*
X121471385Y-94648985D01*
X121550737Y-94552294D01*
X121609702Y-94441980D01*
X121646012Y-94322282D01*
X121658272Y-94197800D01*
X121658272Y-92847800D01*
X121646012Y-92723318D01*
X121609702Y-92603620D01*
X121550737Y-92493306D01*
X121471385Y-92396615D01*
X121374694Y-92317263D01*
X121264380Y-92258298D01*
X121144682Y-92221988D01*
X121020200Y-92209728D01*
X119670200Y-92209728D01*
X119545718Y-92221988D01*
X119426020Y-92258298D01*
X119315706Y-92317263D01*
X119219015Y-92396615D01*
X119139663Y-92493306D01*
X119080698Y-92603620D01*
X119044388Y-92723318D01*
X119032128Y-92847800D01*
X106019505Y-92847800D01*
X106009258Y-92796287D01*
X105910507Y-92557882D01*
X105767144Y-92343323D01*
X105602221Y-92178400D01*
X105767144Y-92013477D01*
X105910507Y-91798918D01*
X106009258Y-91560513D01*
X106043401Y-91388861D01*
X108185000Y-91388861D01*
X108185000Y-91592739D01*
X108224774Y-91792698D01*
X108302795Y-91981056D01*
X108416063Y-92150574D01*
X108560226Y-92294737D01*
X108729744Y-92408005D01*
X108918102Y-92486026D01*
X109118061Y-92525800D01*
X109321939Y-92525800D01*
X109521898Y-92486026D01*
X109651800Y-92432218D01*
X109781702Y-92486026D01*
X109981661Y-92525800D01*
X110185539Y-92525800D01*
X110385498Y-92486026D01*
X110573856Y-92408005D01*
X110743374Y-92294737D01*
X110887537Y-92150574D01*
X111000805Y-91981056D01*
X111078826Y-91792698D01*
X111118600Y-91592739D01*
X111118600Y-91388861D01*
X111078826Y-91188902D01*
X111000805Y-91000544D01*
X110887537Y-90831026D01*
X110743374Y-90686863D01*
X110573856Y-90573595D01*
X110385498Y-90495574D01*
X110185539Y-90455800D01*
X109981661Y-90455800D01*
X109781702Y-90495574D01*
X109651800Y-90549382D01*
X109521898Y-90495574D01*
X109321939Y-90455800D01*
X109118061Y-90455800D01*
X108918102Y-90495574D01*
X108729744Y-90573595D01*
X108560226Y-90686863D01*
X108416063Y-90831026D01*
X108302795Y-91000544D01*
X108224774Y-91188902D01*
X108185000Y-91388861D01*
X106043401Y-91388861D01*
X106059600Y-91307424D01*
X106059600Y-91049376D01*
X106009258Y-90796287D01*
X105910507Y-90557882D01*
X105767144Y-90343323D01*
X105602221Y-90178400D01*
X105767144Y-90013477D01*
X105910507Y-89798918D01*
X106009258Y-89560513D01*
X106059600Y-89307424D01*
X106059600Y-89049376D01*
X106009258Y-88796287D01*
X105910507Y-88557882D01*
X105901273Y-88544061D01*
X108083400Y-88544061D01*
X108083400Y-88747939D01*
X108123174Y-88947898D01*
X108201195Y-89136256D01*
X108314463Y-89305774D01*
X108458626Y-89449937D01*
X108628144Y-89563205D01*
X108816502Y-89641226D01*
X109016461Y-89681000D01*
X109220339Y-89681000D01*
X109420298Y-89641226D01*
X109550200Y-89587418D01*
X109680102Y-89641226D01*
X109880061Y-89681000D01*
X110083939Y-89681000D01*
X110283898Y-89641226D01*
X110472256Y-89563205D01*
X110641774Y-89449937D01*
X110785937Y-89305774D01*
X110899205Y-89136256D01*
X110977226Y-88947898D01*
X111017000Y-88747939D01*
X111017000Y-88544061D01*
X110977226Y-88344102D01*
X110899205Y-88155744D01*
X110785937Y-87986226D01*
X110641774Y-87842063D01*
X110628003Y-87832861D01*
X112604600Y-87832861D01*
X112604600Y-88036739D01*
X112644374Y-88236698D01*
X112722395Y-88425056D01*
X112835663Y-88594574D01*
X112979826Y-88738737D01*
X113149344Y-88852005D01*
X113337702Y-88930026D01*
X113537661Y-88969800D01*
X113741539Y-88969800D01*
X113941498Y-88930026D01*
X114129856Y-88852005D01*
X114299374Y-88738737D01*
X114443537Y-88594574D01*
X114556805Y-88425056D01*
X114634826Y-88236698D01*
X114674600Y-88036739D01*
X114674600Y-87832861D01*
X114634826Y-87632902D01*
X114556805Y-87444544D01*
X114443537Y-87275026D01*
X114299374Y-87130863D01*
X114129856Y-87017595D01*
X113941498Y-86939574D01*
X113741539Y-86899800D01*
X113537661Y-86899800D01*
X113337702Y-86939574D01*
X113149344Y-87017595D01*
X112979826Y-87130863D01*
X112835663Y-87275026D01*
X112722395Y-87444544D01*
X112644374Y-87632902D01*
X112604600Y-87832861D01*
X110628003Y-87832861D01*
X110472256Y-87728795D01*
X110283898Y-87650774D01*
X110083939Y-87611000D01*
X109880061Y-87611000D01*
X109680102Y-87650774D01*
X109550200Y-87704582D01*
X109420298Y-87650774D01*
X109220339Y-87611000D01*
X109016461Y-87611000D01*
X108816502Y-87650774D01*
X108628144Y-87728795D01*
X108458626Y-87842063D01*
X108314463Y-87986226D01*
X108201195Y-88155744D01*
X108123174Y-88344102D01*
X108083400Y-88544061D01*
X105901273Y-88544061D01*
X105767144Y-88343323D01*
X105602221Y-88178400D01*
X105767144Y-88013477D01*
X105910507Y-87798918D01*
X106009258Y-87560513D01*
X106059600Y-87307424D01*
X106059600Y-87049376D01*
X106009258Y-86796287D01*
X105910507Y-86557882D01*
X105767144Y-86343323D01*
X105602221Y-86178400D01*
X105767144Y-86013477D01*
X105910507Y-85798918D01*
X106009258Y-85560513D01*
X106059600Y-85307424D01*
X106059600Y-85049376D01*
X106009258Y-84796287D01*
X105910507Y-84557882D01*
X105767144Y-84343323D01*
X105595540Y-84171719D01*
X105727903Y-84049627D01*
X105879073Y-83842029D01*
X105983355Y-83616461D01*
X114077800Y-83616461D01*
X114077800Y-83820339D01*
X114117574Y-84020298D01*
X114195595Y-84208656D01*
X114308863Y-84378174D01*
X114453026Y-84522337D01*
X114622544Y-84635605D01*
X114810902Y-84713626D01*
X115010861Y-84753400D01*
X115214739Y-84753400D01*
X115414698Y-84713626D01*
X115603056Y-84635605D01*
X115772574Y-84522337D01*
X115916737Y-84378174D01*
X116030005Y-84208656D01*
X116108026Y-84020298D01*
X116147800Y-83820339D01*
X116147800Y-83616461D01*
X116108026Y-83416502D01*
X116030005Y-83228144D01*
X115916737Y-83058626D01*
X115772574Y-82914463D01*
X115603056Y-82801195D01*
X115414698Y-82723174D01*
X115214739Y-82683400D01*
X115010861Y-82683400D01*
X114810902Y-82723174D01*
X114622544Y-82801195D01*
X114453026Y-82914463D01*
X114308863Y-83058626D01*
X114195595Y-83228144D01*
X114117574Y-83416502D01*
X114077800Y-83616461D01*
X105983355Y-83616461D01*
X105986838Y-83608928D01*
X106017510Y-83507800D01*
X105893824Y-83305400D01*
X104876600Y-83305400D01*
X104876600Y-83325400D01*
X104622600Y-83325400D01*
X104622600Y-83305400D01*
X103605376Y-83305400D01*
X103481690Y-83507800D01*
X103512362Y-83608928D01*
X103620127Y-83842029D01*
X103771297Y-84049627D01*
X103903660Y-84171719D01*
X103732056Y-84343323D01*
X103588693Y-84557882D01*
X103489942Y-84796287D01*
X103439600Y-85049376D01*
X100991087Y-85049376D01*
X100888174Y-84946463D01*
X100718656Y-84833195D01*
X100530298Y-84755174D01*
X100330339Y-84715400D01*
X100324610Y-84715400D01*
X100360026Y-84629898D01*
X100399800Y-84429939D01*
X100399800Y-84226061D01*
X100360026Y-84026102D01*
X100282005Y-83837744D01*
X100168737Y-83668226D01*
X100024574Y-83524063D01*
X99855056Y-83410795D01*
X99666698Y-83332774D01*
X99466739Y-83293000D01*
X99262861Y-83293000D01*
X99062902Y-83332774D01*
X98874544Y-83410795D01*
X98705026Y-83524063D01*
X98560863Y-83668226D01*
X98447595Y-83837744D01*
X98369574Y-84026102D01*
X98329800Y-84226061D01*
X95761770Y-84226061D01*
X95745992Y-84178139D01*
X95473425Y-84047242D01*
X95180558Y-83972035D01*
X94956200Y-83959680D01*
X94956200Y-83821216D01*
X94938548Y-83732472D01*
X95395200Y-83732472D01*
X95607472Y-83711565D01*
X95811587Y-83649647D01*
X95999700Y-83549099D01*
X96164583Y-83413783D01*
X96299899Y-83248900D01*
X96400447Y-83060787D01*
X96462365Y-82856672D01*
X96483272Y-82644400D01*
X96483272Y-81744400D01*
X96469424Y-81603800D01*
X96469539Y-81603800D01*
X96669498Y-81564026D01*
X96857856Y-81486005D01*
X97027374Y-81372737D01*
X97171537Y-81228574D01*
X97284805Y-81059056D01*
X97362826Y-80870698D01*
X97402600Y-80670739D01*
X97402600Y-80466861D01*
X97362826Y-80266902D01*
X97284805Y-80078544D01*
X97171537Y-79909026D01*
X97027374Y-79764863D01*
X96857856Y-79651595D01*
X96669498Y-79573574D01*
X96469539Y-79533800D01*
X96265661Y-79533800D01*
X96065702Y-79573574D01*
X95996448Y-79602260D01*
X95994256Y-79600795D01*
X95805898Y-79522774D01*
X95605939Y-79483000D01*
X95402061Y-79483000D01*
X95202102Y-79522774D01*
X95013744Y-79600795D01*
X94864937Y-79700224D01*
X94834737Y-79655026D01*
X94690574Y-79510863D01*
X94521056Y-79397595D01*
X94332698Y-79319574D01*
X94132739Y-79279800D01*
X93928861Y-79279800D01*
X93728902Y-79319574D01*
X93540544Y-79397595D01*
X93371026Y-79510863D01*
X93226863Y-79655026D01*
X93113595Y-79824544D01*
X93035574Y-80012902D01*
X92995800Y-80212861D01*
X92995800Y-80416739D01*
X93035574Y-80616698D01*
X93113595Y-80805056D01*
X93226863Y-80974574D01*
X93371026Y-81118737D01*
X93540544Y-81232005D01*
X93541138Y-81232251D01*
X93489953Y-81328013D01*
X93428035Y-81532128D01*
X93407128Y-81744400D01*
X93407128Y-82437400D01*
X93270016Y-82437400D01*
X92973457Y-82496389D01*
X92694105Y-82612101D01*
X92442695Y-82780088D01*
X92228888Y-82993895D01*
X92060901Y-83245305D01*
X91945189Y-83524657D01*
X91886200Y-83821216D01*
X91211000Y-83821216D01*
X91211000Y-79644967D01*
X91305344Y-79708005D01*
X91493702Y-79786026D01*
X91693661Y-79825800D01*
X91897539Y-79825800D01*
X92097498Y-79786026D01*
X92285856Y-79708005D01*
X92455374Y-79594737D01*
X92599537Y-79450574D01*
X92696472Y-79305500D01*
X92745976Y-79305500D01*
X92941106Y-79266686D01*
X93124914Y-79190550D01*
X93290337Y-79080018D01*
X93431018Y-78939337D01*
X93541550Y-78773914D01*
X93617686Y-78590106D01*
X93656500Y-78394976D01*
X93656500Y-78196024D01*
X93617686Y-78000894D01*
X93541550Y-77817086D01*
X93431018Y-77651663D01*
X93290337Y-77510982D01*
X93124914Y-77400450D01*
X92941106Y-77324314D01*
X92745976Y-77285500D01*
X92547024Y-77285500D01*
X92351894Y-77324314D01*
X92168086Y-77400450D01*
X92002663Y-77510982D01*
X91861982Y-77651663D01*
X91792400Y-77755800D01*
X91744600Y-77755800D01*
X91675018Y-77651663D01*
X91534337Y-77510982D01*
X91368914Y-77400450D01*
X91211000Y-77335040D01*
X91211000Y-75971000D01*
X93702131Y-75971000D01*
X93574226Y-76056463D01*
G37*
X93574226Y-76056463D02*
X93430063Y-76200626D01*
X93316795Y-76370144D01*
X93238774Y-76558502D01*
X93199000Y-76758461D01*
X93199000Y-76962339D01*
X93238774Y-77162298D01*
X93316795Y-77350656D01*
X93430063Y-77520174D01*
X93574226Y-77664337D01*
X93743744Y-77777605D01*
X93932102Y-77855626D01*
X94132061Y-77895400D01*
X94335939Y-77895400D01*
X94535898Y-77855626D01*
X94724256Y-77777605D01*
X94893774Y-77664337D01*
X95037937Y-77520174D01*
X95151205Y-77350656D01*
X95229226Y-77162298D01*
X95269000Y-76962339D01*
X95269000Y-76758461D01*
X95229226Y-76558502D01*
X95151205Y-76370144D01*
X95037937Y-76200626D01*
X94893774Y-76056463D01*
X94765869Y-75971000D01*
X96998006Y-75971000D01*
X100383336Y-80191069D01*
X100400743Y-80208868D01*
X100421288Y-80222930D01*
X100444182Y-80232713D01*
X100468544Y-80237842D01*
X100482400Y-80238600D01*
X103496120Y-80238600D01*
X103485098Y-80259220D01*
X103448788Y-80378918D01*
X103436528Y-80503400D01*
X103436528Y-80881687D01*
X103407772Y-80875967D01*
X103203894Y-80875967D01*
X103003935Y-80915741D01*
X102815577Y-80993762D01*
X102646059Y-81107030D01*
X102501896Y-81251193D01*
X102388628Y-81420711D01*
X102310607Y-81609069D01*
X102270833Y-81809028D01*
X102270833Y-82012906D01*
X102310607Y-82212865D01*
X102388628Y-82401223D01*
X102501896Y-82570741D01*
X102646059Y-82714904D01*
X102815577Y-82828172D01*
X103003935Y-82906193D01*
X103203894Y-82945967D01*
X103407772Y-82945967D01*
X103526513Y-82922348D01*
X103605376Y-83051400D01*
X104622600Y-83051400D01*
X104622600Y-83031400D01*
X104876600Y-83031400D01*
X104876600Y-83051400D01*
X105893824Y-83051400D01*
X106017510Y-82849000D01*
X105986838Y-82747872D01*
X105879073Y-82514771D01*
X105782041Y-82381519D01*
X105875785Y-82304585D01*
X105955137Y-82207894D01*
X106014102Y-82097580D01*
X106050412Y-81977882D01*
X106062672Y-81853400D01*
X106062672Y-80503400D01*
X106050412Y-80378918D01*
X106014102Y-80259220D01*
X106003080Y-80238600D01*
X117652800Y-80238600D01*
X117677576Y-80236160D01*
X117701401Y-80228933D01*
X117723357Y-80217197D01*
X117745131Y-80198801D01*
X118081165Y-79843000D01*
X119032128Y-79843000D01*
X119032128Y-81193000D01*
X119044388Y-81317482D01*
X119080698Y-81437180D01*
X119139663Y-81547494D01*
X119219015Y-81644185D01*
X119305897Y-81715487D01*
X119184293Y-81897482D01*
X119085542Y-82135887D01*
X119035200Y-82388976D01*
X119035200Y-82647024D01*
X119085542Y-82900113D01*
X119184293Y-83138518D01*
X119327656Y-83353077D01*
X119492579Y-83518000D01*
X119327656Y-83682923D01*
X119184293Y-83897482D01*
X119085542Y-84135887D01*
X119035200Y-84388976D01*
X119035200Y-84647024D01*
X119085542Y-84900113D01*
X119184293Y-85138518D01*
X119327656Y-85353077D01*
X119492579Y-85518000D01*
X119327656Y-85682923D01*
X119184293Y-85897482D01*
X119085542Y-86135887D01*
X119035200Y-86388976D01*
X119035200Y-86647024D01*
X119085542Y-86900113D01*
X119184293Y-87138518D01*
X119327656Y-87353077D01*
X119492579Y-87518000D01*
X119327656Y-87682923D01*
X119184293Y-87897482D01*
X119085542Y-88135887D01*
X119035200Y-88388976D01*
X119035200Y-88647024D01*
X119085542Y-88900113D01*
X119184293Y-89138518D01*
X119327656Y-89353077D01*
X119492579Y-89518000D01*
X119327656Y-89682923D01*
X119184293Y-89897482D01*
X119085542Y-90135887D01*
X119035200Y-90388976D01*
X119035200Y-90647024D01*
X119085542Y-90900113D01*
X119184293Y-91138518D01*
X119327656Y-91353077D01*
X119510123Y-91535544D01*
X119724682Y-91678907D01*
X119963087Y-91777658D01*
X120216176Y-91828000D01*
X120474224Y-91828000D01*
X120727313Y-91777658D01*
X120965718Y-91678907D01*
X121180277Y-91535544D01*
X121362744Y-91353077D01*
X121506107Y-91138518D01*
X121604858Y-90900113D01*
X121655200Y-90647024D01*
X121655200Y-90388976D01*
X121604858Y-90135887D01*
X121506107Y-89897482D01*
X121362744Y-89682923D01*
X121197821Y-89518000D01*
X121362744Y-89353077D01*
X121506107Y-89138518D01*
X121584003Y-88950461D01*
X121951800Y-88950461D01*
X121951800Y-89154339D01*
X121991574Y-89354298D01*
X122069595Y-89542656D01*
X122182863Y-89712174D01*
X122327026Y-89856337D01*
X122496544Y-89969605D01*
X122684902Y-90047626D01*
X122884861Y-90087400D01*
X123088739Y-90087400D01*
X123288698Y-90047626D01*
X123477056Y-89969605D01*
X123646574Y-89856337D01*
X123790737Y-89712174D01*
X123904005Y-89542656D01*
X123982026Y-89354298D01*
X124021800Y-89154339D01*
X124021800Y-88950461D01*
X123982026Y-88750502D01*
X123904005Y-88562144D01*
X123790737Y-88392626D01*
X123646574Y-88248463D01*
X123544668Y-88180372D01*
X123697374Y-88078337D01*
X123841537Y-87934174D01*
X123904168Y-87840440D01*
X123858600Y-88069527D01*
X123858600Y-88308073D01*
X123905138Y-88542036D01*
X123996425Y-88762424D01*
X124128954Y-88960768D01*
X124297632Y-89129446D01*
X124495976Y-89261975D01*
X124716364Y-89353262D01*
X124950327Y-89399800D01*
X125188873Y-89399800D01*
X125422836Y-89353262D01*
X125643224Y-89261975D01*
X125841568Y-89129446D01*
X126010246Y-88960768D01*
X126142775Y-88762424D01*
X126234062Y-88542036D01*
X126280600Y-88308073D01*
X126280600Y-88069527D01*
X126234062Y-87835564D01*
X126142775Y-87615176D01*
X126010246Y-87416832D01*
X125841568Y-87248154D01*
X125643224Y-87115625D01*
X125422836Y-87024338D01*
X125188873Y-86977800D01*
X124950327Y-86977800D01*
X124716364Y-87024338D01*
X124495976Y-87115625D01*
X124297632Y-87248154D01*
X124128954Y-87416832D01*
X124037244Y-87554085D01*
X124072600Y-87376339D01*
X124072600Y-87172461D01*
X124032826Y-86972502D01*
X123954805Y-86784144D01*
X123841537Y-86614626D01*
X123697374Y-86470463D01*
X123527856Y-86357195D01*
X123339498Y-86279174D01*
X123139539Y-86239400D01*
X122935661Y-86239400D01*
X122735702Y-86279174D01*
X122547344Y-86357195D01*
X122377826Y-86470463D01*
X122233663Y-86614626D01*
X122120395Y-86784144D01*
X122042374Y-86972502D01*
X122002600Y-87172461D01*
X122002600Y-87376339D01*
X122042374Y-87576298D01*
X122120395Y-87764656D01*
X122233663Y-87934174D01*
X122377826Y-88078337D01*
X122479732Y-88146428D01*
X122327026Y-88248463D01*
X122182863Y-88392626D01*
X122069595Y-88562144D01*
X121991574Y-88750502D01*
X121951800Y-88950461D01*
X121584003Y-88950461D01*
X121604858Y-88900113D01*
X121655200Y-88647024D01*
X121655200Y-88388976D01*
X121604858Y-88135887D01*
X121506107Y-87897482D01*
X121362744Y-87682923D01*
X121197821Y-87518000D01*
X121362744Y-87353077D01*
X121506107Y-87138518D01*
X121604858Y-86900113D01*
X121655200Y-86647024D01*
X121655200Y-86388976D01*
X121604858Y-86135887D01*
X121506107Y-85897482D01*
X121362744Y-85682923D01*
X121197821Y-85518000D01*
X121362744Y-85353077D01*
X121506107Y-85138518D01*
X121604858Y-84900113D01*
X121610678Y-84870853D01*
X123533005Y-82948526D01*
X123610741Y-83136198D01*
X123734439Y-83321324D01*
X123891876Y-83478761D01*
X124077002Y-83602459D01*
X124282704Y-83687663D01*
X124501075Y-83731100D01*
X124723725Y-83731100D01*
X124730620Y-83729728D01*
X124824463Y-83870174D01*
X124968626Y-84014337D01*
X125138144Y-84127605D01*
X125326502Y-84205626D01*
X125526461Y-84245400D01*
X125730339Y-84245400D01*
X125930298Y-84205626D01*
X126118656Y-84127605D01*
X126288174Y-84014337D01*
X126432337Y-83870174D01*
X126526180Y-83729728D01*
X126533075Y-83731100D01*
X126755725Y-83731100D01*
X126974096Y-83687663D01*
X127179798Y-83602459D01*
X127364924Y-83478761D01*
X127522361Y-83321324D01*
X127646059Y-83136198D01*
X127731263Y-82930496D01*
X127774700Y-82712125D01*
X127774700Y-82489475D01*
X127731263Y-82271104D01*
X127715574Y-82233226D01*
X127862974Y-82134737D01*
X128007137Y-81990574D01*
X128120405Y-81821056D01*
X128198426Y-81632698D01*
X128238200Y-81432739D01*
X128238200Y-81228861D01*
X128198426Y-81028902D01*
X128120405Y-80840544D01*
X128015262Y-80683186D01*
X128069605Y-80601856D01*
X128147626Y-80413498D01*
X128187400Y-80213539D01*
X128187400Y-80009661D01*
X128147626Y-79809702D01*
X128069605Y-79621344D01*
X128040699Y-79578083D01*
X128045407Y-79572346D01*
X128150799Y-79375170D01*
X128215700Y-79161222D01*
X128237614Y-78938723D01*
X128215700Y-78716224D01*
X128150799Y-78502276D01*
X128045407Y-78305100D01*
X127911068Y-78141408D01*
X127933400Y-78029139D01*
X127933400Y-77825261D01*
X127893626Y-77625302D01*
X127815605Y-77436944D01*
X127702337Y-77267426D01*
X127558174Y-77123263D01*
X127388656Y-77009995D01*
X127200298Y-76931974D01*
X127000339Y-76892200D01*
X126796461Y-76892200D01*
X126596502Y-76931974D01*
X126594824Y-76932669D01*
X126506361Y-76800276D01*
X126348924Y-76642839D01*
X126163798Y-76519141D01*
X125958096Y-76433937D01*
X125739725Y-76390500D01*
X125517075Y-76390500D01*
X125298704Y-76433937D01*
X125093002Y-76519141D01*
X124907876Y-76642839D01*
X124750439Y-76800276D01*
X124626741Y-76985402D01*
X124541537Y-77191104D01*
X124498100Y-77409475D01*
X124498100Y-77632125D01*
X124541537Y-77850496D01*
X124626741Y-78056198D01*
X124750439Y-78241324D01*
X124890192Y-78381077D01*
X121453107Y-81818162D01*
X121384503Y-81715487D01*
X121471385Y-81644185D01*
X121550737Y-81547494D01*
X121609702Y-81437180D01*
X121646012Y-81317482D01*
X121658272Y-81193000D01*
X121658272Y-79843000D01*
X121646012Y-79718518D01*
X121609702Y-79598820D01*
X121550737Y-79488506D01*
X121471385Y-79391815D01*
X121374694Y-79312463D01*
X121264380Y-79253498D01*
X121144682Y-79217188D01*
X121020200Y-79204928D01*
X119670200Y-79204928D01*
X119545718Y-79217188D01*
X119426020Y-79253498D01*
X119315706Y-79312463D01*
X119219015Y-79391815D01*
X119139663Y-79488506D01*
X119080698Y-79598820D01*
X119044388Y-79718518D01*
X119032128Y-79843000D01*
X118081165Y-79843000D01*
X121738054Y-75971000D01*
X128435501Y-75971000D01*
X128435500Y-91153581D01*
X128432307Y-91186000D01*
X128445050Y-91315383D01*
X128482790Y-91439793D01*
X128544075Y-91554450D01*
X128626552Y-91654948D01*
X128727050Y-91737425D01*
X128766115Y-91758305D01*
X128758145Y-95225279D01*
X128622698Y-95169174D01*
X128422739Y-95129400D01*
X128218861Y-95129400D01*
X128018902Y-95169174D01*
X127830544Y-95247195D01*
X127661026Y-95360463D01*
X127516863Y-95504626D01*
X127403595Y-95674144D01*
X127325574Y-95862502D01*
X127285800Y-96062461D01*
X127285800Y-96266339D01*
X127325574Y-96466298D01*
X127389903Y-96621600D01*
X127325574Y-96776902D01*
X127285800Y-96976861D01*
X127285800Y-97130000D01*
X118484588Y-97130000D01*
X118484600Y-97129939D01*
X118484600Y-96926061D01*
X118444826Y-96726102D01*
X118366805Y-96537744D01*
X118253537Y-96368226D01*
X118109374Y-96224063D01*
X117939856Y-96110795D01*
X117751498Y-96032774D01*
X117551539Y-95993000D01*
X117347661Y-95993000D01*
X117147702Y-96032774D01*
X116959344Y-96110795D01*
X116859000Y-96177843D01*
X116859000Y-96062461D01*
X116819226Y-95862502D01*
X116741205Y-95674144D01*
X116627937Y-95504626D01*
X116483774Y-95360463D01*
X116314256Y-95247195D01*
X116125898Y-95169174D01*
X115925939Y-95129400D01*
X115722061Y-95129400D01*
X115522102Y-95169174D01*
X115333744Y-95247195D01*
X115164226Y-95360463D01*
X115020063Y-95504626D01*
X114906795Y-95674144D01*
X114828774Y-95862502D01*
X114789000Y-96062461D01*
X114789000Y-96266339D01*
X114828774Y-96466298D01*
X114906795Y-96654656D01*
X115020063Y-96824174D01*
X115164226Y-96968337D01*
X115195400Y-96989167D01*
X115195400Y-97129939D01*
X115195412Y-97130000D01*
X103187150Y-97130000D01*
X103272462Y-96924036D01*
X103319000Y-96690073D01*
X103319000Y-96451527D01*
X103272462Y-96217564D01*
X103181175Y-95997176D01*
X103048646Y-95798832D01*
X102879968Y-95630154D01*
X102681624Y-95497625D01*
X102461236Y-95406338D01*
X102227273Y-95359800D01*
X101988727Y-95359800D01*
X101754764Y-95406338D01*
X101534376Y-95497625D01*
X101336032Y-95630154D01*
X101167354Y-95798832D01*
X101034825Y-95997176D01*
X100943538Y-96217564D01*
X100897000Y-96451527D01*
X100897000Y-96690073D01*
X100943538Y-96924036D01*
X101028850Y-97130000D01*
X100196600Y-97130000D01*
X100196600Y-96976861D01*
X100156826Y-96776902D01*
X100078805Y-96588544D01*
X99965537Y-96419026D01*
X99821374Y-96274863D01*
X99651856Y-96161595D01*
X99463498Y-96083574D01*
X99263539Y-96043800D01*
X99059661Y-96043800D01*
X98859702Y-96083574D01*
X98671344Y-96161595D01*
X98501826Y-96274863D01*
X98357663Y-96419026D01*
X98244395Y-96588544D01*
X98166374Y-96776902D01*
X98126600Y-96976861D01*
X98126600Y-97130000D01*
X97250188Y-97130000D01*
X97250200Y-97129939D01*
X97250200Y-96926061D01*
X97210426Y-96726102D01*
X97132405Y-96537744D01*
X97019137Y-96368226D01*
X96874974Y-96224063D01*
X96705456Y-96110795D01*
X96517098Y-96032774D01*
X96317139Y-95993000D01*
X96113261Y-95993000D01*
X95913302Y-96032774D01*
X95724944Y-96110795D01*
X95555426Y-96224063D01*
X95411263Y-96368226D01*
X95297995Y-96537744D01*
X95219974Y-96726102D01*
X95180200Y-96926061D01*
X95180200Y-97129939D01*
X95180212Y-97130000D01*
X91211000Y-97130000D01*
X91211000Y-96771095D01*
X91290502Y-96804026D01*
X91490461Y-96843800D01*
X91694339Y-96843800D01*
X91894298Y-96804026D01*
X92082656Y-96726005D01*
X92252174Y-96612737D01*
X92396337Y-96468574D01*
X92509605Y-96299056D01*
X92587626Y-96110698D01*
X92627400Y-95910739D01*
X92627400Y-95706861D01*
X92587626Y-95506902D01*
X92509605Y-95318544D01*
X92396337Y-95149026D01*
X92252174Y-95004863D01*
X92082656Y-94891595D01*
X91894298Y-94813574D01*
X91694339Y-94773800D01*
X91490461Y-94773800D01*
X91290502Y-94813574D01*
X91211000Y-94846505D01*
X91211000Y-93665767D01*
X91305344Y-93728805D01*
X91493702Y-93806826D01*
X91693661Y-93846600D01*
X91897539Y-93846600D01*
X92097498Y-93806826D01*
X92285856Y-93728805D01*
X92455374Y-93615537D01*
X92599537Y-93471374D01*
X92687986Y-93339000D01*
X92745976Y-93339000D01*
X92941106Y-93300186D01*
X93124914Y-93224050D01*
X93281387Y-93119498D01*
X93320226Y-93158337D01*
X93489744Y-93271605D01*
X93678102Y-93349626D01*
X93878061Y-93389400D01*
X94081939Y-93389400D01*
X94281898Y-93349626D01*
X94470256Y-93271605D01*
X94639774Y-93158337D01*
X94783937Y-93014174D01*
X94897205Y-92844656D01*
X94975226Y-92656298D01*
X95015000Y-92456339D01*
X95015000Y-92252461D01*
X94975226Y-92052502D01*
X94897205Y-91864144D01*
X94783937Y-91694626D01*
X94732172Y-91642861D01*
X95180200Y-91642861D01*
X95180200Y-91846739D01*
X95219974Y-92046698D01*
X95297995Y-92235056D01*
X95411263Y-92404574D01*
X95555426Y-92548737D01*
X95724944Y-92662005D01*
X95913302Y-92740026D01*
X96113261Y-92779800D01*
X96317139Y-92779800D01*
X96517098Y-92740026D01*
X96705456Y-92662005D01*
X96874974Y-92548737D01*
X97019137Y-92404574D01*
X97132405Y-92235056D01*
X97210426Y-92046698D01*
X97250200Y-91846739D01*
X97250200Y-91642861D01*
X97210426Y-91442902D01*
X97132405Y-91254544D01*
X97019137Y-91085026D01*
X96874974Y-90940863D01*
X96705456Y-90827595D01*
X96517098Y-90749574D01*
X96317139Y-90709800D01*
X96113261Y-90709800D01*
X95913302Y-90749574D01*
X95724944Y-90827595D01*
X95555426Y-90940863D01*
X95411263Y-91085026D01*
X95297995Y-91254544D01*
X95219974Y-91442902D01*
X95180200Y-91642861D01*
X94732172Y-91642861D01*
X94639774Y-91550463D01*
X94470256Y-91437195D01*
X94281898Y-91359174D01*
X94081939Y-91319400D01*
X93878061Y-91319400D01*
X93678102Y-91359174D01*
X93489744Y-91437195D01*
X93320226Y-91550463D01*
X93308272Y-91562417D01*
X93290337Y-91544482D01*
X93124914Y-91433950D01*
X92941106Y-91357814D01*
X92745976Y-91319000D01*
X92547024Y-91319000D01*
X92351894Y-91357814D01*
X92168086Y-91433950D01*
X92002663Y-91544482D01*
X91861982Y-91685163D01*
X91800886Y-91776600D01*
X91736114Y-91776600D01*
X91675018Y-91685163D01*
X91534337Y-91544482D01*
X91368914Y-91433950D01*
X91211000Y-91368540D01*
X91211000Y-83821216D01*
X91886200Y-83821216D01*
X91886200Y-84123584D01*
X91945189Y-84420143D01*
X92060901Y-84699495D01*
X92228888Y-84950905D01*
X92442695Y-85164712D01*
X92694105Y-85332699D01*
X92973457Y-85448411D01*
X93214715Y-85496400D01*
X92973457Y-85544389D01*
X92694105Y-85660101D01*
X92442695Y-85828088D01*
X92228888Y-86041895D01*
X92060901Y-86293305D01*
X91945189Y-86572657D01*
X91886200Y-86869216D01*
X91886200Y-87171584D01*
X91945189Y-87468143D01*
X92060901Y-87747495D01*
X92228888Y-87998905D01*
X92442695Y-88212712D01*
X92694105Y-88380699D01*
X92973457Y-88496411D01*
X93270016Y-88555400D01*
X93572384Y-88555400D01*
X93868943Y-88496411D01*
X94148295Y-88380699D01*
X94399705Y-88212712D01*
X94613512Y-87998905D01*
X94781499Y-87747495D01*
X94897211Y-87468143D01*
X94902530Y-87441400D01*
X97035728Y-87441400D01*
X97047988Y-87565882D01*
X97084298Y-87685580D01*
X97143263Y-87795894D01*
X97222615Y-87892585D01*
X97309497Y-87963887D01*
X97187893Y-88145882D01*
X97089142Y-88384287D01*
X97038800Y-88637376D01*
X97038800Y-88895424D01*
X97089142Y-89148513D01*
X97187893Y-89386918D01*
X97331256Y-89601477D01*
X97496179Y-89766400D01*
X97331256Y-89931323D01*
X97187893Y-90145882D01*
X97089142Y-90384287D01*
X97038800Y-90637376D01*
X97038800Y-90895424D01*
X97089142Y-91148513D01*
X97187893Y-91386918D01*
X97331256Y-91601477D01*
X97496179Y-91766400D01*
X97331256Y-91931323D01*
X97187893Y-92145882D01*
X97089142Y-92384287D01*
X97038800Y-92637376D01*
X97038800Y-92895424D01*
X97089142Y-93148513D01*
X97187893Y-93386918D01*
X97331256Y-93601477D01*
X97513723Y-93783944D01*
X97728282Y-93927307D01*
X97966687Y-94026058D01*
X98219776Y-94076400D01*
X98477824Y-94076400D01*
X98730913Y-94026058D01*
X98969318Y-93927307D01*
X99183877Y-93783944D01*
X99366344Y-93601477D01*
X99509707Y-93386918D01*
X99608458Y-93148513D01*
X99658800Y-92895424D01*
X99658800Y-92637376D01*
X99608458Y-92384287D01*
X99509707Y-92145882D01*
X99366344Y-91931323D01*
X99201421Y-91766400D01*
X99366344Y-91601477D01*
X99509707Y-91386918D01*
X99608458Y-91148513D01*
X99658800Y-90895424D01*
X99658800Y-90637376D01*
X99608458Y-90384287D01*
X99509707Y-90145882D01*
X99366344Y-89931323D01*
X99201421Y-89766400D01*
X99366344Y-89601477D01*
X99509707Y-89386918D01*
X99608458Y-89148513D01*
X99658800Y-88895424D01*
X99658800Y-88637376D01*
X99608458Y-88384287D01*
X99509707Y-88145882D01*
X99388103Y-87963887D01*
X99474985Y-87892585D01*
X99554337Y-87795894D01*
X99613302Y-87685580D01*
X99649612Y-87565882D01*
X99661872Y-87441400D01*
X99658800Y-87052150D01*
X99500050Y-86893400D01*
X98475800Y-86893400D01*
X98475800Y-86913400D01*
X98221800Y-86913400D01*
X98221800Y-86893400D01*
X97197550Y-86893400D01*
X97038800Y-87052150D01*
X97035728Y-87441400D01*
X94902530Y-87441400D01*
X94956200Y-87171584D01*
X94956200Y-87034332D01*
X95011753Y-87037391D01*
X95311107Y-86994797D01*
X95596399Y-86894622D01*
X95745992Y-86814661D01*
X95829675Y-86560480D01*
X94945200Y-85676005D01*
X94931058Y-85690148D01*
X94751453Y-85510543D01*
X94765595Y-85496400D01*
X95124805Y-85496400D01*
X96009280Y-86380875D01*
X96263461Y-86297192D01*
X96362290Y-86091400D01*
X97035728Y-86091400D01*
X97038800Y-86480650D01*
X97197550Y-86639400D01*
X98221800Y-86639400D01*
X98221800Y-85615150D01*
X98063050Y-85456400D01*
X97673800Y-85453328D01*
X97549318Y-85465588D01*
X97429620Y-85501898D01*
X97319306Y-85560863D01*
X97222615Y-85640215D01*
X97143263Y-85736906D01*
X97084298Y-85847220D01*
X97047988Y-85966918D01*
X97035728Y-86091400D01*
X96362290Y-86091400D01*
X96394358Y-86024625D01*
X96469565Y-85731758D01*
X96486191Y-85429847D01*
X96443597Y-85130493D01*
X96343422Y-84845201D01*
X96263461Y-84695608D01*
X96009280Y-84611925D01*
X95124805Y-85496400D01*
X94765595Y-85496400D01*
X94751453Y-85482258D01*
X94931058Y-85302653D01*
X94945200Y-85316795D01*
X95829675Y-84432320D01*
X95761770Y-84226061D01*
X98329800Y-84226061D01*
X98329800Y-84429939D01*
X98369574Y-84629898D01*
X98447595Y-84818256D01*
X98560863Y-84987774D01*
X98705026Y-85131937D01*
X98874544Y-85245205D01*
X99062902Y-85323226D01*
X99262861Y-85363000D01*
X99268590Y-85363000D01*
X99233174Y-85448502D01*
X99225138Y-85488902D01*
X99148282Y-85465588D01*
X99023800Y-85453328D01*
X98634550Y-85456400D01*
X98475800Y-85615150D01*
X98475800Y-86639400D01*
X99500050Y-86639400D01*
X99578509Y-86560941D01*
X99738144Y-86667605D01*
X99926502Y-86745626D01*
X100126461Y-86785400D01*
X100330339Y-86785400D01*
X100530298Y-86745626D01*
X100718656Y-86667605D01*
X100888174Y-86554337D01*
X101032337Y-86410174D01*
X101145605Y-86240656D01*
X101223626Y-86052298D01*
X101263400Y-85852339D01*
X101263400Y-85648461D01*
X101223626Y-85448502D01*
X101145605Y-85260144D01*
X101032337Y-85090626D01*
X100991087Y-85049376D01*
X103439600Y-85049376D01*
X103439600Y-85307424D01*
X103489942Y-85560513D01*
X103588693Y-85798918D01*
X103732056Y-86013477D01*
X103896979Y-86178400D01*
X103732056Y-86343323D01*
X103588693Y-86557882D01*
X103489942Y-86796287D01*
X103439600Y-87049376D01*
X103439600Y-87307424D01*
X103489942Y-87560513D01*
X103588693Y-87798918D01*
X103732056Y-88013477D01*
X103896979Y-88178400D01*
X103732056Y-88343323D01*
X103588693Y-88557882D01*
X103489942Y-88796287D01*
X103439600Y-89049376D01*
X103439600Y-89307424D01*
X103489942Y-89560513D01*
X103588693Y-89798918D01*
X103732056Y-90013477D01*
X103896979Y-90178400D01*
X103732056Y-90343323D01*
X103588693Y-90557882D01*
X103489942Y-90796287D01*
X103439600Y-91049376D01*
X103439600Y-91307424D01*
X103489942Y-91560513D01*
X103588693Y-91798918D01*
X103732056Y-92013477D01*
X103896979Y-92178400D01*
X103732056Y-92343323D01*
X103588693Y-92557882D01*
X103489942Y-92796287D01*
X103439600Y-93049376D01*
X103439600Y-93307424D01*
X103489942Y-93560513D01*
X103588693Y-93798918D01*
X103732056Y-94013477D01*
X103914523Y-94195944D01*
X104129082Y-94339307D01*
X104367487Y-94438058D01*
X104620576Y-94488400D01*
X104878624Y-94488400D01*
X105131713Y-94438058D01*
X105370118Y-94339307D01*
X105584677Y-94195944D01*
X105645478Y-94135143D01*
X105684774Y-94332698D01*
X105762795Y-94521056D01*
X105876063Y-94690574D01*
X106020226Y-94834737D01*
X106189744Y-94948005D01*
X106378102Y-95026026D01*
X106578061Y-95065800D01*
X106781939Y-95065800D01*
X106981898Y-95026026D01*
X107170256Y-94948005D01*
X107213400Y-94919177D01*
X107256544Y-94948005D01*
X107444902Y-95026026D01*
X107644861Y-95065800D01*
X107848739Y-95065800D01*
X108048698Y-95026026D01*
X108237056Y-94948005D01*
X108406574Y-94834737D01*
X108550737Y-94690574D01*
X108664005Y-94521056D01*
X108742026Y-94332698D01*
X108781800Y-94132739D01*
X108781800Y-93928861D01*
X108742026Y-93728902D01*
X108664005Y-93540544D01*
X108550737Y-93371026D01*
X108406574Y-93226863D01*
X108237056Y-93113595D01*
X108048698Y-93035574D01*
X107848739Y-92995800D01*
X107644861Y-92995800D01*
X107444902Y-93035574D01*
X107256544Y-93113595D01*
X107213400Y-93142423D01*
X107170256Y-93113595D01*
X106981898Y-93035574D01*
X106781939Y-92995800D01*
X106578061Y-92995800D01*
X106378102Y-93035574D01*
X106189744Y-93113595D01*
X106059600Y-93200554D01*
X106059600Y-93049376D01*
X106019505Y-92847800D01*
X119032128Y-92847800D01*
X119032128Y-94197800D01*
X119044388Y-94322282D01*
X119080698Y-94441980D01*
X119139663Y-94552294D01*
X119219015Y-94648985D01*
X119305897Y-94720287D01*
X119184293Y-94902282D01*
X119085542Y-95140687D01*
X119035200Y-95393776D01*
X119035200Y-95651824D01*
X119085542Y-95904913D01*
X119184293Y-96143318D01*
X119327656Y-96357877D01*
X119510123Y-96540344D01*
X119724682Y-96683707D01*
X119963087Y-96782458D01*
X120216176Y-96832800D01*
X120474224Y-96832800D01*
X120727313Y-96782458D01*
X120965718Y-96683707D01*
X121180277Y-96540344D01*
X121362744Y-96357877D01*
X121506107Y-96143318D01*
X121604858Y-95904913D01*
X121655200Y-95651824D01*
X121655200Y-95393776D01*
X121604858Y-95140687D01*
X121538879Y-94981400D01*
X123908928Y-94981400D01*
X123908928Y-96331400D01*
X123921188Y-96455882D01*
X123957498Y-96575580D01*
X124016463Y-96685894D01*
X124095815Y-96782585D01*
X124192506Y-96861937D01*
X124302820Y-96920902D01*
X124422518Y-96957212D01*
X124547000Y-96969472D01*
X125897000Y-96969472D01*
X126021482Y-96957212D01*
X126141180Y-96920902D01*
X126251494Y-96861937D01*
X126348185Y-96782585D01*
X126427537Y-96685894D01*
X126486502Y-96575580D01*
X126522812Y-96455882D01*
X126535072Y-96331400D01*
X126535072Y-94981400D01*
X126522812Y-94856918D01*
X126486502Y-94737220D01*
X126427537Y-94626906D01*
X126348185Y-94530215D01*
X126251494Y-94450863D01*
X126141180Y-94391898D01*
X126021482Y-94355588D01*
X125897000Y-94343328D01*
X124547000Y-94343328D01*
X124422518Y-94355588D01*
X124302820Y-94391898D01*
X124192506Y-94450863D01*
X124095815Y-94530215D01*
X124016463Y-94626906D01*
X123957498Y-94737220D01*
X123921188Y-94856918D01*
X123908928Y-94981400D01*
X121538879Y-94981400D01*
X121506107Y-94902282D01*
X121384503Y-94720287D01*
X121471385Y-94648985D01*
X121550737Y-94552294D01*
X121609702Y-94441980D01*
X121646012Y-94322282D01*
X121658272Y-94197800D01*
X121658272Y-92847800D01*
X121646012Y-92723318D01*
X121609702Y-92603620D01*
X121550737Y-92493306D01*
X121471385Y-92396615D01*
X121374694Y-92317263D01*
X121264380Y-92258298D01*
X121144682Y-92221988D01*
X121020200Y-92209728D01*
X119670200Y-92209728D01*
X119545718Y-92221988D01*
X119426020Y-92258298D01*
X119315706Y-92317263D01*
X119219015Y-92396615D01*
X119139663Y-92493306D01*
X119080698Y-92603620D01*
X119044388Y-92723318D01*
X119032128Y-92847800D01*
X106019505Y-92847800D01*
X106009258Y-92796287D01*
X105910507Y-92557882D01*
X105767144Y-92343323D01*
X105602221Y-92178400D01*
X105767144Y-92013477D01*
X105910507Y-91798918D01*
X106009258Y-91560513D01*
X106043401Y-91388861D01*
X108185000Y-91388861D01*
X108185000Y-91592739D01*
X108224774Y-91792698D01*
X108302795Y-91981056D01*
X108416063Y-92150574D01*
X108560226Y-92294737D01*
X108729744Y-92408005D01*
X108918102Y-92486026D01*
X109118061Y-92525800D01*
X109321939Y-92525800D01*
X109521898Y-92486026D01*
X109651800Y-92432218D01*
X109781702Y-92486026D01*
X109981661Y-92525800D01*
X110185539Y-92525800D01*
X110385498Y-92486026D01*
X110573856Y-92408005D01*
X110743374Y-92294737D01*
X110887537Y-92150574D01*
X111000805Y-91981056D01*
X111078826Y-91792698D01*
X111118600Y-91592739D01*
X111118600Y-91388861D01*
X111078826Y-91188902D01*
X111000805Y-91000544D01*
X110887537Y-90831026D01*
X110743374Y-90686863D01*
X110573856Y-90573595D01*
X110385498Y-90495574D01*
X110185539Y-90455800D01*
X109981661Y-90455800D01*
X109781702Y-90495574D01*
X109651800Y-90549382D01*
X109521898Y-90495574D01*
X109321939Y-90455800D01*
X109118061Y-90455800D01*
X108918102Y-90495574D01*
X108729744Y-90573595D01*
X108560226Y-90686863D01*
X108416063Y-90831026D01*
X108302795Y-91000544D01*
X108224774Y-91188902D01*
X108185000Y-91388861D01*
X106043401Y-91388861D01*
X106059600Y-91307424D01*
X106059600Y-91049376D01*
X106009258Y-90796287D01*
X105910507Y-90557882D01*
X105767144Y-90343323D01*
X105602221Y-90178400D01*
X105767144Y-90013477D01*
X105910507Y-89798918D01*
X106009258Y-89560513D01*
X106059600Y-89307424D01*
X106059600Y-89049376D01*
X106009258Y-88796287D01*
X105910507Y-88557882D01*
X105901273Y-88544061D01*
X108083400Y-88544061D01*
X108083400Y-88747939D01*
X108123174Y-88947898D01*
X108201195Y-89136256D01*
X108314463Y-89305774D01*
X108458626Y-89449937D01*
X108628144Y-89563205D01*
X108816502Y-89641226D01*
X109016461Y-89681000D01*
X109220339Y-89681000D01*
X109420298Y-89641226D01*
X109550200Y-89587418D01*
X109680102Y-89641226D01*
X109880061Y-89681000D01*
X110083939Y-89681000D01*
X110283898Y-89641226D01*
X110472256Y-89563205D01*
X110641774Y-89449937D01*
X110785937Y-89305774D01*
X110899205Y-89136256D01*
X110977226Y-88947898D01*
X111017000Y-88747939D01*
X111017000Y-88544061D01*
X110977226Y-88344102D01*
X110899205Y-88155744D01*
X110785937Y-87986226D01*
X110641774Y-87842063D01*
X110628003Y-87832861D01*
X112604600Y-87832861D01*
X112604600Y-88036739D01*
X112644374Y-88236698D01*
X112722395Y-88425056D01*
X112835663Y-88594574D01*
X112979826Y-88738737D01*
X113149344Y-88852005D01*
X113337702Y-88930026D01*
X113537661Y-88969800D01*
X113741539Y-88969800D01*
X113941498Y-88930026D01*
X114129856Y-88852005D01*
X114299374Y-88738737D01*
X114443537Y-88594574D01*
X114556805Y-88425056D01*
X114634826Y-88236698D01*
X114674600Y-88036739D01*
X114674600Y-87832861D01*
X114634826Y-87632902D01*
X114556805Y-87444544D01*
X114443537Y-87275026D01*
X114299374Y-87130863D01*
X114129856Y-87017595D01*
X113941498Y-86939574D01*
X113741539Y-86899800D01*
X113537661Y-86899800D01*
X113337702Y-86939574D01*
X113149344Y-87017595D01*
X112979826Y-87130863D01*
X112835663Y-87275026D01*
X112722395Y-87444544D01*
X112644374Y-87632902D01*
X112604600Y-87832861D01*
X110628003Y-87832861D01*
X110472256Y-87728795D01*
X110283898Y-87650774D01*
X110083939Y-87611000D01*
X109880061Y-87611000D01*
X109680102Y-87650774D01*
X109550200Y-87704582D01*
X109420298Y-87650774D01*
X109220339Y-87611000D01*
X109016461Y-87611000D01*
X108816502Y-87650774D01*
X108628144Y-87728795D01*
X108458626Y-87842063D01*
X108314463Y-87986226D01*
X108201195Y-88155744D01*
X108123174Y-88344102D01*
X108083400Y-88544061D01*
X105901273Y-88544061D01*
X105767144Y-88343323D01*
X105602221Y-88178400D01*
X105767144Y-88013477D01*
X105910507Y-87798918D01*
X106009258Y-87560513D01*
X106059600Y-87307424D01*
X106059600Y-87049376D01*
X106009258Y-86796287D01*
X105910507Y-86557882D01*
X105767144Y-86343323D01*
X105602221Y-86178400D01*
X105767144Y-86013477D01*
X105910507Y-85798918D01*
X106009258Y-85560513D01*
X106059600Y-85307424D01*
X106059600Y-85049376D01*
X106009258Y-84796287D01*
X105910507Y-84557882D01*
X105767144Y-84343323D01*
X105595540Y-84171719D01*
X105727903Y-84049627D01*
X105879073Y-83842029D01*
X105983355Y-83616461D01*
X114077800Y-83616461D01*
X114077800Y-83820339D01*
X114117574Y-84020298D01*
X114195595Y-84208656D01*
X114308863Y-84378174D01*
X114453026Y-84522337D01*
X114622544Y-84635605D01*
X114810902Y-84713626D01*
X115010861Y-84753400D01*
X115214739Y-84753400D01*
X115414698Y-84713626D01*
X115603056Y-84635605D01*
X115772574Y-84522337D01*
X115916737Y-84378174D01*
X116030005Y-84208656D01*
X116108026Y-84020298D01*
X116147800Y-83820339D01*
X116147800Y-83616461D01*
X116108026Y-83416502D01*
X116030005Y-83228144D01*
X115916737Y-83058626D01*
X115772574Y-82914463D01*
X115603056Y-82801195D01*
X115414698Y-82723174D01*
X115214739Y-82683400D01*
X115010861Y-82683400D01*
X114810902Y-82723174D01*
X114622544Y-82801195D01*
X114453026Y-82914463D01*
X114308863Y-83058626D01*
X114195595Y-83228144D01*
X114117574Y-83416502D01*
X114077800Y-83616461D01*
X105983355Y-83616461D01*
X105986838Y-83608928D01*
X106017510Y-83507800D01*
X105893824Y-83305400D01*
X104876600Y-83305400D01*
X104876600Y-83325400D01*
X104622600Y-83325400D01*
X104622600Y-83305400D01*
X103605376Y-83305400D01*
X103481690Y-83507800D01*
X103512362Y-83608928D01*
X103620127Y-83842029D01*
X103771297Y-84049627D01*
X103903660Y-84171719D01*
X103732056Y-84343323D01*
X103588693Y-84557882D01*
X103489942Y-84796287D01*
X103439600Y-85049376D01*
X100991087Y-85049376D01*
X100888174Y-84946463D01*
X100718656Y-84833195D01*
X100530298Y-84755174D01*
X100330339Y-84715400D01*
X100324610Y-84715400D01*
X100360026Y-84629898D01*
X100399800Y-84429939D01*
X100399800Y-84226061D01*
X100360026Y-84026102D01*
X100282005Y-83837744D01*
X100168737Y-83668226D01*
X100024574Y-83524063D01*
X99855056Y-83410795D01*
X99666698Y-83332774D01*
X99466739Y-83293000D01*
X99262861Y-83293000D01*
X99062902Y-83332774D01*
X98874544Y-83410795D01*
X98705026Y-83524063D01*
X98560863Y-83668226D01*
X98447595Y-83837744D01*
X98369574Y-84026102D01*
X98329800Y-84226061D01*
X95761770Y-84226061D01*
X95745992Y-84178139D01*
X95473425Y-84047242D01*
X95180558Y-83972035D01*
X94956200Y-83959680D01*
X94956200Y-83821216D01*
X94938548Y-83732472D01*
X95395200Y-83732472D01*
X95607472Y-83711565D01*
X95811587Y-83649647D01*
X95999700Y-83549099D01*
X96164583Y-83413783D01*
X96299899Y-83248900D01*
X96400447Y-83060787D01*
X96462365Y-82856672D01*
X96483272Y-82644400D01*
X96483272Y-81744400D01*
X96469424Y-81603800D01*
X96469539Y-81603800D01*
X96669498Y-81564026D01*
X96857856Y-81486005D01*
X97027374Y-81372737D01*
X97171537Y-81228574D01*
X97284805Y-81059056D01*
X97362826Y-80870698D01*
X97402600Y-80670739D01*
X97402600Y-80466861D01*
X97362826Y-80266902D01*
X97284805Y-80078544D01*
X97171537Y-79909026D01*
X97027374Y-79764863D01*
X96857856Y-79651595D01*
X96669498Y-79573574D01*
X96469539Y-79533800D01*
X96265661Y-79533800D01*
X96065702Y-79573574D01*
X95996448Y-79602260D01*
X95994256Y-79600795D01*
X95805898Y-79522774D01*
X95605939Y-79483000D01*
X95402061Y-79483000D01*
X95202102Y-79522774D01*
X95013744Y-79600795D01*
X94864937Y-79700224D01*
X94834737Y-79655026D01*
X94690574Y-79510863D01*
X94521056Y-79397595D01*
X94332698Y-79319574D01*
X94132739Y-79279800D01*
X93928861Y-79279800D01*
X93728902Y-79319574D01*
X93540544Y-79397595D01*
X93371026Y-79510863D01*
X93226863Y-79655026D01*
X93113595Y-79824544D01*
X93035574Y-80012902D01*
X92995800Y-80212861D01*
X92995800Y-80416739D01*
X93035574Y-80616698D01*
X93113595Y-80805056D01*
X93226863Y-80974574D01*
X93371026Y-81118737D01*
X93540544Y-81232005D01*
X93541138Y-81232251D01*
X93489953Y-81328013D01*
X93428035Y-81532128D01*
X93407128Y-81744400D01*
X93407128Y-82437400D01*
X93270016Y-82437400D01*
X92973457Y-82496389D01*
X92694105Y-82612101D01*
X92442695Y-82780088D01*
X92228888Y-82993895D01*
X92060901Y-83245305D01*
X91945189Y-83524657D01*
X91886200Y-83821216D01*
X91211000Y-83821216D01*
X91211000Y-79644967D01*
X91305344Y-79708005D01*
X91493702Y-79786026D01*
X91693661Y-79825800D01*
X91897539Y-79825800D01*
X92097498Y-79786026D01*
X92285856Y-79708005D01*
X92455374Y-79594737D01*
X92599537Y-79450574D01*
X92696472Y-79305500D01*
X92745976Y-79305500D01*
X92941106Y-79266686D01*
X93124914Y-79190550D01*
X93290337Y-79080018D01*
X93431018Y-78939337D01*
X93541550Y-78773914D01*
X93617686Y-78590106D01*
X93656500Y-78394976D01*
X93656500Y-78196024D01*
X93617686Y-78000894D01*
X93541550Y-77817086D01*
X93431018Y-77651663D01*
X93290337Y-77510982D01*
X93124914Y-77400450D01*
X92941106Y-77324314D01*
X92745976Y-77285500D01*
X92547024Y-77285500D01*
X92351894Y-77324314D01*
X92168086Y-77400450D01*
X92002663Y-77510982D01*
X91861982Y-77651663D01*
X91792400Y-77755800D01*
X91744600Y-77755800D01*
X91675018Y-77651663D01*
X91534337Y-77510982D01*
X91368914Y-77400450D01*
X91211000Y-77335040D01*
X91211000Y-75971000D01*
X93702131Y-75971000D01*
X93574226Y-76056463D01*
%TD*%
M02*
