%TF.GenerationSoftware,KiCad,Pcbnew,(5.1.6-0-10_14)*%
%TF.CreationDate,2020-10-08T00:08:50+03:00*%
%TF.ProjectId,ikea-fyrtur,696b6561-2d66-4797-9274-75722e6b6963,rev?*%
%TF.SameCoordinates,Original*%
%TF.FileFunction,Paste,Top*%
%TF.FilePolarity,Positive*%
%FSLAX46Y46*%
G04 Gerber Fmt 4.6, Leading zero omitted, Abs format (unit mm)*
G04 Created by KiCad (PCBNEW (5.1.6-0-10_14)) date 2020-10-08 00:08:50*
%MOMM*%
%LPD*%
G01*
G04 APERTURE LIST*
%ADD10R,1.050000X1.600000*%
%ADD11R,2.500000X1.000000*%
%ADD12R,1.000000X1.800000*%
G04 APERTURE END LIST*
D10*
%TO.C,SW4*%
X91122500Y-76390500D03*
X91122500Y-80200500D03*
X92583000Y-80200500D03*
X92583000Y-76390500D03*
%TD*%
%TO.C,SW3*%
X91122500Y-90424000D03*
X91122500Y-94234000D03*
X92583000Y-94234000D03*
X92583000Y-90424000D03*
%TD*%
%TO.C,C4*%
G36*
G01*
X97400100Y-96412800D02*
X97875100Y-96412800D01*
G75*
G02*
X98112600Y-96650300I0J-237500D01*
G01*
X98112600Y-97225300D01*
G75*
G02*
X97875100Y-97462800I-237500J0D01*
G01*
X97400100Y-97462800D01*
G75*
G02*
X97162600Y-97225300I0J237500D01*
G01*
X97162600Y-96650300D01*
G75*
G02*
X97400100Y-96412800I237500J0D01*
G01*
G37*
G36*
G01*
X97400100Y-94662800D02*
X97875100Y-94662800D01*
G75*
G02*
X98112600Y-94900300I0J-237500D01*
G01*
X98112600Y-95475300D01*
G75*
G02*
X97875100Y-95712800I-237500J0D01*
G01*
X97400100Y-95712800D01*
G75*
G02*
X97162600Y-95475300I0J237500D01*
G01*
X97162600Y-94900300D01*
G75*
G02*
X97400100Y-94662800I237500J0D01*
G01*
G37*
%TD*%
D11*
%TO.C,U2*%
X116921600Y-80980400D03*
X116921600Y-82980400D03*
X116921600Y-84980400D03*
X116921600Y-86980400D03*
X116921600Y-88980400D03*
X116921600Y-90980400D03*
X116921600Y-92980400D03*
X116921600Y-94980400D03*
D12*
X114321600Y-96480400D03*
X112321600Y-96480400D03*
X110321600Y-96480400D03*
X108321600Y-96480400D03*
X106321600Y-96480400D03*
X104321600Y-96480400D03*
D11*
X101721600Y-94980400D03*
X101721600Y-92980400D03*
X101721600Y-90980400D03*
X101721600Y-88980400D03*
X101721600Y-86980400D03*
X101721600Y-84980400D03*
X101721600Y-82980400D03*
X101721600Y-80980400D03*
%TD*%
M02*
