M48
; DRILL file {KiCad (5.1.6-0-10_14)} date Thursday, October 08, 2020 at 12:08:53 AM
; FORMAT={-:-/ absolute / inch / decimal}
; #@! TF.CreationDate,2020-10-08T00:08:53+03:00
; #@! TF.GenerationSoftware,Kicad,Pcbnew,(5.1.6-0-10_14)
FMAT,2
INCH
T1C0.0177
T2C0.0276
T3C0.0315
T4C0.0354
T5C0.0276
T6C0.0390
T7C0.0394
T8C0.0454
%
G90
G05
T1
X3.596Y-3.214
X3.606Y-3.772
X3.614Y-3.102
X3.614Y-3.654
X3.7Y-3.636
X3.702Y-3.162
X3.71Y-3.026
X3.76Y-3.17
X3.766Y-3.016
X3.768Y-3.702
X3.788Y-3.612
X3.788Y-3.82
X3.79Y-2.992
X3.794Y-3.172
X3.85Y-3.32
X3.8824Y-3.7476
X3.904Y-3.822
X3.906Y-3.78
X3.912Y-3.32
X3.9304Y-3.7476
X3.946Y-3.376
X4.0672Y-3.2248
X4.2Y-3.702
X4.204Y-3.49
X4.238Y-3.49
X4.242Y-3.702
X4.296Y-3.49
X4.3Y-3.602
X4.33Y-3.49
X4.334Y-3.602
X4.358Y-3.73
X4.39Y-3.602
X4.392Y-3.49
X4.406Y-3.73
X4.428Y-3.602
X4.43Y-3.49
X4.452Y-3.73
X4.462Y-3.296
X4.474Y-3.462
X4.532Y-3.296
X4.56Y-3.786
X4.576Y-3.82
X4.624Y-3.82
X4.842Y-3.506
X4.844Y-3.436
X4.946Y-3.276
X4.996Y-3.068
X5.006Y-3.106
X5.006Y-3.154
X5.008Y-3.202
X5.052Y-3.786
X5.052Y-3.822
X5.088Y-3.786
X5.088Y-3.822
T2
X5.1675Y-3.665
X5.1675Y-3.75
X5.2675Y-3.665
X5.2675Y-3.75
T3
X4.93Y-3.766
X4.738Y-3.682
X4.738Y-3.7607
X4.124Y-3.196
X4.124Y-3.2747
X4.124Y-3.3535
X4.124Y-3.4322
X4.124Y-3.511
X4.124Y-3.5897
X4.124Y-3.6684
X4.738Y-3.17
X4.738Y-3.2487
X4.738Y-3.3275
X4.738Y-3.4062
X4.738Y-3.485
X4.738Y-3.5637
X3.872Y-3.416
X3.872Y-3.4947
X3.872Y-3.5735
X3.872Y-3.6522
T4
X3.678Y-3.306
X3.678Y-3.426
X3.738Y-3.236
X3.738Y-3.366
T5
X3.5784Y-3.0825
X3.6475Y-3.0825
X3.5784Y-3.635
X3.6475Y-3.635
T6
X4.906Y-3.252
X4.946Y-3.052
X4.986Y-3.252
T8
X4.0Y-3.028
X4.924Y-3.472
X4.02Y-3.802
T7
G00X5.1762Y-3.7075
M15
G01X5.2588Y-3.7075
M16
G05
T0
M30
